<svg width="433" height="280" viewBox="0 0 433 280" fill="none" xmlns="http://www.w3.org/2000/svg">
<path d="M432.5 138.454V189.985H146.009V14.9919C146.009 7.3117 151.978 0.5 160.501 0.5H258.389C266.05 0.5 272.881 7.33113 272.881 14.9919V107.589V108.089H273.381H402.135C418.614 108.089 432.5 121.975 432.5 138.454Z" fill="#EA6620" stroke="black"/>
<path d="M405.661 122.58H290.135C287.49 122.58 285.726 120.817 285.726 118.171C285.726 115.525 287.49 113.762 290.135 113.762H405.661C408.306 113.762 410.07 115.525 410.07 118.171C410.07 120.817 408.306 122.58 405.661 122.58Z" fill="white"/>
<path d="M408.306 134.927H356.275C355.394 134.927 353.63 134.045 353.63 132.281C353.63 130.517 354.512 129.635 356.275 129.635H408.306C409.188 129.635 410.952 130.517 410.952 132.281C410.952 134.045 410.07 134.927 408.306 134.927Z" fill="#FF9200"/>
<path d="M408.306 143.745H356.275C355.393 143.745 353.629 142.863 353.629 141.1C353.629 140.218 354.511 138.454 356.275 138.454H408.306C409.187 138.454 410.951 139.336 410.951 141.1C410.951 141.982 410.069 143.745 408.306 143.745Z" fill="#FF9200"/>
<path d="M408.306 151.682H356.275C355.393 151.682 353.629 150.8 353.629 149.037C353.629 148.155 354.511 146.391 356.275 146.391H408.306C409.187 146.391 410.951 147.273 410.951 149.037C410.951 150.8 410.069 151.682 408.306 151.682Z" fill="#FF9200"/>
<path d="M408.306 159.619H356.275C355.393 159.619 353.629 158.737 353.629 156.973C353.629 156.092 354.511 154.328 356.275 154.328H408.306C409.187 154.328 410.951 155.21 410.951 156.973C410.951 158.737 410.069 159.619 408.306 159.619Z" fill="#FF9200"/>
<path d="M408.306 167.556H356.275C355.393 167.556 353.629 166.674 353.629 164.91C353.629 164.028 354.511 162.265 356.275 162.265H408.306C409.187 162.265 410.951 163.147 410.951 164.91C410.951 166.674 410.069 167.556 408.306 167.556Z" fill="#FF9200"/>
<path d="M257.507 8.31865H161.383C160.578 8.31865 160.067 8.11778 159.753 7.80369C159.438 7.48959 159.238 6.97783 159.238 6.17303C159.238 5.36823 159.438 4.85646 159.753 4.54236C160.067 4.22827 160.578 4.0274 161.383 4.0274H257.507C258.312 4.0274 258.824 4.22827 259.138 4.54236C259.452 4.85646 259.653 5.36822 259.653 6.17303C259.653 6.86903 259.31 7.39728 258.849 7.76681C258.371 8.14901 257.817 8.31865 257.507 8.31865Z" fill="#F7D077" stroke="black"/>
<path d="M254.861 122.08H231.932C231.213 122.08 230.451 121.716 229.86 121.124C229.269 120.533 228.904 119.772 228.904 119.053C228.904 118.334 229.269 117.572 229.86 116.981C230.451 116.39 231.213 116.025 231.932 116.025H254.861C255.58 116.025 256.341 116.39 256.932 116.981C257.523 117.572 257.888 118.334 257.888 119.053C257.888 119.86 257.685 120.614 257.232 121.158C256.793 121.685 256.063 122.08 254.861 122.08Z" fill="#606054" stroke="black"/>
<path d="M225.759 104.443H225.54L225.391 104.604L193.792 138.836H173.728C167.831 138.836 162.764 133.769 162.764 127.872V22.9287C162.764 18.8355 166.025 16.3737 169.319 16.3737H249.569C253.662 16.3737 256.124 19.6355 256.124 22.9287V104.443H225.759Z" fill="#C6DEC3" stroke="black"/>
<path d="M182.847 118.653L182.782 118.604L182.705 118.579C181.545 118.192 180.53 117.207 179.798 115.743C179.067 114.281 178.638 112.376 178.638 110.234V16.3737H249.57C253.663 16.3737 256.125 19.6355 256.125 22.9287V50.0733L193.674 118.681C190.331 121.165 186.185 121.156 182.847 118.653Z" fill="#E2EFE1" stroke="black"/>
<path d="M256.624 104.561H257.124V104.061V22.9286C257.124 19.1669 254.295 15.3737 249.569 15.3737H168.437C164.675 15.3737 160.882 18.2031 160.882 22.9286V126.99C160.882 133.439 166.397 138.954 172.846 138.954H193.129H193.348L193.497 138.793L225.096 104.561H256.624ZM226.641 108.852H226.421L226.273 109.014L195.414 142.517C194.691 143.236 194.001 143.245 193.129 143.245H172.846C165.186 143.245 158.354 136.414 158.354 128.753V23.8105C158.354 17.9135 163.422 12.8462 169.319 12.8462H249.569C255.52 12.8462 260.534 17.0825 260.534 22.9286V105.825C260.534 106.544 260.169 107.305 259.578 107.896C258.987 108.488 258.225 108.852 257.506 108.852H226.641Z" fill="#606054" stroke="black"/>
<path d="M156.486 234.078L146.143 190.985H432.353L421.149 234.078H156.486Z" fill="#4D4D4D" stroke="black"/>
<path d="M232.801 174.229C248.932 175.081 262.578 180.868 272.956 189.985H244.34C240.833 189.108 237.267 188.221 232.814 188.221C232.521 188.221 232.043 188.052 231.419 187.655C230.813 187.269 230.131 186.709 229.447 186.025C228.076 184.654 226.741 182.833 226.001 181.035C225.253 179.219 225.159 177.559 226.026 176.365C226.899 175.162 228.886 174.231 232.801 174.229Z" fill="#D18B00" stroke="black"/>
<path d="M363.318 174.229C379.45 175.081 393.096 180.868 403.474 189.985H374.857C371.351 189.108 367.784 188.221 363.332 188.221C362.908 188.221 362.337 188.035 361.666 187.645C361.005 187.26 360.289 186.701 359.587 186.02C358.181 184.653 356.878 182.839 356.192 181.046C355.503 179.243 355.478 177.582 356.41 176.378C357.353 175.16 359.408 174.231 363.318 174.229Z" fill="#D18B00" stroke="black"/>
<path d="M268.472 234.578C268.472 258.995 248.413 279.054 223.996 279.054C199.58 279.054 179.521 258.995 179.521 234.578V233.705C180.398 209.276 199.586 190.103 223.996 190.103C248.407 190.103 267.595 209.276 268.472 233.706V233.706V233.706V233.706V233.706V233.707V233.707V233.707V233.708V233.708V233.708V233.708V233.709V233.709V233.709V233.71V233.71V233.71V233.711V233.711V233.711V233.712V233.712V233.712V233.713V233.713V233.713V233.714V233.714V233.714V233.715V233.715V233.716V233.716V233.716V233.717V233.717V233.718V233.718V233.719V233.719V233.72V233.72V233.72V233.721V233.721V233.722V233.722V233.723V233.723V233.724V233.724V233.725V233.725V233.726V233.727V233.727V233.728V233.728V233.729V233.729V233.73V233.73V233.731V233.732V233.732V233.733V233.734V233.734V233.735V233.735V233.736V233.737V233.737V233.738V233.739V233.739V233.74V233.741V233.742V233.742V233.743V233.744V233.744V233.745V233.746V233.747V233.747V233.748V233.749V233.75V233.751V233.751V233.752V233.753V233.754V233.755V233.756V233.756V233.757V233.758V233.759V233.76V233.761V233.762V233.763V233.764V233.765V233.765V233.766V233.767V233.768V233.769V233.77V233.771V233.772V233.773V233.774V233.775V233.776V233.777V233.779V233.78V233.781V233.782V233.783V233.784V233.785V233.786V233.787V233.788V233.79V233.791V233.792V233.793V233.794V233.795V233.797V233.798V233.799V233.8V233.802V233.803V233.804V233.805V233.807V233.808V233.809V233.811V233.812V233.813V233.815V233.816V233.817V233.819V233.82V233.822V233.823V233.824V233.826V233.827V233.829V233.83V233.832V233.833V233.835V233.836V233.838V233.839V233.841V233.842V233.844V233.845V233.847V233.849V233.85V233.852V233.853V233.855V233.857V233.858V233.86V233.862V233.863V233.865V233.867V233.869V233.87V233.872V233.874V233.876V233.877V233.879V233.881V233.883V233.885V233.887V233.888V233.89V233.892V233.894V233.896V233.898V233.9V233.902V233.904V233.906V233.908V233.91V233.912V233.914V233.916V233.918V233.92V233.922V233.924V233.926V233.928V233.93V233.933V233.935V233.937V233.939V233.941V233.943V233.946V233.948V233.95V233.952V233.955V233.957V233.959V233.962V233.964V233.966V233.969V233.971V233.973V233.976V233.978V233.981V233.983V233.985V233.988V233.99V233.993V233.995V233.998V234V234.003V234.006V234.008V234.011V234.013V234.016V234.019V234.021V234.024V234.027V234.029V234.032V234.035V234.037V234.04V234.043V234.046V234.049V234.051V234.054V234.057V234.06V234.063V234.066V234.069V234.071V234.074V234.077V234.08V234.083V234.086V234.089V234.092V234.095V234.098V234.101V234.104V234.108V234.111V234.114V234.117V234.12V234.123V234.127V234.13V234.133V234.136V234.139V234.143V234.146V234.149V234.153V234.156V234.159V234.163V234.166V234.169V234.173V234.176V234.18V234.183V234.187V234.19V234.194V234.197V234.201V234.204V234.208V234.212V234.215V234.219V234.223V234.226V234.23V234.234V234.237V234.241V234.245V234.249V234.252V234.256V234.26V234.264V234.268V234.272V234.275V234.279V234.283V234.287V234.291V234.295V234.299V234.303V234.307V234.311V234.315V234.319V234.324V234.328V234.332V234.336V234.34V234.344V234.349V234.353V234.357V234.361V234.366V234.37V234.374V234.379V234.383V234.387V234.392V234.396V234.401V234.405V234.41V234.414V234.419V234.423V234.428V234.432V234.437V234.441V234.446V234.451V234.455V234.46V234.465V234.469V234.474V234.479V234.484V234.489V234.493V234.498V234.503V234.508V234.513V234.518V234.523V234.528V234.533V234.538V234.543V234.548V234.553V234.558V234.563V234.568V234.573V234.578Z" fill="#606054" stroke="black"/>
<path d="M249.951 234.578C249.951 248.423 238.7 260.535 223.995 260.535C210.15 260.535 198.039 249.283 198.039 234.578V234.578V234.578V234.578V234.578V234.578V234.578V234.578V234.578V234.578V234.578V234.578V234.578V234.578V234.578V234.578V234.578V234.578V234.578V234.578V234.578V234.578V234.578V234.578V234.578V234.578V234.578V234.578V234.578V234.577V234.577V234.577V234.577V234.577V234.577V234.577V234.577V234.577V234.577V234.577V234.577V234.577V234.577V234.577V234.576V234.576V234.576V234.576V234.576V234.576V234.576V234.576V234.576V234.576V234.576V234.575V234.575V234.575V234.575V234.575V234.575V234.575V234.575V234.574V234.574V234.574V234.574V234.574V234.574V234.573V234.573V234.573V234.573V234.573V234.573V234.572V234.572V234.572V234.572V234.572V234.572V234.571V234.571V234.571V234.571V234.57V234.57V234.57V234.57V234.57V234.569V234.569V234.569V234.569V234.568V234.568V234.568V234.567V234.567V234.567V234.567V234.566V234.566V234.566V234.565V234.565V234.565V234.565V234.564V234.564V234.564V234.563V234.563V234.562V234.562V234.562V234.561V234.561V234.561V234.56V234.56V234.559V234.559V234.559V234.558V234.558V234.557V234.557V234.557V234.556V234.556V234.555V234.555V234.554V234.554V234.553V234.553V234.552V234.552V234.551V234.551V234.55V234.55V234.549V234.549V234.548V234.548V234.547V234.547V234.546V234.545V234.545V234.544V234.544V234.543V234.542V234.542V234.541V234.541V234.54V234.539V234.539V234.538V234.537V234.537V234.536V234.535V234.535V234.534V234.533V234.533V234.532V234.531V234.53V234.53V234.529V234.528V234.527V234.527V234.526V234.525V234.524V234.523V234.523V234.522V234.521V234.52V234.519V234.518V234.517V234.517V234.516V234.515V234.514V234.513V234.512V234.511V234.51V234.509V234.508V234.507V234.506V234.505V234.504V234.503V234.502V234.501V234.5V234.499V234.498V234.497V234.496V234.495V234.494V234.493V234.492V234.491V234.49V234.489V234.487V234.486V234.485V234.484V234.483V234.482V234.48V234.479V234.478V234.477V234.476V234.474V234.473V234.472V234.471V234.469V234.468V234.467V234.465V234.464V234.463V234.461V234.46V234.459V234.457V234.456V234.455V234.453V234.452V234.45V234.449V234.448V234.446V234.445V234.443V234.442V234.44V234.439V234.437V234.436V234.434V234.432V234.431V234.429V234.428V234.426V234.425V234.423V234.421V234.42V234.418V234.416V234.415V234.413V234.411V234.41V234.408V234.406V234.404V234.403V234.401V234.399V234.397V234.396V234.394V234.392V234.39V234.388V234.386V234.384V234.383V234.381V234.379V234.377V234.375V234.373V234.371V234.369V234.367V234.365V234.363V234.361V234.359V234.357V234.355V234.353V234.351V234.349V234.346V234.344V234.342V234.34V234.338V234.336V234.333V234.331V234.329V234.327V234.325V234.322V234.32V234.318V234.315V234.313V234.311V234.308V234.306V234.304V234.301V234.299V234.297V234.294V234.292V234.289V234.287V234.284V234.282V234.279V234.277V234.274V234.272V234.269V234.267V234.264V234.261V234.259V234.256V234.253V234.251V234.248V234.245V234.243V234.24V234.237V234.235V234.232V234.229V234.226V234.223V234.221V234.218V234.215V234.212V234.209V234.206V234.203V234.2V234.197V234.194V234.192V234.189V234.186V234.183V234.179V234.176V234.173V234.17V234.167V234.164V234.161V234.158V234.155V234.151V234.148V234.145V234.142V234.139V234.135V234.132V234.129V234.125V234.122V234.119V234.115V234.112V234.109V234.105V234.102V234.098V234.095V234.091V234.088V234.085V234.081V234.077V234.074V234.07V234.067V234.063V234.06V234.056V234.052V234.049V234.045V234.041V234.037V234.034V234.03V234.026V234.022V234.019V234.015V234.011V234.007V234.003V233.999V233.995V233.991V233.987V233.984V233.98V233.976V233.972V233.967V233.963V233.959V233.955V233.951V233.947V233.943V233.939V233.935V233.93V233.926V233.922V233.918V233.913V233.909V233.905V233.9V233.896V233.892V233.887V233.883V233.879V233.874V233.87V233.865V233.861V233.856V233.852V233.847V233.843V233.838V233.833V233.829V233.824V233.819V233.815V233.81V233.805V233.801V233.796V233.791V233.786V233.781V233.777V233.772V233.767V233.762V233.757V233.752V233.747V233.742V233.737V233.732V233.727V233.722V233.717V233.712V233.707V233.702V233.696C198.039 219.874 209.268 208.622 223.995 208.622C237.84 208.622 249.951 219.873 249.951 234.578Z" fill="#CCCCCC" stroke="black"/>
<path d="M235.842 234.578C235.842 240.499 230.752 246.425 223.996 246.425C218.076 246.425 212.15 241.334 212.15 234.578C212.15 227.799 217.217 222.732 223.996 222.732C230.775 222.732 235.842 227.799 235.842 234.578Z" fill="#606054" stroke="black"/>
<path d="M224.026 209.503C235.426 208.79 245.651 216.306 248.889 226.711C247.463 224.347 245.363 222.194 242.802 220.39C237.865 216.912 231.15 214.677 223.995 214.677C216.826 214.677 210.326 217.141 205.502 220.843C202.523 223.129 200.167 225.901 198.696 228.872C201.297 217.788 211.359 209.504 223.995 209.504H224.011L224.026 209.503Z" fill="#999999" stroke="black"/>
<path d="M223.996 190.103C244.337 190.103 261.051 203.416 266.567 221.989C260.106 208.257 243.657 198.803 223.996 198.803C204.336 198.803 187.887 208.257 181.426 221.989C186.941 203.416 203.656 190.103 223.996 190.103Z" fill="#54544A" stroke="black"/>
<path d="M276.026 241.133C271.933 241.133 269.471 237.872 269.471 234.578C269.471 209.61 248.964 189.103 223.996 189.103C199.027 189.103 178.52 209.61 178.52 234.578C178.52 238.671 175.258 241.133 171.965 241.133C167.872 241.133 165.41 237.872 165.41 234.578C165.41 202.22 191.647 175.111 224.878 175.111C257.215 175.111 284.311 201.315 284.345 234.516C283.485 237.84 280.144 241.133 276.026 241.133Z" fill="#F7B10D" stroke="black"/>
<path d="M171.965 236.724C171.16 236.724 170.648 236.523 170.334 236.209C170.02 235.895 169.819 235.383 169.819 234.578C169.819 204.871 194.288 180.402 223.996 180.402C224.8 180.402 225.312 180.603 225.626 180.917C225.94 181.231 226.141 181.743 226.141 182.548C226.141 183.353 225.94 183.864 225.626 184.178C225.312 184.492 224.8 184.693 223.996 184.693C196.381 184.693 174.111 206.964 174.111 234.578C174.111 234.888 173.941 235.442 173.559 235.919C173.189 236.381 172.661 236.724 171.965 236.724Z" fill="#F3DE9C" stroke="black"/>
<path d="M398.989 234.578C398.989 259.142 379.077 279.054 354.514 279.054C329.951 279.054 310.038 259.142 310.038 234.578C310.038 210.015 329.951 190.103 354.514 190.103C379.077 190.103 398.989 210.015 398.989 234.578Z" fill="#606054" stroke="black"/>
<path d="M379.589 234.578C379.589 248.423 368.337 260.535 353.632 260.535C338.917 260.535 327.676 249.294 327.676 234.578V234.578V234.578V234.578V234.578V234.578V234.578V234.578V234.578V234.578V234.578V234.578V234.578V234.578V234.578V234.578V234.578V234.578V234.578V234.578V234.578V234.578V234.578V234.578V234.578V234.578V234.578V234.578V234.578V234.577V234.577V234.577V234.577V234.577V234.577V234.577V234.577V234.577V234.577V234.577V234.577V234.577V234.577V234.577V234.576V234.576V234.576V234.576V234.576V234.576V234.576V234.576V234.576V234.576V234.576V234.575V234.575V234.575V234.575V234.575V234.575V234.575V234.575V234.574V234.574V234.574V234.574V234.574V234.574V234.573V234.573V234.573V234.573V234.573V234.573V234.572V234.572V234.572V234.572V234.572V234.572V234.571V234.571V234.571V234.571V234.57V234.57V234.57V234.57V234.57V234.569V234.569V234.569V234.569V234.568V234.568V234.568V234.567V234.567V234.567V234.567V234.566V234.566V234.566V234.565V234.565V234.565V234.565V234.564V234.564V234.564V234.563V234.563V234.562V234.562V234.562V234.561V234.561V234.561V234.56V234.56V234.559V234.559V234.559V234.558V234.558V234.557V234.557V234.557V234.556V234.556V234.555V234.555V234.554V234.554V234.553V234.553V234.552V234.552V234.551V234.551V234.55V234.55V234.549V234.549V234.548V234.548V234.547V234.547V234.546V234.545V234.545V234.544V234.544V234.543V234.542V234.542V234.541V234.541V234.54V234.539V234.539V234.538V234.537V234.537V234.536V234.535V234.535V234.534V234.533V234.533V234.532V234.531V234.53V234.53V234.529V234.528V234.527V234.527V234.526V234.525V234.524V234.523V234.523V234.522V234.521V234.52V234.519V234.518V234.517V234.517V234.516V234.515V234.514V234.513V234.512V234.511V234.51V234.509V234.508V234.507V234.506V234.505V234.504V234.503V234.502V234.501V234.5V234.499V234.498V234.497V234.496V234.495V234.494V234.493V234.492V234.491V234.49V234.489V234.487V234.486V234.485V234.484V234.483V234.482V234.48V234.479V234.478V234.477V234.476V234.474V234.473V234.472V234.471V234.469V234.468V234.467V234.465V234.464V234.463V234.461V234.46V234.459V234.457V234.456V234.455V234.453V234.452V234.45V234.449V234.448V234.446V234.445V234.443V234.442V234.44V234.439V234.437V234.436V234.434V234.432V234.431V234.429V234.428V234.426V234.425V234.423V234.421V234.42V234.418V234.416V234.415V234.413V234.411V234.41V234.408V234.406V234.404V234.403V234.401V234.399V234.397V234.396V234.394V234.392V234.39V234.388V234.386V234.384V234.383V234.381V234.379V234.377V234.375V234.373V234.371V234.369V234.367V234.365V234.363V234.361V234.359V234.357V234.355V234.353V234.351V234.349V234.346V234.344V234.342V234.34V234.338V234.336V234.333V234.331V234.329V234.327V234.325V234.322V234.32V234.318V234.315V234.313V234.311V234.308V234.306V234.304V234.301V234.299V234.297V234.294V234.292V234.289V234.287V234.284V234.282V234.279V234.277V234.274V234.272V234.269V234.267V234.264V234.261V234.259V234.256V234.253V234.251V234.248V234.245V234.243V234.24V234.237V234.235V234.232V234.229V234.226V234.223V234.221V234.218V234.215V234.212V234.209V234.206V234.203V234.2V234.197V234.194V234.192V234.189V234.186V234.183V234.179V234.176V234.173V234.17V234.167V234.164V234.161V234.158V234.155V234.151V234.148V234.145V234.142V234.139V234.135V234.132V234.129V234.125V234.122V234.119V234.115V234.112V234.109V234.105V234.102V234.098V234.095V234.091V234.088V234.085V234.081V234.077V234.074V234.07V234.067V234.063V234.06V234.056V234.052V234.049V234.045V234.041V234.037V234.034V234.03V234.026V234.022V234.019V234.015V234.011V234.007V234.003V233.999V233.995V233.991V233.987V233.984V233.98V233.976V233.972V233.967V233.963V233.959V233.955V233.951V233.947V233.943V233.939V233.935V233.93V233.926V233.922V233.918V233.913V233.909V233.905V233.9V233.896V233.892V233.887V233.883V233.879V233.874V233.87V233.865V233.861V233.856V233.852V233.847V233.843V233.838V233.833V233.829V233.824V233.819V233.815V233.81V233.805V233.801V233.796V233.791V233.786V233.781V233.777V233.772V233.767V233.762V233.757V233.752V233.747V233.742V233.737V233.732V233.727V233.722V233.717V233.712V233.707V233.702V233.696C327.676 219.874 338.906 208.622 353.632 208.622C368.348 208.622 379.589 219.863 379.589 234.578Z" fill="#CCCCCC" stroke="black"/>
<path d="M365.477 234.578C365.477 240.499 360.387 246.425 353.631 246.425C346.852 246.425 341.784 241.357 341.784 234.578C341.784 227.799 346.852 222.732 353.631 222.732C360.41 222.732 365.477 227.799 365.477 234.578Z" fill="#606054" stroke="black"/>
<path d="M353.662 209.503C365.868 208.785 375.681 216.407 378.658 226.932C377.23 224.482 375.08 222.251 372.44 220.39C367.502 216.912 360.787 214.677 353.632 214.677C346.464 214.677 339.964 217.141 335.139 220.843C332.16 223.129 329.805 225.901 328.333 228.872C330.935 217.788 340.996 209.504 353.632 209.504H353.647L353.662 209.503Z" fill="#999999" stroke="black"/>
<path d="M353.632 190.103C374.616 190.103 392.366 204.262 396.955 223.722C391.102 209.058 374.108 198.803 353.632 198.803C333.971 198.803 317.522 208.257 311.061 221.989C316.577 203.416 333.291 190.103 353.632 190.103Z" fill="#54544A" stroke="black"/>
<path d="M406.544 241.133C402.451 241.133 399.989 237.872 399.989 234.578C399.989 209.61 379.482 189.103 354.513 189.103C329.545 189.103 309.038 209.61 309.038 234.578C309.038 238.671 305.776 241.133 302.483 241.133C300.882 241.133 299.239 240.328 297.986 239.075C296.733 237.822 295.928 236.179 295.928 234.578C295.928 202.22 322.165 175.111 355.395 175.111C387.715 175.111 414.798 201.286 414.862 234.46C413.109 237.932 410.597 241.133 406.544 241.133Z" fill="#F7B10D" stroke="black"/>
<path d="M301.6 236.724C300.795 236.724 300.284 236.523 299.97 236.209C299.655 235.895 299.455 235.383 299.455 234.578C299.455 204.871 323.923 180.402 353.631 180.402C354.436 180.402 354.947 180.603 355.261 180.917C355.576 181.231 355.776 181.743 355.776 182.548C355.776 183.353 355.576 183.864 355.261 184.178C354.947 184.492 354.436 184.693 353.631 184.693C326.017 184.693 303.746 206.964 303.746 234.578C303.746 234.888 303.576 235.442 303.194 235.919C302.824 236.381 302.296 236.724 301.6 236.724Z" fill="#F3DE9C" stroke="black"/>
<path d="M88.6874 229.287V78.1049H100.034V241.133H1.52148L16.9199 229.787H88.1874H88.6874V229.287Z" fill="#54544A" stroke="black"/>
<path d="M106.325 29.6019H126.49V250.834H106.325V29.6019Z" fill="#606054" stroke="black"/>
<path d="M114.643 39.6843H111.998V238.106H114.643V39.6843Z" fill="#999999"/>
<path d="M79.8687 89.5693H133.545V100.916H79.8687V89.5693Z" fill="#606054" stroke="black"/>
<path d="M79.8687 161.883H176.757V173.229H79.8687V161.883Z" fill="#606054" stroke="black"/>
<path d="M189.103 167.556C189.103 174.099 183.799 179.402 177.256 179.402C170.714 179.402 165.41 174.099 165.41 167.556C165.41 161.014 170.714 155.71 177.256 155.71C183.799 155.71 189.103 161.014 189.103 167.556Z" fill="#606054" stroke="black"/>
<path d="M182.929 167.556C182.929 170.689 180.389 173.229 177.256 173.229C174.123 173.229 171.583 170.689 171.583 167.556C171.583 164.423 174.123 161.883 177.256 161.883C180.389 161.883 182.929 164.423 182.929 167.556Z" fill="#F7B10D" stroke="black"/>
</svg>
