<svg width="415" height="280" viewBox="0 0 415 280" fill="none" xmlns="http://www.w3.org/2000/svg">
<path d="M250.25 162.839C250.25 162.236 250.25 161.634 250.049 161.032V160.631L250.451 160.43C251.454 159.828 252.458 159.225 253.462 158.623C254.465 158.021 255.469 157.419 256.473 156.817H256.673C266.911 156.014 277.349 155.01 287.587 154.207C324.723 151.196 363.264 147.984 400.802 143.568L402.006 143.367L401.204 144.371C399.397 146.579 397.59 148.787 395.583 150.995L395.382 151.196H395.181C385.747 151.999 376.112 152.601 366.677 153.404C343.391 155.211 319.303 157.017 295.817 159.025H295.616C295.616 159.025 295.616 159.025 295.415 159.025C295.215 159.025 295.014 159.025 295.014 159.025C278.554 160.43 264.101 161.835 250.651 163.24H250.049L250.25 162.839Z" fill="url(#paint0_linear_48_43)"/>
<path d="M346.603 205.194C346.603 203.187 346.603 201.179 346.603 199.172V198.971C346.603 198.77 346.603 198.77 346.403 198.57L346.202 198.369C346.001 198.168 345.8 197.967 345.399 197.967H345.198L342.99 198.57V197.967C342.99 196.562 343.191 194.756 343.191 193.15C343.592 185.321 344.395 175.485 339.377 170.065C336.968 167.455 334.158 165.85 330.745 165.047L330.143 164.846L330.344 164.444C330.946 162.638 331.749 160.43 333.355 158.623C333.556 158.422 333.556 158.422 333.556 158.222L333.756 158.021H334.158C346.202 157.017 358.447 156.214 370.491 155.211H370.692H370.893C384.141 156.415 383.94 180.704 383.94 192.347V193.953H383.539C382.736 194.153 381.732 194.153 380.929 194.354H380.327V193.752C379.725 182.31 377.316 162.839 367.48 162.839C366.878 162.839 366.276 162.839 365.673 163.039C352.425 165.85 351.823 189.737 351.421 202.584V204.993H351.02C350.217 204.993 349.213 205.194 348.41 205.194C348.209 205.194 348.009 205.194 347.808 205.395L347.005 205.796L346.603 205.194Z" fill="url(#paint1_linear_48_43)"/>
<path d="M316.493 203.387C316.493 194.756 316.493 178.496 310.872 168.459L310.471 167.857L312.277 167.656C315.891 167.054 319.905 166.452 323.92 166.452C332.15 166.452 337.369 169.262 339.979 175.284C341.986 180.303 341.585 187.128 341.183 193.15C340.983 195.157 340.983 196.964 340.983 198.77V199.172H340.581C337.169 199.975 333.555 200.577 330.143 201.179C325.927 201.982 321.511 202.785 317.296 203.789L316.694 203.989L316.493 203.387Z" fill="url(#paint2_linear_48_43)"/>
<path d="M308.865 165.649C307.46 163.842 305.854 162.437 303.847 161.233L302.441 160.43L304.047 160.229C312.679 159.426 321.311 158.824 329.942 158.222H330.946L330.344 159.025C329.34 160.43 328.738 162.036 328.136 164.043L327.935 164.445H327.533C326.329 164.244 325.125 164.244 323.719 164.244C319.705 164.244 315.489 164.846 311.475 165.448L308.865 165.85V165.649Z" fill="url(#paint3_linear_48_43)"/>
<path d="M248.845 158.021C245.834 153.003 239.009 147.984 236.198 145.977L235.998 145.776V145.575C235.797 128.914 234.793 111.852 233.99 95.3912C233.589 89.5698 233.388 83.7485 232.987 77.9271L232.585 69.4962H233.187C234.191 69.4962 235.195 69.4962 236.399 69.4962C239.611 69.4962 242.823 69.4962 246.035 69.2955C248.443 69.2955 250.852 69.0947 253.462 69.0947H254.064V69.6969C254.265 98.603 254.666 127.308 255.268 154.809V155.211L255.068 155.411C254.265 155.813 253.462 156.415 252.659 156.816C251.655 157.419 250.852 157.82 249.849 158.422L249.447 158.623L248.845 158.021Z" fill="url(#paint4_linear_48_43)"/>
<path d="M192.839 231.691C196.252 224.264 195.65 213.223 195.248 205.194C195.248 203.989 195.047 202.986 195.047 201.781C194.847 194.354 194.044 187.128 192.638 180.303C192.036 176.689 191.033 172.072 188.624 169.061L188.222 168.459C188.222 168.459 189.427 168.058 189.627 168.058C192.638 167.054 194.847 163.842 196.854 160.831C197.255 160.028 197.858 159.426 198.259 158.824C204.683 149.59 218.333 148.787 229.373 147.984C231.381 147.783 233.187 147.783 234.994 147.583H235.195L235.395 147.783C239.41 150.594 242.622 153.203 245.432 156.214C247.44 158.422 248.242 160.229 247.841 161.835C247.038 164.645 242.823 166.05 239.812 166.853C234.191 168.258 227.567 170.266 222.347 174.682C209.5 185.522 206.69 201.982 203.88 217.64L203.478 219.848C202.274 226.472 199.664 230.085 194.044 232.293L192.839 232.695V231.691Z" fill="url(#paint5_linear_48_43)"/>
<path d="M178.185 236.509C181.798 229.082 181.196 218.242 180.795 209.811C180.795 208.606 180.594 207.603 180.594 206.599V205.796C180.192 195.157 179.59 181.708 174.17 172.273L173.769 171.671L174.572 171.47C178.185 170.868 181.999 170.467 185.412 169.664H185.612L185.813 169.864C192.036 174.883 192.437 188.131 192.638 196.763C192.638 198.168 192.638 199.373 192.839 200.376C193.24 206.398 193.04 212.621 192.638 219.045V219.848C192.437 224.264 191.835 230.487 189.025 234.1V234.301H188.824C185.01 235.505 181.798 236.509 178.587 237.312L177.583 237.512L178.185 236.509Z" fill="url(#paint6_linear_48_43)"/>
<path d="M201.07 20.3158C189.628 18.1077 174.572 15.2974 159.316 13.8922C155.502 13.4907 151.488 13.29 147.072 13.29C134.224 13.29 120.976 14.8959 108.129 16.301C104.315 16.7025 100.701 17.104 97.0882 17.5055L83.0366 19.1113L83.4381 18.3084C88.055 8.07084 99.497 6.66569 109.534 5.46127L110.738 5.26053C119.771 4.05612 129.808 3.25317 142.053 2.8517C147.072 2.65096 152.09 2.45023 156.908 2.45023C163.331 2.45023 168.952 2.8517 173.769 3.65464C178.386 4.45759 183.003 6.06348 187.42 7.66937L188.022 7.87011C190.029 8.47232 192.036 9.27526 193.843 10.0782L194.646 10.2789C200.066 12.487 201.672 14.6951 201.672 19.7135V20.3158H201.07Z" fill="url(#paint7_linear_48_43)"/>
<path d="M12.3774 115.665C12.3774 110.647 12.3774 106.632 12.1766 102.818V102.216H12.7788C32.6517 102.216 52.7254 102.216 72.5983 102.015H101.304C104.114 102.015 107.326 102.216 110.738 102.417C114.351 102.618 118.165 102.818 121.979 102.818C125.793 102.818 129.206 102.618 132.217 102.216H132.819V102.818C132.819 107.034 132.819 111.249 132.618 115.465V115.866H132.217C110.738 115.866 89.0587 115.866 67.5799 116.067C49.3129 116.067 31.2466 116.268 12.9796 116.268H12.3774V115.665Z" fill="url(#paint8_linear_48_43)"/>
<path d="M12.1768 95.9933H12.5783C37.2689 95.9933 61.9595 95.9933 86.8508 95.9933H100.099C107.125 95.9933 114.352 95.9933 121.377 95.9933H121.98C130.009 95.9933 138.44 95.9933 143.258 88.9675C146.871 83.9491 147.674 76.5219 148.477 69.8976C148.678 68.091 148.878 66.2843 149.079 64.6784C150.484 56.0468 152.09 46.2107 153.094 36.3746V35.9731H153.495C154.499 35.9731 155.503 36.1739 156.506 36.3746H156.908V36.7761C156.105 48.4188 154.7 60.0615 153.495 70.0983L153.294 71.5035C152.09 82.1425 150.484 94.1867 138.641 98.4021C134.626 99.8073 130.009 100.008 126.396 100.008C124.589 100.008 122.983 100.008 121.377 100.008C119.772 100.008 118.166 100.008 116.56 100.008L65.7735 100.209C47.9079 100.008 29.8416 100.209 11.9761 100.209H11.3739L12.1768 95.9933Z" fill="#7DAADB"/>
<path d="M97.4895 95.5918C89.0586 95.5918 80.4269 95.5918 71.996 95.5918C65.7732 95.5918 12.3773 95.5918 12.3773 95.5918L12.5781 94.9896C15.3884 82.9455 17.7972 70.4998 20.206 58.6564C21.009 54.4409 21.8119 50.2254 22.8156 46.01V45.6085H23.2171C36.0642 44.8055 49.1121 43.6011 61.5577 42.5974C68.7842 41.9952 76.0107 41.393 83.438 40.7908C98.2925 39.5864 110.537 38.7835 121.779 37.9805C124.589 37.7798 127.399 37.579 130.41 37.1776C136.232 36.5754 142.254 36.1739 148.075 36.1739C149.48 36.1739 151.086 36.1739 152.491 36.3746H153.093V36.9768C151.889 48.6195 149.882 61.0652 147.071 77.1241C146.068 82.544 144.863 89.1683 139.243 92.9823C135.629 95.5918 130.812 95.7926 126.195 95.9933C116.559 95.3911 107.125 95.5918 97.4895 95.5918Z" fill="url(#paint9_linear_48_43)"/>
<path d="M11.9758 82.1425L11.775 79.5329C11.5743 76.7226 11.5743 73.9123 11.3736 71.3027V70.9013C11.1728 65.2806 10.9721 57.4519 13.7824 52.032L13.9831 51.8313H14.1839C15.589 51.6306 16.9942 51.4298 18.3993 51.4298H19.0015L18.1986 55.846C16.392 64.4777 14.5853 73.5108 12.7787 82.544L11.9758 82.1425Z" fill="url(#paint10_linear_48_43)"/>
<path d="M9.1653 95.9933C5.55204 91.5771 5.95352 80.9381 6.35499 74.1131C6.35499 72.3064 6.55572 70.9013 6.55572 69.6969C6.55572 66.0836 6.55572 62.4704 6.75646 59.0578C6.9572 55.4446 8.96456 53.2365 12.3771 52.2328L13.3808 52.0321L12.9793 53.0358C11.3734 57.0505 11.1727 61.6674 10.9719 65.8829V66.8866C10.7712 71.5035 10.9719 76.1204 11.3734 80.7374C11.5741 83.3469 11.5741 85.9565 11.7749 88.5661C11.3734 90.7742 10.7712 92.9823 10.3697 95.1904L9.76751 96.7963L9.1653 95.9933Z" fill="url(#paint11_linear_48_43)"/>
<path d="M19.0015 164.645C14.1838 164.244 10.1691 164.043 6.35508 163.641C5.35139 163.641 4.54845 163.441 3.54477 163.441C2.74182 163.24 2.34035 162.035 2.54109 151.196C2.54109 150.192 2.54109 149.389 2.54109 148.988C2.34035 138.75 2.13961 127.91 2.34035 117.071C2.34035 114.662 2.54109 112.454 2.74182 110.045C3.1433 106.833 6.15434 104.826 8.76391 103.019L9.96833 102.216H10.1691H10.7713H11.775V102.618C11.775 106.632 11.775 110.848 11.775 116.067V116.268C11.775 116.268 11.775 116.468 11.775 116.669V116.87V118.275C11.775 120.082 11.775 121.888 11.775 123.695V124.096C11.775 129.315 11.5742 134.133 12.5779 139.352C13.5816 144.571 15.1875 149.791 16.7934 154.809C17.797 157.82 18.8007 161.032 19.6037 164.244L19.8044 164.846L19.0015 164.645Z" fill="url(#paint12_linear_48_43)"/>
<path d="M78.8211 255.177C64.7696 255.177 53.1269 245.14 49.9151 230.286L49.7144 229.684H50.5173C55.335 230.286 60.1526 230.888 64.7696 231.49H65.1711V231.892C66.1747 241.728 73.4012 250.56 82.8359 253.973L82.6351 254.976C81.4307 255.177 80.2263 255.177 78.8211 255.177Z" fill="url(#paint13_linear_48_43)"/>
<path d="M90.6642 253.17C79.2222 253.17 68.9847 244.137 67.3788 232.494V231.892H67.981C80.6274 233.498 93.4745 234.903 105.719 236.308L113.347 237.111L112.946 237.713C109.132 244.739 103.712 249.557 96.4856 252.166C94.6789 252.969 92.6716 253.17 90.6642 253.17Z" fill="url(#paint14_linear_48_43)"/>
<path d="M159.116 240.122C153.294 240.122 147.071 239.319 141.25 238.315C138.64 237.914 136.031 237.512 133.421 237.312L121.578 235.907C97.0881 233.096 71.5945 230.286 46.7032 227.074L42.4878 226.472C34.4583 225.468 26.2281 224.465 18.1987 222.658C11.7751 221.253 7.15817 219.245 5.55228 213.826L4.95007 212.621L6.15449 213.424C9.16554 215.431 13.9832 216.234 17.195 216.837L18.6001 217.037C23.4178 218.041 28.2355 218.643 33.2539 219.446C48.1084 221.855 62.7621 223.862 75.2078 225.468C91.8689 227.676 106.523 229.483 120.173 231.089L123.786 231.49C132.016 232.494 140.447 233.297 148.878 233.498C149.681 233.498 150.685 233.498 151.488 233.498C152.491 233.498 153.495 233.498 154.499 233.498C156.105 233.498 158.313 233.297 160.521 232.494C163.933 230.888 165.138 226.07 165.941 223.059C168.55 211.818 167.747 199.975 163.733 190.339L163.331 189.336L164.335 189.737C165.74 190.339 166.944 191.142 168.149 192.146C171.762 195.759 171.762 202.183 171.762 207V208.205C171.762 218.844 171.963 230.888 164.335 239.319C164.335 239.319 164.335 239.319 164.134 239.52L163.933 239.721L163.532 239.921C162.127 240.122 160.721 240.122 159.116 240.122Z" fill="url(#paint15_linear_48_43)"/>
<path d="M167.546 238.717C172.765 231.29 173.368 222.457 173.568 214.026V212.22C173.769 204.592 173.97 196.763 169.353 190.741C166.543 186.927 160.922 186.525 155.703 186.525C154.498 186.525 153.294 186.525 152.29 186.525C151.287 186.525 150.283 186.525 149.279 186.525C148.878 186.525 148.276 186.525 147.874 186.525C137.034 186.124 126.596 185.723 116.76 185.12C94.2776 183.916 70.7914 182.711 46.7031 180.905C43.0898 180.704 39.6773 180.503 36.0641 180.303C26.6295 179.7 16.9941 179.299 7.76024 177.894H7.35876V166.05H7.96097C9.96834 166.251 11.775 166.452 13.7823 166.452C15.1875 166.452 16.5926 166.653 17.7971 166.653C28.4361 167.455 38.8744 168.058 49.7141 168.66C74.0032 170.065 99.0953 171.47 124.388 172.675C132.417 173.076 139.042 173.277 144.863 173.277C154.298 173.277 162.929 172.875 171.16 171.872H171.561L171.762 172.072C176.981 180.503 177.784 192.347 178.386 201.982L178.587 204.391C178.587 205.395 178.788 206.198 178.788 207.402C179.591 217.037 180.393 230.085 175.174 237.713C175.174 237.713 175.174 237.914 174.974 237.914V238.115H174.773C172.565 238.717 170.357 239.118 168.349 239.319L167.145 239.52L167.546 238.717Z" fill="url(#paint16_linear_48_43)"/>
<path d="M210.504 276.857C207.493 276.857 204.282 276.656 201.271 276.455H199.464C180.595 275.452 171.562 257.787 171.361 241.527V241.126H171.762C177.784 239.921 184.007 238.115 189.628 236.107H189.829C190.029 236.107 190.029 236.107 190.23 235.907L193.643 234.702V235.304C193.843 249.557 200.066 263.407 209.701 271.236C212.11 273.043 214.519 274.448 217.329 275.452V276.455C215.121 276.656 212.913 276.857 210.504 276.857Z" fill="url(#paint17_linear_48_43)"/>
<path d="M251.253 231.691C251.856 222.859 251.253 213.826 249.045 205.395C246.436 195.157 235.797 181.106 224.355 181.106C222.749 181.106 220.942 181.507 219.537 182.109L217.73 182.711L218.935 181.306C220.742 179.098 222.749 177.091 224.957 175.485C229.172 172.474 233.789 171.069 238.406 169.664C239.41 169.463 240.614 169.061 241.618 168.66H241.819H242.02C252.257 173.678 253.261 183.113 254.264 192.949C254.465 194.354 254.465 195.559 254.666 196.964C256.473 210.413 257.276 220.851 257.476 230.687V231.089H257.075C255.469 231.49 253.662 231.691 251.856 232.093H251.253V231.691Z" fill="url(#paint18_linear_48_43)"/>
<path d="M278.152 256.382C276.747 256.382 275.141 256.181 273.736 256.181C272.532 256.181 271.327 255.98 270.123 255.98C259.885 255.579 253.06 247.75 251.856 235.104L251.655 234.501L252.057 234.301C254.064 234.1 256.272 233.698 258.48 233.096C258.882 233.096 259.083 232.895 259.083 232.494V232.293V231.892C259.083 230.487 259.083 228.881 258.882 227.275V226.673H259.484C260.086 226.673 260.889 226.673 261.491 226.673C261.692 226.673 262.897 226.673 262.897 226.673V227.275C262.897 237.111 267.513 249.557 277.952 255.177L278.152 256.382Z" fill="url(#paint19_linear_48_43)"/>
<path d="M261.893 224.866C261.09 224.866 260.487 224.866 259.684 224.665H259.283V224.264C258.882 215.231 257.878 205.194 256.272 192.949L256.071 190.942C254.867 181.507 253.863 173.277 245.432 168.058L244.629 167.455L246.235 166.853C247.038 166.452 247.64 166.05 248.243 165.649H248.443H248.644C262.696 164.043 278.152 162.638 295.817 161.032C314.686 162.036 314.486 188.934 314.486 204.993C314.486 206.198 314.486 207.402 314.486 208.406V208.807C314.486 208.807 311.876 209.008 310.672 209.209H310.069V208.606C310.069 193.752 307.058 175.284 293.007 172.072C292.204 171.872 291.2 171.872 290.397 171.872C279.557 171.872 271.729 186.927 270.324 189.938C265.305 200.175 265.707 212.42 266.309 224.063V224.465H265.305C264.101 224.866 262.896 224.866 261.893 224.866Z" fill="url(#paint20_linear_48_43)"/>
<path d="M309.668 216.034C309.668 214.829 309.869 213.424 309.869 212.019V211.617H310.27C310.872 211.617 311.475 211.417 312.278 211.417C313.281 211.417 314.285 211.216 315.289 211.216C315.489 211.216 315.489 211.216 315.69 211.015C316.092 211.015 316.493 210.614 316.493 210.011C316.493 209.008 316.493 207.803 316.493 206.599V205.997H317.095C321.712 204.993 326.128 203.989 330.545 203.186C334.961 202.384 339.578 201.38 343.994 200.376L344.596 200.175V200.778C344.596 202.785 344.596 204.993 344.596 207V209.409H344.195C332.753 212.22 321.311 214.227 310.471 216.234L309.869 216.435L309.668 216.034Z" fill="url(#paint21_linear_48_43)"/>
<path d="M352.826 233.096C341.183 233.096 337.369 225.669 334.96 214.428V214.026L335.362 213.826C339.377 213.023 342.588 212.22 345.8 211.417C346.202 211.417 346.402 211.216 346.402 211.015L347.005 209.61L347.205 211.015C348.008 216.034 351.019 228.078 358.848 231.691L360.454 232.494L358.647 232.695C357.041 232.895 355.235 232.895 353.027 233.096H352.826Z" fill="url(#paint22_linear_48_43)"/>
<path d="M377.717 220.651C378.721 217.84 379.323 214.829 379.725 211.216H380.728C381.933 215.431 383.539 218.443 385.546 220.45L386.349 221.253H382.736C381.13 221.253 379.524 221.253 377.918 221.253H377.115L377.717 220.651Z" fill="url(#paint23_linear_48_43)"/>
<path d="M408.029 189.135C408.029 187.328 407.828 185.722 407.828 184.317C407.426 177.894 405.218 162.838 394.78 160.63C394.178 160.43 393.576 160.43 393.174 160.43C389.561 160.43 386.951 163.441 385.345 169.262H384.342C382.936 162.838 380.528 158.222 377.115 155.612L376.111 154.809H377.316C383.539 154.408 389.561 153.805 395.784 153.404C396.185 153.404 396.386 153.203 396.587 153.002C396.787 152.802 397.39 152.199 397.39 152.199H397.59C412.043 156.415 411.843 177.693 411.642 188.934V189.336H411.24C410.437 189.336 409.434 189.536 408.631 189.536H408.029V189.135Z" fill="url(#paint24_linear_48_43)"/>
<path d="M176.58 131.122C174.974 131.122 173.368 131.122 171.762 131.122H171.16L171.36 127.91H171.762C181.799 127.91 191.635 127.509 199.664 122.29C206.289 118.074 209.5 111.45 210.303 101.614C211.307 87.5624 210.905 73.3101 210.705 59.2586C210.504 52.835 210.504 46.01 210.303 39.5864V38.9842L214.519 39.5864V39.9879C214.318 54.0394 214.519 68.4925 214.519 82.3433V97.3985C214.519 112.052 209.902 121.487 200.066 126.706C193.04 130.721 184.208 131.122 176.58 131.122Z" fill="#7DAADB"/>
<path d="M171.361 127.308V126.706C171.762 117.472 172.164 108.238 172.365 99.0044V98.6029H173.368C176.981 98.6029 181.197 97.5992 184.208 96.5955C189.628 94.9896 189.829 89.369 190.029 84.5513C190.431 77.927 190.632 70.7005 190.632 61.2659V59.8608C190.632 55.0431 190.632 50.4262 188.825 45.8092C186.617 40.7908 180.193 40.5901 175.175 40.3893H174.372V39.9879C174.372 37.9805 174.573 35.7724 174.573 33.765V33.1628H175.175C182.401 34.3673 189.628 35.5717 196.654 36.5754C200.869 37.1776 205.085 37.7798 209.3 38.5827H209.701V38.9842C209.701 45.6085 209.902 52.4335 209.902 59.0578C210.103 71.5035 210.304 84.3506 209.902 96.997C209.501 106.03 208.497 114.662 200.267 120.885C192.037 126.907 180.595 126.907 172.365 126.907H171.361V127.308Z" fill="url(#paint25_linear_48_43)"/>
<path d="M181.999 93.986C183.003 91.5772 183.204 89.1683 183.405 86.358V85.5551C184.007 79.533 184.208 73.7116 184.408 68.2918C184.408 63.0726 184.208 57.8535 183.806 52.8351V52.0321C183.605 49.6233 183.405 46.813 182.401 44.4041L181.999 43.4005L183.003 43.6012C188.222 45.2071 188.423 51.2292 188.624 55.4446C188.824 64.277 188.624 72.9087 188.222 83.347C188.022 88.7669 187.018 92.7816 182.602 94.5882L181.397 94.9897L181.999 93.986Z" fill="url(#paint26_linear_48_43)"/>
<path d="M171.963 96.194C170.758 96.194 169.755 95.7926 168.952 94.9896C166.944 92.9822 167.145 88.7668 167.346 85.9565C167.346 85.3543 167.346 84.9528 167.346 84.5513C167.346 76.7226 167.747 68.6931 168.149 61.0652C168.35 56.8497 168.55 52.835 168.55 48.6195C168.751 45.0063 168.751 42.7982 172.967 42.7982C173.167 42.7982 173.368 42.7982 173.569 42.7982C175.978 42.9989 178.386 42.9989 180.996 43.4004H181.197L181.397 43.6011C182.803 46.6121 183.003 50.2254 183.204 53.0357C183.606 58.4556 183.806 62.6711 183.806 66.6858C183.806 70.0983 183.606 73.7116 183.405 77.1241C183.405 78.5292 183.204 79.9344 183.204 81.3395C183.204 81.9417 183.204 82.5439 183.204 83.3469C183.003 87.3616 182.803 91.7778 180.795 95.1903L180.594 95.3911H180.394C179.992 95.3911 179.39 95.5918 178.989 95.5918C176.58 95.9933 174.372 96.194 171.963 96.194Z" fill="url(#paint27_linear_48_43)"/>
<path d="M146.068 171.269C137.035 171.269 128.202 170.868 118.768 170.266L115.556 170.065L115.958 169.463C117.764 166.05 119.772 162.838 121.779 159.426C123.184 157.017 124.589 154.809 125.994 152.4C128.805 147.583 131.414 142.363 132.217 137.144C133.622 127.308 133.622 117.071 133.622 107.034V102.015H134.024C139.243 101.212 143.258 99.4058 146.469 96.997C152.692 92.1793 154.298 83.3469 155.101 77.1241C156.908 63.0725 158.514 49.2217 159.919 35.3709L160.32 35.1702L159.718 34.9695V34.7687C159.718 34.7687 159.718 34.568 159.517 34.568L159.317 34.3673H159.116C156.105 33.9658 152.893 33.765 149.28 33.765C144.462 33.765 139.444 34.1665 134.626 34.568C132.217 34.7687 130.009 34.9695 127.6 35.1702C114.352 35.9731 100.702 36.9768 88.0552 37.9805C79.6243 38.5827 71.1933 39.3857 62.7624 40.1886C49.7145 41.393 36.0645 42.3967 22.6151 43.4004H22.4144H22.2137C19.0019 41.1923 17.396 38.9842 17.396 36.7761C17.396 34.568 19.0019 32.3599 22.0129 30.3525C25.2247 28.1444 29.8416 27.743 34.0571 27.3415C35.0608 27.3415 36.0645 27.1407 36.8674 26.94C44.8969 25.9363 52.9263 24.9326 60.5543 24.1297C75.8103 22.3231 92.0699 20.5164 108.129 19.1113L113.95 18.5091C125.593 17.3047 137.436 16.1003 149.28 16.1003C154.298 16.1003 159.116 16.301 163.532 16.7025C180.595 18.5091 197.858 21.9216 213.114 25.1334C216.125 25.7356 219.136 26.3378 222.147 27.1407C227.366 28.3452 227.968 31.3562 228.37 36.3746C228.771 39.9879 228.972 43.6011 229.173 47.2144L229.374 49.6232C230.177 62.2696 230.779 74.7152 231.381 87.5624C231.582 92.7815 231.983 97.7999 232.184 103.019C232.987 117.071 233.79 131.524 233.99 145.575V145.977H233.589C232.184 146.177 230.779 146.177 229.374 146.378C219.337 147.181 207.895 147.984 200.267 154.207C198.259 155.813 196.854 157.82 195.449 160.028C194.044 162.236 192.438 164.645 190.23 166.251C187.018 168.66 180.996 169.262 176.178 169.664C174.773 169.864 173.368 169.864 172.164 170.065C164.134 170.667 155.503 171.269 146.068 171.269ZM218.935 129.316C216.125 129.316 213.114 130.118 211.709 130.52L211.508 130.721C209.701 131.724 207.694 134.936 207.493 137.746C207.293 138.75 207.493 140.356 208.497 141.159C209.501 142.163 210.705 142.363 212.311 142.363H212.913C216.326 142.363 219.136 141.962 221.746 141.36C223.753 140.958 224.556 139.955 224.757 137.947C224.957 135.94 224.556 132.527 223.552 130.721C222.749 129.717 220.541 129.316 218.935 129.316ZM173.77 31.1555C173.569 31.1555 173.569 31.1555 173.368 31.1555C173.368 31.1555 173.167 31.1555 173.167 31.3562C172.766 31.5569 172.565 31.7577 172.565 32.1592C172.364 34.3673 172.364 36.5754 172.364 38.9842V40.5901H171.963C167.547 40.7908 166.744 42.7982 166.543 48.6195C166.342 53.0357 166.142 57.4519 166.142 61.8681C165.941 67.4887 165.74 72.9086 165.539 78.5292C165.539 79.5329 165.339 80.7373 165.339 81.9418C164.937 87.3616 164.335 93.9859 168.149 97.1977C168.751 97.5992 169.353 98.0007 170.156 98.2014L170.558 98.4021V98.8036C170.156 109.643 169.755 121.085 169.353 132.327C169.353 132.728 169.554 133.13 169.956 133.13C170.156 133.33 170.357 133.33 170.558 133.33C171.762 133.33 172.766 133.33 173.97 133.33C190.631 133.33 210.504 130.721 215.924 110.246C217.932 103.22 217.53 95.1904 217.329 87.5624C217.329 85.1535 217.129 82.544 217.129 80.3359C217.129 67.8902 217.129 54.6416 217.129 38.5827C217.129 37.9805 216.928 37.579 216.326 37.579C210.103 36.5754 203.479 35.5717 197.256 34.568C189.628 33.3636 181.799 32.3599 174.171 30.9547L173.77 31.1555V30.5533V31.1555V30.5533V31.1555Z" fill="url(#paint28_linear_48_43)"/>
<path d="M212.11 140.356C210.906 140.356 210.103 139.754 209.902 138.951C209.3 137.144 210.906 133.732 212.512 132.728C214.519 131.925 216.526 131.925 218.534 131.724H218.935C219.136 131.724 219.337 131.724 219.738 131.724C220.943 131.724 221.946 131.925 222.348 133.933C223.151 137.947 222.749 138.75 222.348 138.951C220.34 140.356 216.526 140.356 214.118 140.356H213.716C213.114 140.356 212.512 140.356 212.11 140.356Z" fill="url(#paint29_linear_48_43)"/>
<path d="M112.746 219.848C109.935 219.848 107.125 217.84 105.519 216.034C103.11 213.023 103.311 209.008 103.713 206.8C104.716 202.183 107.326 199.373 111.14 198.77C111.541 198.77 111.742 198.77 112.143 198.77C115.556 198.77 118.768 201.179 120.173 204.792C122.18 210.012 119.972 216.636 115.556 219.245C114.753 219.647 113.749 219.848 112.746 219.848Z" fill="url(#paint30_linear_48_43)"/>
<path d="M142.053 224.264C138.641 224.264 135.228 221.855 133.221 219.446C130.41 215.833 130.611 211.015 131.013 208.406C132.217 202.986 135.429 199.373 140.046 198.77C140.447 198.77 140.849 198.77 141.25 198.77C145.466 198.77 149.28 201.781 150.885 205.997C153.294 212.22 150.685 220.048 145.265 223.26C144.462 223.862 143.458 224.264 142.053 224.264Z" fill="url(#paint31_linear_48_43)"/>
<path d="M14.3846 203.789C12.9795 203.789 11.9758 202.785 11.1729 201.581C10.1692 199.774 10.1692 197.566 10.3699 196.361C11.1729 192.949 12.7787 192.146 14.1839 192.146C16.392 192.146 17.5964 193.953 17.9979 195.759C18.6001 198.168 17.7972 202.584 15.1876 203.588C14.9868 203.789 14.7861 203.789 14.3846 203.789Z" fill="url(#paint32_linear_48_43)"/>
<path d="M154.097 233.297C152.692 233.297 151.488 233.297 150.083 233.096C149.079 233.096 147.875 232.895 146.871 232.895C138.841 232.895 130.812 231.892 122.983 230.888C121.177 230.687 119.37 230.487 117.363 230.286C85.4455 226.673 56.941 222.859 29.8416 218.442C26.429 217.84 23.0165 217.238 19.604 216.636C17.9981 216.435 16.3922 216.034 14.7863 215.632L14.3849 215.431C11.7753 214.829 6.95761 213.825 4.95025 211.617L4.74951 211.417V211.216C4.74951 210.814 4.54878 210.212 4.54878 209.811C3.94657 199.774 3.74583 189.536 3.34436 179.901V179.299H3.94657C12.1768 180.503 20.6077 181.105 28.8379 181.708C31.4474 181.908 33.8563 182.109 36.2651 182.31C54.3314 183.715 73.6021 184.919 97.0882 186.124C114.753 187.128 134.024 188.131 153.495 188.733C154.298 188.733 154.9 188.733 155.703 188.733C157.711 188.733 159.919 188.733 161.926 189.135H162.127L162.328 189.336C167.747 200.978 166.944 213.424 165.339 221.855C164.736 225.067 163.532 230.888 158.714 232.494C157.51 233.096 156.105 233.297 154.097 233.297ZM141.451 196.562C135.429 196.562 130.611 200.978 129.005 207.603C128.202 212.822 129.608 218.242 132.418 221.855C134.425 224.464 137.436 225.87 140.849 226.271C141.049 226.271 141.451 226.271 141.652 226.271C144.663 226.271 147.473 225.067 149.48 222.859C152.491 219.848 154.097 214.829 153.897 209.811C153.696 203.789 149.28 197.365 142.455 196.763C142.254 196.562 141.852 196.562 141.451 196.562ZM112.344 196.562C107.125 196.562 102.91 200.376 101.705 205.997C101.103 210.413 102.107 215.03 104.716 218.041C106.523 220.249 108.932 221.654 111.943 221.654C112.143 221.654 112.344 221.654 112.545 221.654C115.155 221.654 117.563 220.651 119.37 218.643C121.98 216.034 123.385 211.818 123.184 207.402C122.983 202.183 119.169 196.562 113.348 196.161C112.946 196.562 112.545 196.562 112.344 196.562ZM31.2467 192.146C27.4327 192.146 25.2246 195.759 24.4217 198.77C24.0202 201.581 24.4217 205.796 26.6298 208.406C27.8342 209.811 29.2393 210.413 31.046 210.413C32.6519 210.413 34.2578 209.811 35.4622 208.606C37.6703 206.197 38.4732 202.383 38.2725 199.975C38.0717 196.562 35.8636 192.547 31.8489 192.146C31.6482 192.146 31.4474 192.146 31.2467 192.146ZM14.3849 190.139C11.1731 190.139 9.16571 192.949 8.56351 195.96C8.16203 198.369 8.56351 201.982 10.3701 204.391C11.3738 205.595 12.5782 206.197 14.1841 206.197C15.5893 206.197 16.9944 205.595 17.9981 204.592C20.0055 202.584 20.6077 199.372 20.4069 197.164C20.2062 194.153 18.1988 190.741 14.9871 190.339C14.7863 190.139 14.5856 190.139 14.3849 190.139Z" fill="url(#paint33_linear_48_43)"/>
<path d="M31.2465 208.406C29.6406 208.406 28.0348 207 27.4325 205.796C26.0274 203.789 26.2281 200.978 26.6296 199.373C27.4325 196.161 29.0384 194.354 31.2465 194.153H31.4473C33.8561 194.153 35.2613 196.361 35.8635 198.57C36.6664 201.581 35.6627 206.8 32.451 208.205C32.0495 208.406 31.648 208.406 31.2465 208.406Z" fill="url(#paint34_linear_48_43)"/>
<path d="M114.15 170.065C83.237 168.459 57.342 167.054 32.6515 165.448L30.6441 165.247C27.2316 165.047 24.0198 164.846 20.6073 164.645H20.2058V164.244C19.4029 160.831 18.1985 157.619 17.1948 154.207C15.7896 149.791 14.3845 145.174 13.3808 140.557C12.1764 134.735 12.1764 129.115 12.3771 123.293C12.3771 121.688 12.3771 120.282 12.3771 118.676V116.468H12.7786C32.4507 116.468 51.9222 116.468 71.5943 116.268C91.668 116.268 111.742 116.067 131.815 116.067H132.417V116.669C132.217 124.096 131.815 130.319 131.414 136.141C131.012 141.761 128.001 146.98 125.392 151.798C123.786 154.608 122.18 157.218 120.574 159.827C118.767 163.039 116.76 166.251 114.953 169.463L114.753 169.663L114.15 170.065ZM114.351 125.301C99.2959 125.301 84.2407 125.301 69.1855 125.301C54.1303 125.301 39.075 125.301 24.0198 125.301C23.8191 125.301 23.6183 125.301 23.6183 125.501C23.2169 125.702 23.0161 125.903 23.0161 126.505C23.0161 127.509 23.2169 128.513 23.2169 129.717C24.0198 137.947 24.8228 148.385 30.2426 154.608C31.0456 155.411 32.0493 156.013 33.0529 156.214C41.4839 157.218 49.7141 157.82 59.7509 158.222C66.9774 158.623 74.2039 158.824 81.2297 159.024L87.854 159.225C88.4562 159.225 89.0584 159.225 89.6606 159.225C90.6643 159.225 91.8687 159.225 92.8724 159.225C95.0805 159.225 97.8908 159.024 100.5 157.619C108.128 153.404 111.34 140.757 113.749 131.524C114.15 129.717 114.753 127.91 115.154 126.505C115.355 126.104 115.154 125.903 114.953 125.501C114.953 125.501 114.552 125.301 114.351 125.301Z" fill="url(#paint35_linear_48_43)"/>
<path d="M102.909 152.4C89.2594 151.999 74.6056 151.597 59.9519 151.196H58.1453C52.9261 150.995 47.707 150.794 42.4878 150.594C39.276 150.393 35.8635 149.791 34.4584 145.977C32.6517 141.159 32.0495 135.94 31.6481 130.721C31.6481 129.918 31.2466 127.509 31.2466 127.509H31.8488C44.2944 127.509 56.7401 127.509 69.1857 127.509C83.438 127.509 97.891 127.509 112.143 127.509H112.746L111.742 130.921C109.734 138.148 107.526 146.378 103.11 152.199V152.4H102.909Z" fill="#7DAADB"/>
<path d="M93.274 157.419C92.0696 157.419 91.0659 157.419 90.0622 157.218C89.2592 157.218 88.657 157.218 88.0548 157.017L80.6276 156.816C75.6092 156.616 70.39 156.415 65.3716 156.214C57.7436 156.013 50.7179 155.612 44.2943 155.01C43.6921 155.01 42.6884 155.01 41.6847 155.01C38.2722 155.01 34.0568 155.01 32.2501 153.404C26.8303 148.787 26.0273 137.345 25.4251 129.918L25.2244 127.509H30.6442L30.845 129.516C31.4472 134.735 32.0494 140.155 33.4546 145.174C34.2575 148.185 35.8634 149.791 38.2722 150.594C41.2833 151.597 44.8965 151.597 47.9076 151.597H51.1194C51.9223 151.597 52.926 151.597 53.7289 151.597C69.7878 152.199 85.8467 152.601 101.303 153.002H102.307L101.504 153.805C101.103 154.207 100.902 154.608 100.5 154.809C98.6939 157.017 95.6828 157.419 93.274 157.419Z" fill="url(#paint36_linear_48_43)"/>
<path d="M257.075 154.006C256.272 126.706 255.87 98.2015 255.87 69.6969V69.0947H256.473C272.933 70.4999 289.594 71.7043 305.653 72.9087C340.38 75.5183 376.312 78.3286 411.441 82.1426H411.843V82.5441C412.043 93.1831 411.843 104.224 411.441 114.662C411.24 122.691 411.04 131.122 411.04 139.553V139.955H410.638C370.089 145.174 328.336 148.586 288.189 151.798C277.951 152.601 267.915 153.404 257.677 154.207H257.075V154.006ZM266.71 79.7338C266.51 79.7338 266.309 79.7338 266.108 79.9345C265.907 80.1352 265.707 80.336 265.907 80.7374C266.911 94.9897 266.71 109.643 266.509 123.896C266.309 130.119 266.309 136.542 266.309 142.765C266.309 142.966 266.309 143.166 266.509 143.367C266.71 143.769 266.911 143.969 267.312 143.969C312.88 141.561 358.246 138.55 402.007 135.137H402.207L402.609 135.538L402.408 135.137C402.809 134.936 403.01 134.535 403.01 134.133V89.9713C403.01 89.5698 402.809 89.1684 402.408 89.1684H402.207C402.007 89.1684 402.007 89.1684 401.806 88.9676C394.78 88.5662 387.955 88.1647 380.929 87.7632C343.392 85.5551 304.649 83.347 266.71 79.7338V79.1315V79.7338Z" fill="url(#paint37_linear_48_43)"/>
<path d="M268.316 137.144H268.717C280.36 136.944 292.204 136.141 303.846 135.137C309.467 134.735 314.887 134.334 320.507 133.932L337.57 132.929C354.633 131.925 372.297 130.721 389.761 129.717L391.367 129.516C392.773 129.516 394.378 129.316 395.784 129.316H395.984L396.586 129.115H395.984C395.984 124.899 395.984 120.684 395.784 116.268C395.583 108.037 395.382 99.4058 395.984 91.1756V90.7742L400.4 90.9749L400.601 91.3764V132.728H400.2C357.443 136.141 313.281 138.951 268.717 141.36H268.115L268.316 137.144Z" fill="url(#paint38_linear_48_43)"/>
<path d="M268.316 135.94C268.316 131.925 268.517 128.111 268.517 124.096C268.717 110.446 268.918 96.1941 268.115 82.544V81.9418H268.717C306.255 85.3543 344.596 87.7631 381.732 89.7705L395.784 90.5734V90.9749C395.382 99.4058 395.382 107.837 395.583 116.268C395.583 120.282 395.784 124.297 395.784 128.312V128.713H395.382C383.539 128.914 371.294 129.717 359.651 130.721C354.03 131.122 348.41 131.524 342.99 131.925L324.522 133.13C307.861 134.133 290.798 135.137 273.937 136.141H272.933C271.729 136.141 270.524 136.341 269.119 136.341H268.517L268.316 135.94Z" fill="url(#paint39_linear_48_43)"/>
<path d="M223.351 274.247C218.534 274.247 213.114 271.838 208.296 267.422C199.665 259.393 195.851 245.14 195.851 234.702L195.65 234.1L196.051 233.899C204.281 230.085 205.887 220.048 207.292 210.614C207.895 206.8 208.296 203.387 209.3 200.376C210.504 195.96 212.311 191.945 214.118 188.332V188.131H214.318C214.519 188.131 214.519 187.931 214.72 187.931C217.329 185.12 220.541 183.715 224.154 183.715C231.18 183.715 238.005 188.934 241.618 193.953C246.235 200.577 247.841 209.209 248.443 215.231C250.852 234.702 246.235 254.174 236.199 267.021C234.793 268.827 233.388 270.232 231.381 271.638C229.173 273.243 226.362 274.247 223.351 274.247ZM227.366 199.774C222.95 199.975 218.935 203.387 215.723 210.012C210.906 220.651 208.497 236.91 214.318 249.557C215.121 251.363 216.526 253.772 218.534 255.579C220.541 257.385 222.548 258.188 224.757 258.188C225.158 258.188 225.559 258.188 225.961 258.188C230.779 257.586 234.593 253.973 237.403 247.549C240.013 241.728 241.217 235.104 241.618 226.873C242.02 217.238 240.615 210.012 237.403 205.194C235.195 201.982 231.782 199.975 227.968 199.975L227.366 199.774Z" fill="url(#paint40_linear_48_43)"/>
<path d="M211.709 237.713C211.106 232.093 211.508 226.07 212.712 220.249V219.848H213.114C216.928 220.048 220.14 221.454 222.147 223.662C223.753 225.669 224.355 228.479 223.954 231.49C222.95 236.71 215.924 237.713 212.311 238.115H211.709V237.713Z" fill="#7DAADB"/>
<path d="M219.939 255.378C219.537 255.378 219.136 255.378 218.935 255.378H218.734L218.534 255.177C215.322 252.166 213.716 247.148 213.114 245.14C212.512 243.334 212.11 241.326 211.909 239.118V238.717H212.311C217.931 237.914 224.355 236.308 224.756 229.684C224.957 227.074 224.154 224.866 222.548 223.059C220.541 220.851 217.329 219.446 213.515 219.245H212.913L213.114 218.643C213.917 215.833 214.72 213.023 215.924 210.413C218.132 205.796 220.541 202.986 223.351 201.581H223.552H223.753C234.392 203.187 234.593 218.844 234.593 226.271C234.593 230.687 234.191 245.542 227.567 252.166C225.359 254.174 222.95 255.378 219.939 255.378Z" fill="url(#paint41_linear_48_43)"/>
<path d="M224.556 257.787C223.351 257.787 222.147 257.385 220.942 256.783L219.337 255.98L221.143 255.779C234.593 254.776 235.195 230.888 235.195 226.07C235.195 219.647 235.195 204.792 226.162 201.38L224.556 200.778L226.162 200.376C226.764 200.175 227.366 200.175 227.968 200.175H228.169C232.585 200.175 235.998 203.789 237.604 207.201C240.414 212.621 240.615 219.848 240.615 226.673C240.615 232.895 239.41 239.118 237.202 245.341C234.994 251.765 231.581 255.779 227.165 257.185C226.362 257.586 225.359 257.787 224.556 257.787Z" fill="url(#paint42_linear_48_43)"/>
<path d="M285.981 254.976C283.572 254.976 281.163 254.374 278.755 253.17C269.922 248.754 265.506 236.91 265.506 227.476V227.074H265.907H266.108C266.51 227.074 266.911 227.074 267.313 227.074C267.513 227.074 267.714 227.074 267.714 226.873C268.116 226.673 268.316 226.472 268.316 225.87C267.714 216.234 267.513 208.004 269.119 199.774C270.725 190.942 278.755 174.682 290.397 174.682C292.204 174.682 294.211 175.083 296.018 175.886C308.263 181.507 307.661 205.595 307.46 214.628C307.259 223.461 306.255 236.509 300.033 246.144C295.616 252.166 291 254.976 285.981 254.976ZM291.2 189.536C287.386 189.536 283.974 192.547 281.163 198.369C276.145 209.61 275.944 223.461 280.36 233.698C281.766 236.91 284.977 240.523 288.992 240.523C289.594 240.523 289.996 240.523 290.598 240.323C294.412 239.319 297.423 236.308 299.631 230.888C301.839 225.87 302.843 219.647 303.044 212.42C303.244 204.391 302.04 198.369 299.631 194.153C297.624 191.343 294.412 189.536 291.2 189.536V188.934V189.536Z" fill="url(#paint43_linear_48_43)"/>
<path d="M277.751 220.851C277.55 217.439 277.751 213.826 278.152 210.212V209.811H278.554C279.156 209.811 279.758 209.811 280.159 209.811C281.565 209.811 283.572 210.012 285.379 210.814C287.787 212.019 287.587 215.03 287.587 216.435C287.386 221.253 282.368 221.253 279.156 221.253H278.353L277.751 221.454V220.851Z" fill="#7DAADB"/>
<path d="M285.178 238.918C281.565 236.709 279.758 231.49 279.156 229.282C278.554 227.074 278.152 224.866 277.751 222.256V221.654H278.353C283.572 221.654 287.788 221.253 288.189 216.636C288.39 214.628 288.39 212.42 286.583 210.614C284.977 209.209 282.368 209.008 280.561 209.008C279.959 209.008 279.558 209.008 278.955 209.008H278.353L278.554 208.406C279.156 204.792 280.16 201.581 281.565 198.57C282.769 195.96 284.977 192.347 288.189 190.741H288.39H288.591C297.825 193.35 296.821 207.402 296.219 214.026C295.817 220.048 294.613 236.107 285.981 238.516L285.78 238.918H285.178Z" fill="url(#paint44_linear_48_43)"/>
<path d="M288.591 239.921C288.189 239.921 287.788 239.921 287.386 239.72L285.78 239.319L287.185 238.717C294.813 235.505 296.018 221.654 296.62 214.227C297.624 201.38 295.616 193.752 290.397 190.942L288.992 190.139L290.598 189.938C290.999 189.938 291.401 189.938 291.802 189.938C296.018 189.938 298.828 193.752 300.233 196.964C303.646 205.595 303.445 217.439 299.631 228.68C297.824 234.501 295.014 237.914 291.2 239.319C290.196 239.72 289.394 239.921 288.591 239.921Z" fill="url(#paint45_linear_48_43)"/>
<path d="M363.465 230.888C352.023 230.888 349.413 210.614 349.012 208.205V207.603H349.614C350.417 207.603 351.22 207.402 352.023 207.402C352.625 207.402 353.227 207.001 353.227 206.398C353.227 205.194 353.227 203.989 353.428 202.785C353.83 191.343 354.231 176.89 361.859 167.857C363.264 166.05 364.87 165.247 366.476 165.247C372.297 165.247 376.111 178.496 377.115 183.113C378.319 189.135 378.52 195.559 378.52 202.584C378.52 204.993 378.319 207.402 378.119 209.811C377.316 213.826 376.513 218.041 374.907 221.855C374.706 222.056 374.706 222.256 374.706 222.457C372.297 227.676 369.086 230.487 365.071 230.888C364.268 230.888 363.866 230.888 363.465 230.888ZM365.874 178.295C364.87 178.295 363.866 178.697 362.662 179.5C359.45 182.109 358.647 188.131 358.045 191.945C357.242 197.365 357.443 202.986 358.447 208.606C359.049 212.22 360.253 217.439 364.067 219.647C364.669 220.048 365.071 220.048 365.673 220.048C367.48 220.048 369.086 218.643 370.089 217.439C372.699 213.424 373.301 208.205 373.903 203.187C374.505 197.164 373.903 190.741 372.297 184.518C371.093 181.507 368.885 178.295 365.874 178.295Z" fill="url(#paint46_linear_48_43)"/>
<path d="M358.246 203.789C358.045 200.778 358.045 197.767 358.246 194.756V194.153L359.651 194.354C361.859 194.756 364.067 195.157 364.268 198.369C364.469 201.38 362.662 203.187 358.848 204.391L358.246 204.592V203.789Z" fill="#7DAADB"/>
<path d="M363.666 219.245C361.257 217.439 359.852 212.621 359.25 210.011C358.848 208.807 358.648 207.201 358.447 205.595V205.194L358.848 204.993C363.064 203.989 364.87 201.781 364.87 198.57C364.87 195.157 362.462 194.555 359.45 193.953L358.447 193.752V193.35C358.848 190.942 359.25 188.533 359.852 186.325C360.454 184.317 361.659 180.905 363.867 179.5L364.268 179.299L364.469 179.7C368.684 183.514 369.086 190.339 369.487 195.759V197.164C370.089 207 368.484 214.026 364.469 218.643V218.844L364.67 220.048L363.666 219.245Z" fill="url(#paint47_linear_48_43)"/>
<path d="M365.673 219.848C365.473 219.848 365.272 219.848 365.272 219.848L364.067 219.647L364.87 219.045C370.089 212.822 370.491 203.989 370.089 197.164C369.889 191.744 369.487 184.116 365.473 179.901L364.67 179.098H365.874C366.275 179.098 366.476 179.098 366.677 179.098C369.287 179.5 370.692 182.511 371.495 185.12C373.502 192.949 373.903 200.978 372.498 209.409C371.896 213.223 370.692 217.439 367.681 219.647C366.878 219.647 366.275 219.848 365.673 219.848Z" fill="url(#paint48_linear_48_43)"/>
<path d="M392.773 220.851C387.955 220.851 384.342 214.829 382.937 211.417C381.331 207.201 380.728 202.584 380.327 197.967L380.126 196.964H380.528C381.732 196.763 382.736 196.562 383.94 196.361L385.145 196.161C385.345 196.161 385.345 196.161 385.546 195.96L385.747 195.759C385.948 195.559 385.948 195.559 385.948 195.358V195.157C385.948 194.354 385.948 193.551 385.948 192.547C385.948 189.536 385.948 185.923 385.747 182.109V181.908V181.708C385.747 181.507 385.948 181.306 385.948 181.306C386.148 174.481 387.152 163.24 393.375 163.24C394.178 163.24 395.181 163.441 396.185 164.043C403.813 167.656 405.018 179.7 405.62 184.719C406.423 193.35 406.824 209.409 398.192 218.442C396.587 219.848 394.78 220.851 392.773 220.851ZM396.386 172.875C393.776 172.875 391.568 177.091 390.765 179.7C388.557 188.332 387.553 200.978 392.773 208.406C393.576 209.409 394.78 210.212 395.984 210.212C396.386 210.212 396.787 210.012 397.189 209.811C400.2 208.004 401.204 203.989 401.806 200.778C402.609 196.562 403.01 191.544 402.408 185.923C402.207 181.908 401.605 177.693 399.397 174.682C398.393 173.478 397.39 172.875 396.386 172.875Z" fill="url(#paint49_linear_48_43)"/>
<path d="M389.963 196.361C389.762 194.354 389.762 192.347 389.762 190.339V189.938H390.364C391.97 189.938 392.974 190.741 393.174 192.146C393.576 193.953 392.372 195.96 390.565 196.763L389.963 196.964V196.361Z" fill="#7DAADB"/>
<path d="M394.379 209.209C391.769 207.201 390.364 199.975 390.364 199.975C390.163 199.373 390.163 198.57 389.963 197.767V196.964L390.766 197.164H390.966C393.174 196.161 393.977 193.752 393.777 191.945C393.576 191.142 392.974 189.336 390.364 189.135H389.762V188.533C389.963 185.321 390.565 182.31 391.167 179.5C391.769 177.894 392.572 175.083 394.178 173.879L394.58 173.478L394.78 174.08C397.39 178.496 397.39 184.317 397.39 189.336V191.142V193.551C397.39 195.358 397.39 196.964 397.39 198.77C397.39 201.982 397.189 206.8 394.78 209.008L394.379 209.409V209.209Z" fill="url(#paint50_linear_48_43)"/>
<path d="M396.185 208.807C398.594 205.395 398.393 199.172 398.193 194.756C398.193 193.953 398.193 193.15 398.193 192.347C398.193 191.544 398.193 190.54 398.193 189.737C398.193 184.317 398.193 178.897 395.784 174.28L395.382 173.478H396.185C396.587 173.478 396.988 173.478 397.39 173.678C399.799 174.682 400.401 177.894 401.003 180.102C402.408 186.325 402.408 193.35 401.204 200.577C400.802 202.986 399.999 205.997 398.193 208.406C397.791 208.807 397.39 209.209 396.988 209.409L396.185 208.807Z" fill="url(#paint51_linear_48_43)"/>
<path d="M399.999 149.991C401.605 147.984 403.211 145.977 405.018 143.769C405.018 143.568 405.218 143.568 405.218 143.367C407.627 143.166 409.835 142.765 412.244 142.564C412.445 142.564 412.445 142.564 412.445 142.564C413.047 142.363 413.649 141.962 413.649 141.159C413.649 121.286 414.653 101.413 414.251 81.3396C414.251 80.5366 413.649 79.9344 413.047 79.9344C412.846 79.9344 412.846 79.7337 412.646 79.7337C360.053 74.1131 307.259 70.9013 254.666 66.4851C247.44 66.4851 240.012 66.8866 232.786 66.8866C232.384 57.6527 231.782 48.4188 231.18 39.1849C230.979 35.7724 231.381 29.9511 228.57 27.1408C224.556 23.126 216.928 22.9253 211.708 21.9216C209.3 21.5201 206.891 20.9179 204.482 20.5165C204.683 17.3047 204.883 12.8885 202.073 11.0819C196.653 7.46861 189.226 5.46124 183.003 3.45388C170.357 -0.560848 157.108 -0.159376 143.86 0.242097C130.41 0.64357 116.961 1.84799 103.913 3.65461C93.6755 5.05977 84.2409 8.47229 80.4269 18.9106V19.1113C67.9813 20.5165 55.3349 21.7209 42.8892 23.3268C35.6627 24.1297 8.56332 25.7356 14.7862 39.7872C15.9906 42.3967 17.9979 43.6011 20.4068 45.207C20.206 46.4115 20.0053 47.6159 19.6038 48.8203C15.1876 49.021 9.36627 48.8203 6.7567 52.6343C3.94639 56.8497 4.14713 61.6674 4.14713 66.4851C4.14713 73.7116 4.34786 80.9381 4.5486 88.1646C4.74933 92.7815 4.95007 96.7963 8.9648 99.4058C8.9648 99.6066 8.9648 99.8073 8.76406 100.008C1.33682 105.829 0.333135 109.443 0.132399 118.877C-0.269074 133.932 0.333135 148.988 0.734608 164.043C0.734608 164.846 1.13608 165.448 1.93903 165.649C2.94271 166.05 4.14713 166.251 5.15081 166.452C5.15081 170.065 5.15081 173.678 5.15081 177.292C4.5486 177.292 3.74565 177.091 3.14344 177.091C2.94271 177.091 2.94271 177.091 2.74197 177.091H2.54123C2.54123 177.091 2.54123 177.091 2.3405 177.091C1.73829 177.091 0.935344 177.693 1.13608 178.496C1.53755 188.533 1.73829 198.57 2.3405 208.606C2.54123 214.026 2.94271 218.844 7.76038 222.056C14.3847 226.472 24.6222 226.873 32.2502 228.078C37.2686 228.881 42.4878 229.483 47.5062 230.085V230.286C50.3165 245.542 61.357 256.181 76.8137 257.988C93.2741 259.794 108.731 253.371 116.158 238.516V238.315C116.961 238.315 117.764 238.516 118.567 238.516C130.41 239.921 142.454 241.126 154.298 242.732C159.116 243.334 163.933 243.133 168.751 242.33C169.152 259.192 178.186 276.857 196.453 279.065C208.296 280.47 221.344 281.072 231.381 275.05C232.987 274.247 234.592 273.043 236.198 271.638C236.399 271.437 236.399 271.236 236.6 271.035C237.804 269.831 239.009 268.426 240.213 266.82C245.432 259.192 248.845 250.56 250.651 241.326C252.257 247.549 255.67 252.969 261.09 256.783C264.502 258.991 268.316 258.59 272.13 258.791C277.951 258.991 283.171 259.393 288.791 258.188C305.452 254.776 309.066 234.1 310.27 219.446C317.697 218.041 325.325 216.837 332.752 215.231C333.957 221.253 335.563 229.082 340.983 232.895C345.198 235.907 351.019 235.907 356.038 235.907C362.662 235.706 370.491 234.501 374.506 228.68C375.509 227.275 376.513 225.669 377.115 224.063C381.933 223.862 386.55 224.063 391.368 223.662C391.769 223.662 391.97 223.461 392.17 223.26C392.773 223.26 393.174 223.26 393.776 223.059C406.222 220.651 408.631 204.592 408.832 192.146C410.237 191.945 411.642 191.745 413.047 191.745C413.448 191.745 413.85 191.544 414.051 191.343C414.051 191.343 414.051 191.343 414.251 191.142C414.452 190.942 414.653 190.54 414.653 190.139C414.653 177.091 414.653 155.612 399.999 149.991ZM411.24 82.7447C411.441 101.815 410.638 120.684 410.638 139.754C359.852 146.177 308.664 149.791 257.677 154.006C256.874 125.903 256.473 97.8 256.473 69.6969C308.062 74.1131 359.852 77.3248 411.24 82.7447ZM256.673 157.218C304.649 153.203 353.027 149.791 400.802 143.969C398.995 146.177 397.189 148.385 395.181 150.594C362.06 153.203 328.939 155.612 295.817 158.422H295.616C295.416 158.422 295.215 158.422 295.014 158.623C280.36 159.827 265.506 161.233 250.852 162.839C250.852 162.236 250.852 161.433 250.651 160.831C252.659 159.627 254.465 158.422 256.673 157.218ZM347.005 199.172C347.005 198.971 347.005 198.971 347.005 198.77C347.005 198.57 346.804 198.57 346.804 198.369C346.804 198.168 346.603 198.168 346.603 197.967C346.202 197.566 345.8 197.365 345.198 197.566C344.797 197.767 344.194 197.767 343.793 197.967C343.994 189.336 346.202 176.489 339.979 169.864C337.369 167.054 334.358 165.448 330.946 164.645C331.548 162.638 332.351 160.63 333.756 159.025C333.957 158.824 333.957 158.623 334.158 158.422C346.202 157.419 358.447 156.616 370.491 155.612C383.94 156.816 383.338 183.113 383.137 193.551C382.134 193.752 381.331 193.752 380.528 193.953C379.926 181.908 377.316 160.229 365.272 162.839C350.819 165.85 350.819 192.949 350.618 204.792C349.815 204.792 348.811 204.993 348.008 204.993C347.607 204.993 347.406 204.993 347.206 205.194C347.206 203.187 347.206 201.179 347.005 199.172ZM339.578 175.485C342.187 181.908 340.581 191.745 340.38 198.77C332.552 200.376 324.723 201.781 316.894 203.588C316.894 192.748 316.493 178.094 311.073 168.459C320.909 166.853 334.76 164.244 339.578 175.485ZM309.266 165.448C307.861 163.641 306.255 162.036 304.248 160.831C312.88 160.028 321.511 159.426 330.143 158.824C329.139 160.43 328.336 162.236 327.935 164.043C321.712 163.24 315.088 164.444 309.266 165.448ZM253.261 69.6969C253.462 98.0007 253.863 126.505 254.465 154.809C252.659 155.813 251.053 156.816 249.246 157.82C246.235 152.802 239.41 147.783 236.399 145.575C236.198 123.093 234.592 100.41 233.388 77.9271C233.187 75.3175 233.187 72.7079 232.987 69.8976C239.812 70.0983 246.436 69.6969 253.261 69.6969ZM195.65 201.982C195.449 194.756 194.646 187.529 193.241 180.503C192.438 176.89 191.635 172.072 189.025 169.061C189.226 169.061 189.427 168.861 189.627 168.861C193.642 167.455 196.051 162.638 198.46 159.426C205.887 148.787 223.351 149.389 234.793 148.386C238.406 150.794 241.819 153.605 244.83 156.616C250.651 162.638 244.629 165.047 239.41 166.452C233.187 168.058 226.764 170.266 221.745 174.481C208.296 185.923 205.686 203.387 202.675 219.848C201.471 226.472 198.661 229.684 193.441 231.892C197.255 223.26 196.051 210.212 195.65 201.982ZM181.197 206.198C180.795 195.559 180.193 181.507 174.773 171.671C178.386 171.069 182.2 170.667 185.814 169.864C185.814 169.864 185.814 169.864 186.014 170.065C192.839 175.686 192.438 192.347 192.839 200.175C193.241 206.398 193.04 212.621 192.639 218.643C192.237 223.059 192.036 229.684 189.025 233.498C185.613 234.702 182.2 235.706 178.788 236.509C182.802 228.078 181.397 215.03 181.197 206.198ZM110.537 5.86271C120.976 4.6583 131.414 3.85535 141.652 3.45388C152.291 2.85167 163.13 2.4502 173.569 4.05609C178.386 4.85903 183.204 6.66566 187.821 8.27155C190.029 9.0745 192.237 9.87744 194.445 10.8811C199.865 13.0892 201.27 15.0966 201.27 19.9143C187.419 17.1039 173.368 14.8959 159.316 13.4907C138.841 11.6841 117.362 15.0966 97.088 17.3047C92.6718 17.7062 88.2556 18.3084 83.8394 18.7098C88.4564 8.27155 100.501 7.06713 110.537 5.86271ZM22.0127 30.3525C25.8266 27.743 32.0495 27.743 36.6664 27.1408C44.4951 26.1371 52.5246 25.1334 60.3533 24.3305C76.2115 22.5238 92.0696 20.7172 108.129 19.312C126.195 17.5054 144.863 15.0966 163.13 16.9032C179.791 18.5091 196.252 21.9216 212.712 25.3341C215.723 25.9363 218.734 26.5386 221.745 27.3415C226.764 28.5459 227.165 31.3562 227.767 36.1739C228.169 40.5901 228.37 45.0063 228.771 49.4225C229.574 62.0689 230.176 74.7153 230.778 87.3617C231.782 106.632 233.187 126.104 233.388 145.374C222.348 146.378 208.497 146.579 199.664 153.605C195.65 156.816 193.843 162.437 189.828 165.649C185.814 168.66 176.78 168.66 171.963 169.262C153.294 171.872 135.228 170.868 116.359 169.864C119.571 164.043 122.983 158.623 126.396 152.802C129.206 147.984 131.815 142.765 132.618 137.345C134.224 125.903 133.823 114.06 134.024 102.618C138.841 101.815 143.057 100.209 146.67 97.5992C152.692 92.9823 154.699 84.5514 155.502 77.5256C157.309 63.6748 158.915 49.6232 160.32 35.7724V35.5717V35.371V35.1702C160.32 34.9695 160.119 34.9695 160.119 34.7687C159.919 34.568 159.919 34.568 159.718 34.568H159.517C149.279 32.9621 138.239 34.568 128.001 35.1702C114.753 35.9732 101.504 36.9768 88.4564 37.9805C66.5761 39.7872 44.8966 41.7945 23.0163 43.4004C16.7935 38.9842 15.3884 34.9695 22.0127 30.3525ZM101.103 102.618C109.935 102.618 121.779 104.023 132.217 102.618C132.217 106.833 132.217 111.049 132.016 115.264C92.2704 115.264 52.5246 115.465 12.9795 115.465C12.9795 111.249 12.9795 107.034 12.7788 102.618C42.287 102.818 71.5945 102.618 101.103 102.618ZM11.9758 99.6066C12.1766 98.6029 12.3773 97.3985 12.7788 96.3948C37.4694 96.3948 62.3607 96.3948 87.0512 96.3948C98.4932 96.3948 110.136 96.3948 121.578 96.3948C129.607 96.3948 138.64 96.5955 143.86 89.1683C148.477 82.544 148.677 72.3064 149.882 64.6785C151.287 55.2439 152.893 45.8092 153.896 36.3746C154.9 36.3746 155.904 36.5754 156.707 36.7761C155.703 47.8166 154.298 58.8571 153.093 70.0983C151.688 81.1388 150.685 93.7852 138.64 98.0007C131.815 100.41 123.585 99.4058 116.559 99.4058C108.53 99.4058 100.501 99.4058 92.6718 99.4058C65.5724 99.6066 38.8745 99.6066 11.9758 99.6066ZM12.7788 123.494C12.7788 121.286 12.7788 119.279 12.7788 117.071C52.5246 117.071 92.2704 116.87 131.815 116.87C131.615 123.293 131.414 129.918 130.812 136.341C130.41 141.761 127.399 147.181 124.79 151.798C121.377 157.82 117.764 163.441 114.351 169.463H114.151C87.0512 168.058 59.9518 166.653 32.6517 164.846C28.637 164.645 24.6222 164.444 20.6075 164.043C18.6001 156.214 15.3884 148.586 13.7825 140.557C12.7788 134.936 12.7788 129.316 12.7788 123.494ZM23.2171 45.8092C43.2907 44.4041 63.3643 42.5975 83.438 40.9916C96.0844 39.9879 108.931 38.9842 121.779 38.1813C131.615 37.5791 142.454 35.9732 152.491 36.5754C151.086 50.0247 148.878 63.474 146.469 76.7226C145.466 82.544 144.261 88.7668 138.841 92.1793C135.228 94.5882 130.41 94.9896 126.195 94.9896C101.906 95.1904 77.6166 94.9896 53.3275 94.9896C39.8782 94.9896 26.6296 94.9896 13.1803 94.9896C16.5928 78.5293 19.8046 62.0689 23.2171 45.8092ZM18.8009 51.8313C16.7935 61.8682 14.7862 72.1057 12.5781 82.1425C12.3773 78.5293 12.1766 74.7153 12.1766 71.102C11.9758 65.2807 11.7751 57.6527 14.5854 52.2328C15.7898 52.0321 17.3957 52.0321 18.8009 51.8313ZM6.95743 69.6969C6.95743 66.0836 6.95743 62.6711 7.15817 59.0578C7.35891 55.2439 9.56701 53.4372 12.3773 52.6343C10.5707 57.0505 10.5707 62.2696 10.37 66.6858C10.1692 74.1131 10.9722 81.3396 11.1729 88.5661C10.5707 90.9749 10.1692 93.3838 9.56701 95.7926C4.95007 90.172 6.95743 75.1167 6.95743 69.6969ZM3.74565 162.839C2.74197 162.638 3.14344 150.794 3.14344 148.988C2.94271 138.349 2.74197 127.71 3.14344 117.071C3.14344 114.863 3.34418 112.454 3.54492 110.246C3.94639 106.833 7.35891 104.826 10.1692 102.818H10.37C10.5707 102.818 10.9722 102.818 11.1729 102.818C11.3736 107.235 11.3736 111.651 11.3736 116.067C11.1729 116.268 11.1729 116.669 11.3736 116.87C11.3736 119.078 11.3736 121.286 11.3736 123.695C11.3736 129.115 11.1729 134.133 12.1766 139.352C13.7825 147.984 16.9942 155.813 19.2023 164.244C14.9869 164.043 10.7714 163.641 6.55596 163.24C5.55228 163.039 4.74933 163.039 3.74565 162.839ZM5.35154 211.417C5.35154 211.015 5.35154 210.614 5.15081 210.012C4.5486 199.975 4.34786 190.139 3.94639 180.102C14.5854 181.708 25.6259 182.109 36.4657 182.912C56.74 184.317 77.0144 185.522 97.2888 186.726C115.957 187.73 134.826 188.734 153.696 189.336C156.506 189.336 159.316 189.336 161.926 189.737C166.543 199.774 166.944 211.216 164.736 222.056C163.933 226.07 162.729 230.888 158.513 232.293C155.101 233.498 150.484 232.494 146.871 232.494C137.035 232.293 127.198 230.888 117.563 229.884C88.2556 226.673 59.1489 222.658 30.0421 218.041C26.6296 217.439 23.2171 216.837 19.8046 216.234C18.1987 216.034 16.5928 215.632 14.9869 215.231C12.5781 214.628 7.55964 213.625 5.35154 211.417ZM78.821 254.575C64.1673 254.575 53.3275 243.936 50.5172 230.085C55.3349 230.687 60.1526 231.29 64.7695 231.892C65.9739 242.33 73.4012 251.163 82.635 254.374C81.4306 254.575 80.2262 254.575 78.821 254.575ZM96.2851 251.965C83.2372 255.579 69.7879 245.743 67.9813 232.494C82.8358 234.301 97.6903 235.907 112.545 237.713C108.53 244.94 103.11 249.356 96.2851 251.965ZM163.532 239.52C153.696 240.323 143.057 237.914 133.421 236.91C104.515 233.698 75.6093 230.487 46.904 226.673C37.4694 225.468 27.834 224.465 18.3994 222.457C12.3773 221.253 7.76038 219.245 5.95375 214.026C9.56701 216.435 15.3884 217.037 18.6001 217.64C23.4178 218.643 28.2355 219.446 33.2539 220.048C47.3054 222.256 61.357 224.264 75.4085 226.07C90.263 228.078 105.318 229.884 120.373 231.691C129.808 232.695 139.443 233.899 149.079 234.1C153.093 234.1 157.108 234.903 160.922 233.297C164.535 231.691 165.74 227.074 166.543 223.461C169.152 212.621 168.55 200.577 164.335 190.339C165.539 190.741 166.744 191.544 167.948 192.547C171.561 196.161 171.561 202.986 171.561 207.803C171.561 218.643 171.762 230.487 164.335 239.118C163.733 239.118 163.532 239.319 163.532 239.52ZM167.948 238.918C173.167 231.691 173.97 223.059 174.171 214.026C174.372 205.997 174.974 197.164 169.755 190.339C165.138 184.518 154.499 186.124 147.874 185.923C137.436 185.522 127.198 185.12 116.76 184.518C93.4748 183.314 69.9886 181.908 46.7032 180.303C33.8561 179.5 20.6075 179.098 7.76038 177.292C7.76038 173.678 7.76038 170.065 7.76038 166.452C10.9722 166.853 14.3847 166.853 17.5965 167.054C28.2355 167.857 38.8745 168.459 49.5135 169.061C74.4048 170.467 99.2961 171.872 124.187 173.076C140.246 173.879 155.302 174.08 171.16 172.072C176.78 181.106 177.182 194.153 177.784 204.19C178.386 213.625 180.193 228.881 174.572 237.111C174.572 237.312 174.372 237.312 174.372 237.512C172.163 238.115 170.156 238.516 167.948 238.918ZM199.464 275.853C181.197 275.05 172.163 258.188 171.762 241.527C177.784 240.323 183.806 238.516 189.828 236.509C190.029 236.509 190.43 236.509 190.631 236.308C191.434 236.107 192.438 235.706 193.241 235.505C193.441 248.754 199.062 263.407 209.5 271.838C211.909 273.846 214.519 275.251 217.128 276.054C211.307 276.656 205.084 276.054 199.464 275.853ZM235.998 266.619C234.592 268.426 232.987 269.831 231.381 271.035C223.953 276.054 215.322 273.043 208.697 266.82C200.467 259.192 196.453 245.542 196.453 234.501C196.453 234.301 196.453 234.301 196.453 234.1C208.296 228.479 206.69 211.216 209.902 200.175C211.106 195.96 212.712 191.945 214.72 188.332C214.92 188.332 215.121 188.131 215.322 187.931C223.753 179.5 235.998 186.124 241.618 194.153C245.834 200.175 247.64 208.004 248.443 215.231C250.25 232.494 246.837 252.568 235.998 266.619ZM249.447 205.194C246.436 192.748 232.384 176.288 219.136 181.306C220.942 179.299 222.95 177.292 225.158 175.485C230.176 171.671 235.998 170.667 241.618 168.861C252.859 174.481 252.659 185.722 254.064 196.763C255.469 208.004 256.673 219.045 256.673 230.487C255.068 230.888 253.261 231.089 251.454 231.49C252.257 222.658 251.655 213.625 249.447 205.194ZM270.123 255.378C258.681 254.977 253.462 245.542 252.458 234.903V234.702C254.666 234.301 256.874 233.899 258.882 233.498C259.484 233.297 259.684 233.096 259.885 232.695C259.885 232.494 259.885 232.494 260.086 232.293C260.086 232.293 260.086 232.293 260.086 232.093V231.892C260.086 230.286 260.086 228.881 259.885 227.275C260.889 227.275 261.692 227.275 262.696 227.275C262.696 238.315 268.115 250.36 278.152 255.579C275.342 255.779 272.732 255.378 270.123 255.378ZM307.058 214.628C306.858 224.866 305.452 236.91 299.832 245.943C294.412 253.17 287.788 257.185 278.955 252.768C270.324 248.553 265.907 236.509 266.108 227.476C266.509 227.476 267.112 227.476 267.513 227.476C267.714 227.476 267.915 227.476 268.115 227.275C268.718 227.074 269.119 226.673 269.119 225.87C268.517 217.238 268.316 208.406 269.922 199.975C271.929 189.135 282.368 170.266 296.218 176.489C307.66 181.507 307.46 204.391 307.058 214.628ZM292.806 171.872C282.167 169.463 273.335 181.908 269.521 189.737C264.502 200.175 264.904 212.822 265.506 224.063C263.498 224.264 261.491 224.264 259.684 224.063C259.283 213.625 258.079 203.187 256.673 192.748C255.268 182.31 254.666 173.277 245.432 167.455C245.633 167.455 246.034 167.255 246.235 167.054C247.038 166.653 247.841 166.251 248.443 165.85C264.101 164.244 279.959 162.638 295.616 161.233C315.489 162.437 313.683 193.551 313.683 208.205C312.478 208.205 311.474 208.406 310.27 208.406C310.471 194.555 307.66 175.284 292.806 171.872ZM310.27 216.034C310.27 214.829 310.471 213.424 310.471 212.019C312.077 211.818 313.883 211.818 315.489 211.617C315.69 211.617 315.891 211.617 316.091 211.417C316.694 211.216 317.095 210.814 317.095 210.012C317.095 209.008 317.095 207.803 317.095 206.599C326.128 204.592 335.161 203.187 344.194 201.179C344.194 203.989 344.194 206.599 344.194 209.409C332.753 212.019 321.511 214.026 310.27 216.034ZM353.428 232.695C341.585 232.895 337.771 225.468 335.563 214.428C338.975 213.625 342.589 212.822 346.001 212.019C346.403 211.818 346.804 211.617 347.005 211.216C348.41 219.045 351.822 228.881 359.049 232.293C357.042 232.494 355.235 232.695 353.428 232.695ZM377.115 209.61C376.513 213.023 375.71 217.64 373.903 221.654C373.703 221.855 373.703 222.056 373.703 222.256C371.896 226.472 368.885 229.884 364.469 230.286C354.231 231.49 350.417 215.632 349.414 208.205C350.217 208.205 351.019 208.004 351.822 208.004C352.625 208.004 353.428 207.402 353.428 206.398C353.83 194.354 353.629 178.094 361.859 168.258C369.688 158.824 375.108 178.496 376.112 183.113C377.316 189.336 377.316 196.161 377.517 202.584C377.517 204.993 377.517 207.201 377.115 209.61ZM378.119 220.851C379.123 217.84 379.725 214.628 380.126 211.417C381.331 215.03 382.736 218.442 385.145 220.851C382.937 220.851 380.528 220.851 378.119 220.851ZM397.992 217.64C391.769 224.264 385.747 216.636 383.539 211.015C381.933 206.599 381.331 201.781 380.728 197.164C382.134 196.964 383.74 196.763 385.145 196.361C385.345 196.361 385.546 196.161 385.747 195.96L385.948 195.759C385.948 195.759 385.948 195.759 386.148 195.559C386.148 195.358 386.349 195.358 386.349 195.157V194.956C386.349 194.956 386.349 194.956 386.349 194.756C386.349 191.343 386.349 186.726 386.148 181.507C386.349 181.306 386.349 181.106 386.349 180.704C386.349 175.886 387.152 159.426 395.984 163.641C402.809 167.054 404.415 177.492 405.018 183.916C406.222 194.956 405.62 209.409 397.992 217.64ZM411.24 188.734C410.237 188.734 409.434 188.934 408.43 188.934C408.43 187.128 408.229 185.522 408.229 184.117C407.627 175.686 404.817 162.236 394.78 160.028C388.959 158.824 386.148 163.441 384.743 168.861C383.539 163.039 381.331 157.82 377.316 154.809C383.539 154.408 389.561 153.805 395.784 153.404C396.185 153.404 396.587 153.203 396.787 153.002C396.988 152.802 397.189 152.601 397.39 152.4C411.441 156.616 411.441 176.689 411.24 188.734Z" fill="#260A01"/>
<path d="M169.755 98.8037C169.353 110.045 168.952 121.085 168.55 132.327C168.55 133.13 168.952 133.531 169.353 133.732C169.554 133.933 169.755 133.933 170.156 133.933C189.226 134.334 210.304 131.925 216.125 110.647C218.734 101.213 217.329 90.3727 217.329 80.5367C217.329 66.6859 217.329 52.835 217.329 38.7835V38.5828C217.329 37.9806 216.928 37.3783 216.125 37.1776C202.073 34.7688 188.022 32.9622 173.97 30.5533C173.77 30.5533 173.77 30.5533 173.77 30.5533C173.569 30.5533 173.368 30.5533 173.368 30.5533C173.167 30.5533 173.167 30.754 172.967 30.754C172.565 30.9548 172.364 31.3563 172.164 31.9585C171.963 34.568 171.963 37.1776 171.963 39.9879C167.145 40.1887 166.342 42.999 166.142 48.4188C165.74 58.2549 165.339 68.2917 165.138 78.1278C164.937 83.7484 163.131 93.1831 167.948 97.1978C168.149 98.0007 168.952 98.4022 169.755 98.8037ZM210.906 39.5864C211.909 39.7872 213.114 39.9879 214.118 40.1887C213.917 59.2586 214.118 78.5293 214.118 97.5993C214.118 109.643 211.106 120.483 200.066 126.505C191.635 130.921 181.197 130.921 171.762 130.721C171.762 129.918 171.762 129.316 171.762 128.513C181.397 128.513 191.635 128.111 200.066 122.892C207.694 118.074 210.304 110.246 210.906 101.815C212.311 80.9381 211.106 60.2623 210.906 39.5864ZM175.175 33.9658C186.617 35.9732 198.059 37.5791 209.501 39.3857C209.501 58.6564 210.504 78.1278 209.701 97.3985C209.3 106.632 208.296 114.863 200.267 120.885C192.438 126.706 181.598 126.907 172.164 126.907C172.565 117.673 172.967 108.439 173.167 99.2051C177.182 99.4059 182 98.0007 184.609 97.1978C190.23 95.3912 190.631 89.5698 190.832 84.7521C191.234 76.9234 191.434 69.2954 191.434 61.4667C191.434 56.0468 191.635 50.8277 189.628 45.8093C187.219 40.3894 180.193 40.1887 175.175 39.9879C174.974 37.9806 174.974 35.9732 175.175 33.9658ZM184.208 52.0321C184.007 49.4225 183.806 46.6122 182.803 44.2034C187.62 45.6085 187.821 51.2292 188.022 55.4446C188.223 64.6785 188.022 74.1131 187.62 83.347C187.42 88.5661 186.617 92.3801 182.401 94.1867C183.606 91.5772 183.606 88.5661 184.007 85.5551C184.609 79.7337 184.81 73.9124 185.011 68.2917C185.011 62.8719 184.609 57.452 184.208 52.0321ZM167.948 84.5514C168.149 72.5072 168.751 60.6638 169.153 48.6196C169.353 44.6049 169.353 42.999 173.77 43.1997C176.178 43.4004 178.587 43.4004 180.996 43.8019C182.2 46.6122 182.602 50.0247 182.803 53.0358C183.003 57.6527 183.405 62.0689 183.405 66.6859C183.405 71.5035 183.003 76.5219 182.803 81.3396C182.602 85.7558 182.803 90.975 180.394 94.7889C179.992 94.7889 179.591 94.9897 178.989 94.9897C176.781 95.1904 174.372 95.3911 172.164 95.3911C166.543 95.5919 167.747 87.7632 167.948 84.5514Z" fill="#260A01"/>
<path d="M211.508 130.319H211.307C208.296 132.126 205.084 138.75 208.296 141.761C209.701 142.966 211.106 143.166 212.913 142.966C215.924 142.966 218.935 142.564 221.946 141.962C224.154 141.36 225.158 140.356 225.358 138.148C225.559 135.94 225.158 132.527 224.154 130.721C222.147 127.71 214.117 129.115 211.508 130.319ZM212.712 133.13C214.519 132.527 216.928 132.327 218.734 132.126C220.34 131.925 221.344 132.126 221.545 133.933C221.745 134.535 222.347 137.947 221.745 138.549C219.336 140.155 214.719 139.754 212.11 139.955C208.497 139.955 210.705 134.535 212.712 133.13Z" fill="#260A01"/>
<path d="M111.742 222.457C119.771 223.059 123.786 214.829 123.585 207.803C123.384 202.183 119.169 196.562 113.147 196.161C106.924 195.759 102.508 200.175 101.103 205.997C100.099 213.023 103.512 221.855 111.742 222.457ZM104.315 206.8C105.117 202.986 107.326 199.774 111.34 199.172C115.154 198.57 118.567 201.38 119.771 204.792C121.578 209.61 119.771 216.034 115.355 218.643C112.143 220.45 107.928 218.242 105.92 215.632C104.114 213.223 103.712 209.811 104.315 206.8Z" fill="#260A01"/>
<path d="M140.849 226.673C150.082 227.275 154.9 217.84 154.499 209.61C154.298 202.986 149.48 196.562 142.454 195.96C135.228 195.358 130.009 200.577 128.604 207.402C127.399 215.833 131.213 226.07 140.849 226.673ZM131.815 208.406C132.819 203.789 135.429 199.975 140.447 199.172C145.265 198.57 149.279 201.781 150.885 205.997C153.093 211.818 150.885 219.446 145.465 222.658C141.451 225.067 136.432 222.056 134.024 219.045C131.414 216.234 131.213 212.019 131.815 208.406Z" fill="#260A01"/>
<path d="M21.0091 196.964C20.8084 193.551 18.6003 189.938 14.987 189.737C11.173 189.336 8.76421 192.547 7.96127 195.759C7.15832 199.975 8.76421 206.398 14.1841 206.599C19.0018 206.599 21.0091 200.978 21.0091 196.964ZM15.1878 203.187C13.7826 203.789 12.3775 202.584 11.7753 201.38C10.9723 199.975 10.7716 197.967 11.173 196.562C11.5745 194.756 12.3775 192.949 14.3848 192.748C16.1915 192.547 17.1951 194.354 17.5966 195.96C18.1988 198.168 17.5966 202.183 15.1878 203.187Z" fill="#260A01"/>
<path d="M31.046 211.015C36.6666 211.015 38.8747 204.592 38.6739 199.975C38.4732 196.161 36.0644 191.945 31.8489 191.544C27.6334 191.142 24.8231 194.756 23.8194 198.57C23.2172 203.387 24.8231 211.015 31.046 211.015ZM27.0312 199.573C27.4327 197.365 28.6371 194.956 31.2467 194.756C33.4548 194.555 34.8599 196.763 35.4622 198.77C36.2651 201.581 35.2614 206.398 32.2504 207.803C30.4437 208.606 28.8379 207.001 27.8342 205.595C26.8305 203.789 26.8305 201.38 27.0312 199.573Z" fill="#260A01"/>
<path d="M33.0528 156.616C41.8852 157.82 50.9183 158.222 59.9515 158.623C69.3861 159.025 78.8207 159.225 88.0546 159.627C92.6715 159.827 96.887 160.43 100.902 158.021C110.336 152.802 113.147 135.739 115.756 126.706C115.957 126.104 115.756 125.702 115.355 125.301C115.154 124.899 114.753 124.699 114.15 124.699C84.0398 124.699 53.9294 124.699 23.8189 124.699C23.6182 124.699 23.4175 124.699 23.2167 124.899C22.6145 125.1 22.2131 125.502 22.4138 126.304C23.2167 135.338 23.6182 147.382 29.841 154.809C30.644 155.813 31.8484 156.616 33.0528 156.616ZM112.143 127.91C109.935 135.739 107.727 145.174 102.708 151.798C88.456 151.397 74.2038 150.995 59.7507 150.594C53.9294 150.393 48.108 150.192 42.4874 149.791C39.0749 149.59 36.2646 148.988 34.8594 145.575C32.6513 140.155 32.4506 133.732 31.6477 127.91C58.5463 128.111 85.445 128.111 112.143 127.91ZM30.2425 128.111C30.8447 133.932 31.4469 139.754 33.0528 145.374C33.8558 148.185 35.4617 150.192 38.272 150.995C43.0896 152.4 48.911 151.798 53.7287 151.999C69.5868 152.601 85.445 153.002 101.303 153.404C100.902 153.805 100.701 154.207 100.299 154.408C97.0877 157.619 91.8686 156.616 87.6531 156.415C80.0251 156.214 72.5979 156.013 64.9699 155.612C57.9441 155.411 50.9183 155.01 43.8926 154.408C40.8815 154.207 34.458 154.809 32.0491 152.802C26.4285 147.984 26.027 135.137 25.4248 127.91C27.2315 128.111 28.8374 128.111 30.2425 128.111Z" fill="#260A01"/>
<path d="M265.506 142.765C265.506 143.166 265.506 143.367 265.706 143.568C265.907 143.969 266.309 144.371 267.112 144.371C312.077 141.962 357.042 138.951 401.806 135.538C402.006 135.538 402.006 135.538 402.207 135.338H402.408C402.809 135.137 403.211 134.735 403.211 133.932C403.211 119.279 403.211 104.826 403.211 90.1719C403.211 89.5697 402.809 88.9675 402.408 88.7668C402.408 88.7668 402.408 88.7668 402.207 88.7668C402.006 88.7668 401.806 88.566 401.605 88.566C356.64 85.9565 311.474 83.5476 266.71 79.3322C266.108 79.3322 265.706 79.5329 265.506 79.7336C265.305 79.9344 265.104 80.3358 265.104 80.9381C266.71 101.212 265.506 122.29 265.506 142.765ZM396.587 91.3763C397.791 91.3763 398.995 91.5771 400.2 91.5771C400.2 105.227 400.2 118.877 400.2 132.327C356.439 135.739 312.478 138.549 268.718 140.958C268.718 139.754 268.718 138.549 268.718 137.546C285.981 137.345 303.244 135.538 320.507 134.535C343.592 133.129 366.677 131.724 389.762 130.319C391.769 130.118 393.776 130.118 395.984 130.118C396.185 130.118 396.386 130.118 396.386 129.918C396.587 129.717 396.587 129.717 396.587 129.316C396.587 116.669 395.784 103.822 396.587 91.3763ZM394.981 91.1756C394.178 103.421 394.981 116.067 394.981 128.312C377.517 128.513 359.852 130.319 342.388 131.323C319.303 132.728 296.419 134.133 273.334 135.538C271.729 135.538 270.123 135.739 268.517 135.739C268.717 118.074 269.52 100.008 268.316 82.3432C310.471 86.5587 352.826 88.7668 394.981 91.1756Z" fill="#260A01"/>
<path d="M227.366 199.372C221.545 199.573 217.53 205.194 215.121 209.811C209.701 221.453 208.296 237.914 213.716 249.757C214.72 251.965 216.125 254.374 218.132 255.98C218.132 255.98 218.132 255.98 218.333 255.98C220.34 257.787 222.95 258.991 225.961 258.59C231.983 257.787 235.596 252.768 237.804 247.549C240.615 240.925 241.819 233.698 242.02 226.673C242.221 219.647 241.618 210.814 237.804 204.792C235.195 201.38 231.381 199.172 227.366 199.372ZM213.315 220.249C219.738 220.45 224.757 224.465 223.552 231.29C222.749 236.107 216.125 237.111 212.311 237.512C211.709 231.892 211.909 225.87 213.315 220.249ZM218.935 254.776C216.326 252.166 214.519 248.151 213.716 244.94C213.114 243.133 212.712 241.126 212.512 239.118C218.333 238.315 224.957 236.509 225.359 229.684C225.76 222.658 219.939 219.045 213.716 218.643C214.519 215.833 215.322 213.023 216.526 210.614C218.132 207.201 220.541 203.789 223.753 201.982C233.99 203.588 233.99 218.442 233.99 226.271C234.191 235.304 232.184 255.98 218.935 254.776ZM240.213 226.673C240.213 232.895 239.009 239.319 236.801 245.14C234.994 249.958 232.184 254.976 226.965 256.783C224.757 257.586 222.749 257.385 220.943 256.382C233.388 255.378 235.596 235.706 235.596 226.271C235.596 218.041 235.195 204.592 226.162 201.179C226.764 200.978 227.165 200.978 227.768 200.978C231.983 200.778 235.195 204.19 237.001 207.603C240.012 213.023 240.213 220.651 240.213 226.673Z" fill="#260A01"/>
<path d="M291.2 188.934C285.981 188.934 282.568 194.153 280.762 198.168C275.944 209.008 275.141 223.059 279.959 233.899C281.765 237.914 285.981 241.929 290.598 240.724C295.415 239.52 298.226 235.505 300.032 231.089C302.441 225.268 303.445 218.844 303.646 212.42C303.846 206.398 303.244 199.172 300.032 193.953C298.025 190.942 294.613 188.934 291.2 188.934ZM278.754 210.413C280.962 210.413 283.371 210.212 285.379 211.417C287.386 212.42 287.386 214.629 287.386 216.636C287.185 221.253 282.167 221.052 278.554 221.052H278.353C277.951 217.439 278.152 213.826 278.754 210.413ZM285.579 238.516C282.568 236.71 280.762 232.293 279.758 229.282C279.156 227.074 278.754 224.866 278.353 222.457C278.353 222.457 278.353 222.457 278.554 222.457C282.769 222.457 288.39 222.457 288.791 217.037C288.992 214.629 288.791 212.42 286.985 210.614C284.977 208.807 281.565 208.807 278.955 208.807C279.557 205.395 280.561 201.982 281.966 198.971C283.371 195.96 285.379 192.748 288.39 191.343C297.021 193.752 296.218 207.201 295.616 214.227C295.014 221.052 293.81 236.107 285.78 238.315C285.78 238.315 285.579 238.315 285.579 238.516ZM299.029 228.68C297.624 232.896 295.215 237.312 290.799 239.118C289.594 239.52 288.39 239.721 287.386 239.52C295.416 236.107 296.62 221.654 297.222 214.428C297.824 207.201 298.226 194.756 290.799 190.942C291.2 190.942 291.401 190.942 291.802 190.942C295.616 190.942 298.427 194.354 299.631 197.566C303.445 206.8 302.241 219.245 299.029 228.68Z" fill="#260A01"/>
<path d="M362.462 179.098C359.049 181.909 358.246 187.931 357.644 191.945C356.841 197.566 357.042 203.187 358.045 208.807C358.648 212.822 360.053 217.84 363.867 220.249C366.276 221.654 369.086 220.048 370.491 217.84C373.301 213.625 373.904 208.205 374.305 203.387C374.907 197.164 374.305 190.741 372.699 184.518C371.093 180.102 367.078 175.284 362.462 179.098ZM358.848 194.756C361.257 195.157 363.666 195.157 363.867 198.369C364.067 201.581 361.659 202.986 358.848 203.789C358.447 200.778 358.447 197.767 358.848 194.756ZM364.067 218.844C361.659 217.037 360.253 211.617 359.852 209.811C359.451 208.406 359.25 207.001 359.049 205.395C362.662 204.391 365.473 202.584 365.473 198.369C365.473 194.153 362.462 193.752 359.049 193.15C359.25 190.741 359.852 188.332 360.454 186.124C361.056 184.117 362.261 180.905 364.268 179.7C368.684 183.715 368.684 191.142 369.086 196.763C369.487 203.789 368.885 212.22 364.268 217.84C364.067 218.242 364.067 218.443 364.067 218.844ZM371.896 208.807C371.294 212.22 370.29 216.435 367.279 218.643C366.476 219.245 365.874 219.245 365.071 219.245C365.071 219.245 365.071 219.245 365.272 219.245C370.491 213.223 370.892 204.592 370.692 196.964C370.491 191.142 370.09 183.715 365.874 179.299C366.075 179.299 366.476 179.299 366.677 179.299C369.086 179.7 370.491 182.912 371.093 184.92C373.101 192.748 373.301 200.978 371.896 208.807Z" fill="#260A01"/>
<path d="M399.598 174.281C395.382 168.861 391.368 175.686 390.163 179.5C387.955 188.131 386.952 200.978 392.171 208.606C393.174 210.012 395.382 211.216 397.189 210.212C400.401 208.205 401.204 204.391 402.007 200.778C403.01 195.759 403.01 190.741 402.609 185.722C402.609 181.909 402.208 177.492 399.598 174.281ZM390.163 190.54C393.777 190.741 392.974 195.157 390.364 196.362C390.163 194.354 390.163 192.347 390.163 190.54ZM394.58 208.807C392.371 207.201 391.167 201.38 390.766 199.774C390.565 199.172 390.565 198.369 390.364 197.767C390.565 197.767 390.766 197.767 390.966 197.767C395.182 195.96 395.182 189.135 390.163 188.934C390.364 185.923 390.766 182.912 391.568 179.901C391.97 178.496 392.773 175.686 394.379 174.481C397.189 179.299 396.788 185.723 396.788 191.142C396.788 193.752 396.788 196.161 396.788 198.77C396.988 201.581 396.788 206.599 394.58 208.807ZM400.602 200.577C400.2 203.187 399.397 205.997 397.591 208.205C397.189 208.606 396.788 209.008 396.386 209.209C399.397 204.993 398.594 196.964 398.394 192.347C398.394 186.325 398.996 179.5 395.784 174.08C396.185 174.08 396.587 174.08 396.788 174.281C398.996 175.284 399.598 178.496 399.999 180.503C402.007 186.927 401.806 193.953 400.602 200.577Z" fill="#260A01"/>
<defs>
<linearGradient id="paint0_linear_48_43" x1="359.498" y1="186.933" x2="291.512" y2="118.947" gradientUnits="userSpaceOnUse">
<stop offset="0.5" stop-color="#FEE7A5"/>
<stop offset="1" stop-color="#FEBD57"/>
</linearGradient>
<linearGradient id="paint1_linear_48_43" x1="378.696" y1="199.054" x2="335.692" y2="156.05" gradientUnits="userSpaceOnUse">
<stop offset="0.5" stop-color="#EF5401"/>
<stop offset="1" stop-color="#DE2201"/>
</linearGradient>
<linearGradient id="paint2_linear_48_43" x1="339.641" y1="200.341" x2="308.784" y2="169.485" gradientUnits="userSpaceOnUse">
<stop offset="0.5" stop-color="#FE9C0E"/>
<stop offset="1" stop-color="#FE7F00"/>
</linearGradient>
<linearGradient id="paint3_linear_48_43" x1="325.024" y1="167.633" x2="310.219" y2="152.828" gradientUnits="userSpaceOnUse">
<stop offset="0.5" stop-color="#FE9C0E"/>
<stop offset="1" stop-color="#FE7F00"/>
</linearGradient>
<linearGradient id="paint4_linear_48_43" x1="273.724" y1="136.396" x2="219.614" y2="82.2867" gradientUnits="userSpaceOnUse">
<stop offset="0.5" stop-color="#FE9C0E"/>
<stop offset="1" stop-color="#FE7F00"/>
</linearGradient>
<linearGradient id="paint5_linear_48_43" x1="226.005" y1="201.872" x2="190.474" y2="166.341" gradientUnits="userSpaceOnUse">
<stop offset="0.5" stop-color="#FE9C0E"/>
<stop offset="1" stop-color="#FE7F00"/>
</linearGradient>
<linearGradient id="paint6_linear_48_43" x1="200.712" y1="222.383" x2="161.798" y2="183.468" gradientUnits="userSpaceOnUse">
<stop offset="0.5" stop-color="#FEE7A5"/>
<stop offset="1" stop-color="#FEBD57"/>
</linearGradient>
<linearGradient id="paint7_linear_48_43" x1="173.526" y1="48.5455" x2="112.547" y2="-12.4338" gradientUnits="userSpaceOnUse">
<stop offset="0.5" stop-color="#EF5401"/>
<stop offset="1" stop-color="#DE2201"/>
</linearGradient>
<linearGradient id="paint8_linear_48_43" x1="105.908" y1="142.456" x2="39.0171" y2="75.5647" gradientUnits="userSpaceOnUse">
<stop offset="0.5" stop-color="#FE9C0E"/>
<stop offset="1" stop-color="#FE7F00"/>
</linearGradient>
<linearGradient id="paint9_linear_48_43" x1="124.392" y1="107.407" x2="42.5169" y2="25.5319" gradientUnits="userSpaceOnUse">
<stop offset="0.25" stop-color="#CDDEF0"/>
<stop offset="0.5" stop-color="#E9F0FF"/>
<stop offset="1" stop-color="#9BB1C4"/>
</linearGradient>
<linearGradient id="paint10_linear_48_43" x1="22.0973" y1="73.2284" x2="7.39537" y2="58.5265" gradientUnits="userSpaceOnUse">
<stop offset="0.5" stop-color="#636363"/>
<stop offset="1" stop-color="#878787"/>
</linearGradient>
<linearGradient id="paint11_linear_48_43" x1="21.942" y1="84.7081" x2="0.112892" y2="62.8791" gradientUnits="userSpaceOnUse">
<stop offset="0.5" stop-color="#D6D6D6"/>
<stop offset="1" stop-color="#AAAAAA"/>
</linearGradient>
<linearGradient id="paint12_linear_48_43" x1="29.6182" y1="154.84" x2="-7.01155" y2="118.211" gradientUnits="userSpaceOnUse">
<stop offset="0.5" stop-color="#FE9C0E"/>
<stop offset="1" stop-color="#FE7F00"/>
</linearGradient>
<linearGradient id="paint13_linear_48_43" x1="80.2516" y1="257.544" x2="51.1013" y2="228.393" gradientUnits="userSpaceOnUse">
<stop offset="0.5" stop-color="#606060"/>
<stop offset="1" stop-color="#464646"/>
</linearGradient>
<linearGradient id="paint14_linear_48_43" x1="102.511" y1="250.367" x2="75.7232" y2="223.58" gradientUnits="userSpaceOnUse">
<stop offset="0.5" stop-color="#606060"/>
<stop offset="1" stop-color="#464646"/>
</linearGradient>
<linearGradient id="paint15_linear_48_43" x1="143.215" y1="260.558" x2="50.1928" y2="167.536" gradientUnits="userSpaceOnUse">
<stop offset="0.5" stop-color="#D6D6D6"/>
<stop offset="1" stop-color="#AAAAAA"/>
</linearGradient>
<linearGradient id="paint16_linear_48_43" x1="163.732" y1="249.128" x2="44.075" y2="129.471" gradientUnits="userSpaceOnUse">
<stop offset="0.5" stop-color="#FE9C0E"/>
<stop offset="1" stop-color="#FE7F00"/>
</linearGradient>
<linearGradient id="paint17_linear_48_43" x1="214.833" y1="278.836" x2="174.177" y2="238.179" gradientUnits="userSpaceOnUse">
<stop offset="0.5" stop-color="#606060"/>
<stop offset="1" stop-color="#464646"/>
</linearGradient>
<linearGradient id="paint18_linear_48_43" x1="267.605" y1="220.789" x2="223.244" y2="176.428" gradientUnits="userSpaceOnUse">
<stop offset="0.5" stop-color="#EF5401"/>
<stop offset="1" stop-color="#DE2201"/>
</linearGradient>
<linearGradient id="paint19_linear_48_43" x1="278.221" y1="256.238" x2="254.098" y2="232.116" gradientUnits="userSpaceOnUse">
<stop offset="0.5" stop-color="#606060"/>
<stop offset="1" stop-color="#464646"/>
</linearGradient>
<linearGradient id="paint20_linear_48_43" x1="305.428" y1="217.927" x2="249.781" y2="162.28" gradientUnits="userSpaceOnUse">
<stop offset="0.5" stop-color="#EF5401"/>
<stop offset="1" stop-color="#DE2201"/>
</linearGradient>
<linearGradient id="paint21_linear_48_43" x1="336.302" y1="217.815" x2="319.994" y2="201.506" gradientUnits="userSpaceOnUse">
<stop offset="0.5" stop-color="#FEE7A5"/>
<stop offset="1" stop-color="#FEBD57"/>
</linearGradient>
<linearGradient id="paint22_linear_48_43" x1="359.101" y1="234.288" x2="336.908" y2="212.095" gradientUnits="userSpaceOnUse">
<stop offset="0.5" stop-color="#606060"/>
<stop offset="1" stop-color="#464646"/>
</linearGradient>
<linearGradient id="paint23_linear_48_43" x1="385.215" y1="222.446" x2="376.884" y2="214.115" gradientUnits="userSpaceOnUse">
<stop offset="0.5" stop-color="#606060"/>
<stop offset="1" stop-color="#464646"/>
</linearGradient>
<linearGradient id="paint24_linear_48_43" x1="416.386" y1="184.691" x2="381.225" y2="149.53" gradientUnits="userSpaceOnUse">
<stop offset="0.5" stop-color="#EF5401"/>
<stop offset="1" stop-color="#DE2201"/>
</linearGradient>
<linearGradient id="paint25_linear_48_43" x1="214.788" y1="107.187" x2="157.813" y2="50.212" gradientUnits="userSpaceOnUse">
<stop offset="0.25" stop-color="#CDDEF0"/>
<stop offset="0.5" stop-color="#E9F0FF"/>
<stop offset="1" stop-color="#9BB1C4"/>
</linearGradient>
<linearGradient id="paint26_linear_48_43" x1="195.743" y1="82.4583" x2="169.431" y2="56.1464" gradientUnits="userSpaceOnUse">
<stop offset="0.5" stop-color="#D6D6D6"/>
<stop offset="1" stop-color="#AAAAAA"/>
</linearGradient>
<linearGradient id="paint27_linear_48_43" x1="190.934" y1="84.9863" x2="159.658" y2="53.7108" gradientUnits="userSpaceOnUse">
<stop offset="0.5" stop-color="#636363"/>
<stop offset="1" stop-color="#878787"/>
</linearGradient>
<linearGradient id="paint28_linear_48_43" x1="225.383" y1="154.097" x2="61.3048" y2="-9.98123" gradientUnits="userSpaceOnUse">
<stop offset="0.5" stop-color="#FE9C0E"/>
<stop offset="1" stop-color="#FE7F00"/>
</linearGradient>
<linearGradient id="paint29_linear_48_43" x1="220.51" y1="140.705" x2="212.453" y2="132.647" gradientUnits="userSpaceOnUse">
<stop offset="0.5" stop-color="#D6D6D6"/>
<stop offset="1" stop-color="#AAAAAA"/>
</linearGradient>
<linearGradient id="paint30_linear_48_43" x1="119.137" y1="216.012" x2="105.405" y2="202.28" gradientUnits="userSpaceOnUse">
<stop offset="0.25" stop-color="#CDDEF0"/>
<stop offset="0.5" stop-color="#E9F0FF"/>
<stop offset="1" stop-color="#9BB1C4"/>
</linearGradient>
<linearGradient id="paint31_linear_48_43" x1="149.799" y1="219.542" x2="133.25" y2="202.993" gradientUnits="userSpaceOnUse">
<stop offset="0.25" stop-color="#CDDEF0"/>
<stop offset="0.5" stop-color="#E9F0FF"/>
<stop offset="1" stop-color="#9BB1C4"/>
</linearGradient>
<linearGradient id="paint32_linear_48_43" x1="17.8875" y1="201.475" x2="10.8983" y2="194.485" gradientUnits="userSpaceOnUse">
<stop offset="0.25" stop-color="#CDDEF0"/>
<stop offset="0.5" stop-color="#E9F0FF"/>
<stop offset="1" stop-color="#9BB1C4"/>
</linearGradient>
<linearGradient id="paint33_linear_48_43" x1="137.873" y1="254.738" x2="33.0957" y2="149.961" gradientUnits="userSpaceOnUse">
<stop offset="0.5" stop-color="#636363"/>
<stop offset="1" stop-color="#878787"/>
</linearGradient>
<linearGradient id="paint34_linear_48_43" x1="35.5686" y1="205.54" x2="27.0066" y2="196.978" gradientUnits="userSpaceOnUse">
<stop offset="0.25" stop-color="#CDDEF0"/>
<stop offset="0.5" stop-color="#E9F0FF"/>
<stop offset="1" stop-color="#9BB1C4"/>
</linearGradient>
<linearGradient id="paint35_linear_48_43" x1="110.361" y1="174.492" x2="32.4694" y2="96.6009" gradientUnits="userSpaceOnUse">
<stop offset="0.5" stop-color="#FEE7A5"/>
<stop offset="1" stop-color="#FEBD57"/>
</linearGradient>
<linearGradient id="paint36_linear_48_43" x1="84.9759" y1="170.818" x2="33.4762" y2="119.318" gradientUnits="userSpaceOnUse">
<stop offset="0.25" stop-color="#CDDEF0"/>
<stop offset="0.5" stop-color="#E9F0FF"/>
<stop offset="1" stop-color="#9BB1C4"/>
</linearGradient>
<linearGradient id="paint37_linear_48_43" x1="383.626" y1="167.602" x2="270.548" y2="54.5241" gradientUnits="userSpaceOnUse">
<stop offset="0.5" stop-color="#FE9C0E"/>
<stop offset="1" stop-color="#FE7F00"/>
</linearGradient>
<linearGradient id="paint38_linear_48_43" x1="375.805" y1="157.752" x2="311.692" y2="93.6389" gradientUnits="userSpaceOnUse">
<stop offset="0.5" stop-color="#FEE7A5"/>
<stop offset="1" stop-color="#FEBD57"/>
</linearGradient>
<linearGradient id="paint39_linear_48_43" x1="371.4" y1="153.125" x2="284.121" y2="65.8457" gradientUnits="userSpaceOnUse">
<stop offset="0.5" stop-color="#EF5401"/>
<stop offset="1" stop-color="#DE2201"/>
</linearGradient>
<linearGradient id="paint40_linear_48_43" x1="249.203" y1="254.472" x2="198.426" y2="203.695" gradientUnits="userSpaceOnUse">
<stop offset="0.5" stop-color="#606060"/>
<stop offset="1" stop-color="#464646"/>
</linearGradient>
<linearGradient id="paint41_linear_48_43" x1="236.985" y1="242.682" x2="209.283" y2="214.98" gradientUnits="userSpaceOnUse">
<stop offset="0.5" stop-color="#636363"/>
<stop offset="1" stop-color="#878787"/>
</linearGradient>
<linearGradient id="paint42_linear_48_43" x1="241.863" y1="244.461" x2="211.399" y2="213.997" gradientUnits="userSpaceOnUse">
<stop offset="0.5" stop-color="#D6D6D6"/>
<stop offset="1" stop-color="#AAAAAA"/>
</linearGradient>
<linearGradient id="paint43_linear_48_43" x1="309.846" y1="236.936" x2="266.046" y2="193.136" gradientUnits="userSpaceOnUse">
<stop offset="0.5" stop-color="#606060"/>
<stop offset="1" stop-color="#464646"/>
</linearGradient>
<linearGradient id="paint44_linear_48_43" x1="299.435" y1="226.815" x2="275.501" y2="202.881" gradientUnits="userSpaceOnUse">
<stop offset="0.5" stop-color="#636363"/>
<stop offset="1" stop-color="#878787"/>
</linearGradient>
<linearGradient id="paint45_linear_48_43" x1="303.74" y1="228.221" x2="277.525" y2="202.006" gradientUnits="userSpaceOnUse">
<stop offset="0.5" stop-color="#D6D6D6"/>
<stop offset="1" stop-color="#AAAAAA"/>
</linearGradient>
<linearGradient id="paint46_linear_48_43" x1="382.125" y1="216.296" x2="347.617" y2="181.788" gradientUnits="userSpaceOnUse">
<stop offset="0.5" stop-color="#606060"/>
<stop offset="1" stop-color="#464646"/>
</linearGradient>
<linearGradient id="paint47_linear_48_43" x1="374.761" y1="209.967" x2="353.931" y2="189.137" gradientUnits="userSpaceOnUse">
<stop offset="0.5" stop-color="#636363"/>
<stop offset="1" stop-color="#878787"/>
</linearGradient>
<linearGradient id="paint48_linear_48_43" x1="376.792" y1="210.12" x2="355.103" y2="188.432" gradientUnits="userSpaceOnUse">
<stop offset="0.5" stop-color="#D6D6D6"/>
<stop offset="1" stop-color="#AAAAAA"/>
</linearGradient>
<linearGradient id="paint49_linear_48_43" x1="408.863" y1="207.427" x2="377.838" y2="176.402" gradientUnits="userSpaceOnUse">
<stop offset="0.5" stop-color="#606060"/>
<stop offset="1" stop-color="#464646"/>
</linearGradient>
<linearGradient id="paint50_linear_48_43" x1="403.604" y1="200.598" x2="385.706" y2="182.7" gradientUnits="userSpaceOnUse">
<stop offset="0.5" stop-color="#636363"/>
<stop offset="1" stop-color="#878787"/>
</linearGradient>
<linearGradient id="paint51_linear_48_43" x1="406.07" y1="200.396" x2="387.19" y2="181.516" gradientUnits="userSpaceOnUse">
<stop offset="0.5" stop-color="#D6D6D6"/>
<stop offset="1" stop-color="#AAAAAA"/>
</linearGradient>
</defs>
</svg>
