<svg width="146" height="350" viewBox="0 0 146 350" fill="none" xmlns="http://www.w3.org/2000/svg">
<path d="M110.701 219.023C116.211 212.962 121.721 207.085 127.415 201.024L128.517 199.738L128.15 201.391C126.864 207.636 125.395 213.513 123.742 219.207V219.574H123.374C119.334 219.758 115.109 219.758 111.069 219.941H109.967L110.701 219.023Z" fill="url(#paint0_linear_48_2)"/>
<path d="M89.7631 208.003L90.1304 208.37C92.1508 210.023 94.5384 211.125 97.2935 211.309H97.8445C98.9465 211.309 100.048 211.493 101.15 211.493C102.803 211.493 104.273 211.309 105.558 211.125C109.415 211.125 111.803 208.187 113.089 205.983C114.374 203.962 115.293 201.391 115.477 199.003C115.477 198.636 115.477 198.452 115.477 198.085V197.35C115.66 192.759 114.007 188.534 111.068 185.779L110.701 185.412L121.354 173.841H121.538C125.395 173.841 129.068 174.025 132.925 174.025H133.476L133.292 174.576C131.456 184.31 129.986 191.657 128.517 198.636V198.82L127.966 199.554C121.721 206.35 115.477 213.146 109.232 219.941L109.048 220.125H108.864C100.783 220.309 93.6201 220.309 86.8244 220.309C85.5387 220.309 84.0694 220.309 82.7837 220.492C81.6817 220.492 80.5797 220.492 79.4777 220.676H78.3757L89.7631 208.003Z" fill="#E8E8E8"/>
<path d="M50.091 170.719C49.54 170.719 49.1726 170.719 48.6216 170.719H48.2543V170.351C46.7849 163.005 45.1319 155.658 43.6626 148.311L43.4789 147.76H44.0299C45.8666 147.76 48.438 147.577 50.642 146.475L51.193 146.291L51.3766 146.842C52.846 154.372 54.499 161.903 55.9683 169.249V169.617L55.601 169.8C54.3153 170.168 52.295 170.719 50.091 170.719Z" fill="url(#paint1_linear_48_2)"/>
<path d="M31.7243 179.535C30.255 179.535 28.4183 179.351 27.1327 177.331C26.398 176.229 26.2143 174.759 26.7653 173.29C27.3163 171.086 29.8877 170.902 31.7243 170.902C32.0917 170.902 32.2753 170.902 32.6427 170.902L36.1324 170.719C39.2547 170.535 42.377 170.168 45.683 169.984H46.0504V170.351C46.6014 172.923 47.1524 175.31 47.7034 177.882L47.8871 178.433H47.336C44.2137 178.8 40.724 178.984 36.867 179.167C36.316 179.167 35.5813 179.351 34.8467 179.351C33.7447 179.351 32.6427 179.535 31.7243 179.535Z" fill="url(#paint2_linear_48_2)"/>
<path d="M43.4791 146.658C42.7444 142.801 42.0097 138.944 41.2751 135.087C40.1731 129.577 39.4384 124.618 38.8874 120.027V119.659H39.2547C39.8057 119.475 40.5404 119.475 41.0914 119.292C42.9281 118.924 44.5811 118.741 46.2341 118.19L46.7851 118.006V118.557C47.3361 124.618 48.4381 131.23 49.9074 138.761L51.3768 145.74L51.0094 145.924C48.6217 147.026 46.0504 147.209 44.0301 147.209H43.6627L43.4791 146.658Z" fill="#E8E8E8"/>
<path d="M100.967 133.434C99.6812 133.434 98.3955 133.434 97.2935 133.251H95.6405C84.4368 132.332 80.2125 121.496 80.9472 111.945C81.3145 106.619 84.0695 101.66 88.1102 98.9048C90.8652 97.0681 94.1712 96.8845 96.9262 96.8845C98.0282 96.8845 99.3139 96.8845 100.416 97.0681H102.069L100.967 97.8028C96.3752 101.109 93.4365 107.17 93.2529 114.517C93.0692 120.394 96.0079 128.659 101.151 132.516L102.253 133.434H100.967Z" fill="url(#paint3_linear_48_2)"/>
<path d="M107.212 132.7C103.538 132.7 99.8649 128.292 98.2119 125.537C96.3752 122.598 95.4569 119.108 95.4569 114.333C95.2732 105.7 100.232 98.5375 107.579 97.0681H107.763H107.946C111.252 97.8028 113.824 99.2721 116.028 101.843C118.966 105.517 120.436 111.027 119.885 116.72C119.885 116.904 119.885 117.088 119.885 117.272V117.639C118.783 124.802 114.742 130.312 109.048 132.516C108.314 132.7 107.763 132.7 107.212 132.7Z" fill="url(#paint4_linear_48_2)"/>
<path d="M57.9888 167.596C56.5195 160.433 55.0502 153.27 53.5808 145.924L53.2135 144.454L53.3972 144.271C59.6419 137.291 66.2539 130.312 72.4986 123.516L79.1106 116.353L79.2942 117.272C80.2126 124.802 83.8859 130.679 89.7633 133.434L90.3143 133.618L89.9469 133.985C87.1919 136.924 84.2533 140.046 81.4982 142.985C73.7842 151.25 66.0702 159.515 58.7235 167.78L58.1725 168.515L57.9888 167.596Z" fill="url(#paint5_linear_48_2)"/>
<path d="M58.3564 203.595C57.6217 203.595 56.7034 203.595 55.9687 203.411H55.6014V203.044C53.2137 193.31 51.0097 183.024 48.622 171.637L48.4384 171.086H48.9894C49.3567 171.086 49.724 171.086 49.9077 171.086C51.5607 171.086 53.3974 170.719 55.785 170.168L56.336 169.984L56.5197 170.535C58.7237 181.188 61.1114 191.84 63.4991 202.126V202.493L63.1317 202.677C61.6624 203.228 60.0094 203.595 58.3564 203.595Z" fill="#E8E8E8"/>
<path d="M64.9681 200.289C62.9478 191.657 60.9274 182.473 58.9071 172.923V172.555H59.4581C62.0295 172.372 64.6008 172.372 67.5395 172.372C73.0495 172.372 78.5595 172.555 84.0695 172.923C86.0898 172.923 88.2939 173.106 90.3142 173.106H91.2325L87.1919 177.514C80.0288 185.228 72.8658 192.942 65.7028 200.656L65.1518 201.391L64.9681 200.289Z" fill="#E8E8E8"/>
<path d="M67.172 226.186C64.6007 226.002 61.4784 225.451 60.3764 222.696C59.6417 220.86 59.2744 219.023 58.907 217.186C58.907 217.186 58.5397 215.35 58.356 214.799C57.4377 211.309 56.703 208.003 55.7847 204.513L55.601 203.779L56.3357 203.962C56.8867 204.146 57.6214 204.146 58.1724 204.146C59.8254 204.146 61.4784 203.779 62.9477 203.228L63.4987 203.044C63.4987 203.044 65.1517 210.391 65.3354 210.942C66.07 214.064 66.8047 217.37 68.6414 219.574C70.2944 221.411 71.9474 221.778 74.1514 221.962H75.6207L74.3351 222.696C72.4984 223.798 70.2944 225.084 67.7231 225.819C67.5394 225.819 67.5394 225.819 67.5394 226.002L67.3557 226.37L67.172 226.186Z" fill="url(#paint6_linear_48_2)"/>
<path d="M77.4574 220.309C75.4371 220.309 73.7841 220.125 72.3147 219.758C69.0087 219.023 67.7231 212.778 66.9884 208.738C66.8047 208.003 66.8047 207.452 66.6211 206.901C66.4374 205.983 66.2537 205.064 65.8864 203.962L65.3354 201.758L65.5191 201.575C72.4984 194.044 79.4778 186.33 86.4571 178.8L91.7835 172.923H91.9671C93.0691 172.923 94.3548 172.923 95.4568 173.106C100.048 173.106 104.457 173.29 109.048 173.474C112.538 173.474 120.619 173.657 120.619 173.657L110.334 184.861L109.967 184.677C108.681 183.759 107.212 183.208 105.559 182.841H105.375C104.64 182.657 103.906 182.657 103.354 182.657C102.62 182.657 101.885 182.657 101.15 182.657C100.416 182.657 99.6812 182.657 98.9465 182.657C95.8241 182.657 92.7018 183.024 89.9468 185.045C87.3755 187.065 85.5388 190.371 85.1715 194.412C84.6204 199.371 86.0898 204.33 88.8448 207.452L89.2121 207.819L88.8448 208.187C85.1715 212.227 81.3144 216.268 77.6411 220.309L77.4574 220.492V220.309Z" fill="url(#paint7_linear_48_2)"/>
<path d="M104.64 209.105C99.8651 209.105 97.2938 200.473 97.1101 197.167C96.7428 191.106 100.049 185.963 105.191 184.861H105.375H105.559C107.763 185.412 109.783 186.514 111.069 188.351C112.905 190.738 113.824 194.228 113.64 197.901C113.64 198.269 113.64 198.636 113.456 199.003C112.722 203.779 109.967 207.452 106.11 208.921C105.742 209.105 105.191 209.105 104.64 209.105Z" fill="url(#paint8_linear_48_2)"/>
<path d="M97.11 209.289C89.7633 208.554 86.8247 201.575 87.192 195.146C87.3757 191.473 89.0287 188.167 91.7837 186.33C93.804 184.861 96.1917 184.677 98.212 184.677C98.763 184.677 99.1304 184.677 99.6814 184.677H100.783L99.865 185.412C96.9263 187.983 95.2733 192.208 95.2733 197.167C95.2733 200.656 96.9263 205.799 100.049 208.738L100.967 209.656L97.11 209.289Z" fill="url(#paint9_linear_48_2)"/>
<path d="M133.476 172.004C128.701 172.004 123.742 171.821 118.966 171.821H117.864L137.7 150.332C137.7 150.332 136.598 156.76 136.047 159.331C135.313 163.556 133.66 172.188 133.66 172.188L133.476 172.004Z" fill="#E8E8E8"/>
<path d="M110.15 171.453C105.742 171.27 101.518 171.27 97.1098 171.086C94.3548 171.086 91.4162 170.902 88.4775 170.719H87.5591L88.2938 169.984C96.7425 160.801 105.191 151.801 113.64 142.618C123.558 131.965 133.292 121.312 143.21 110.659L144.129 109.741L143.945 111.027C143.578 114.884 143.027 118.557 142.476 122.231C142.292 123.516 142.108 124.986 141.925 126.271C140.823 133.067 139.721 140.23 138.251 148.862V149.046L117.313 171.637L110.15 171.453Z" fill="url(#paint10_linear_48_2)"/>
<path d="M84.9877 170.719C79.294 170.535 73.6004 170.168 67.723 170.168C64.417 170.168 61.4783 170.168 58.7233 170.351H58.356L57.9886 168.882L58.1723 168.698C65.7027 160.25 73.6004 151.801 81.3144 143.536C84.2531 140.23 87.3754 137.108 90.3141 133.802L90.4977 133.618L90.8651 133.802C92.5181 134.353 93.9874 134.72 95.6404 134.904H96.7424C98.2118 134.904 99.8648 135.087 101.518 135.087C103.905 135.087 105.926 134.904 107.762 134.536C112.905 134.353 116.211 130.679 118.048 127.373C119.884 124.618 121.17 121.129 121.537 117.639C121.537 117.271 121.537 116.904 121.537 116.537V116.353C121.537 116.353 121.538 115.619 121.721 115.435C122.089 111.21 121.17 106.802 119.15 103.313L118.966 102.945L119.15 102.762C120.803 100.925 122.639 99.0885 124.292 97.2518C128.701 92.4764 133.292 87.7011 137.517 82.7421L138.068 82.1911L138.435 82.9257C141.741 90.0888 143.578 97.6191 143.945 105.149C143.945 106.251 143.945 107.353 143.945 108.823V109.006L143.761 109.19C133.66 120.21 123.374 131.23 113.272 142.067C104.64 151.801 95.8241 161.168 87.0081 170.719L86.8244 170.902L84.9877 170.719Z" fill="#E8E8E8"/>
<path d="M118.415 102.394C115.844 98.5375 112.171 95.9661 107.763 95.2315H107.395H107.212C106.293 95.0478 105.375 95.0478 104.64 95.0478V94.4968V95.0478C103.538 95.0478 102.62 95.0478 101.518 95.0478H98.9466L99.6813 94.3131C108.314 84.9461 117.13 75.5791 125.762 66.0284L126.129 65.661L126.497 66.0284C131.088 70.6201 134.945 75.9464 137.884 81.8238L138.068 82.0074L137.7 82.1911C133.292 87.3338 128.701 92.2928 124.109 97.0681C122.456 98.9048 120.803 100.558 119.15 102.394L118.783 102.762L118.415 102.394Z" fill="url(#paint11_linear_48_2)"/>
<path d="M52.8462 142.985C51.1932 134.536 49.3565 125.537 48.6218 116.353V116.169L48.8055 115.986C61.8459 101.843 75.0699 87.5174 87.9266 73.5587C94.1713 66.763 100.416 60.151 106.661 53.3553L106.844 53.1716L107.946 53.539C114.375 56.1103 120.252 59.7836 125.395 64.7427L125.762 65.11L125.395 65.4773C116.395 75.2117 107.395 84.9461 98.3956 94.6804L98.212 94.8641H98.0283C94.1713 94.8641 89.9469 95.2314 86.2736 97.8028C81.8656 100.741 79.6616 106.435 79.1106 110.659C78.9269 112.129 78.9269 113.782 78.9269 115.435V115.618C78.9269 115.618 74.3352 120.577 71.9476 123.149C65.8865 129.761 59.4582 136.557 53.3972 143.352L52.8462 144.087V142.985Z" fill="#E8E8E8"/>
<path d="M48.2545 114.516C47.5199 103.496 48.2545 93.9457 50.8259 85.6807V85.4971C57.8052 77.783 64.9683 70.069 71.9476 62.5387C74.7026 59.6 77.274 56.845 80.029 53.9063H80.2126C84.8043 52.2533 89.5797 51.335 93.9877 51.335C94.5387 51.335 95.0897 51.335 95.6407 51.335C98.763 51.5186 102.069 52.0696 105.191 52.988L105.926 53.1716L105.375 53.7226C99.314 60.3347 93.253 66.9467 87.0083 73.375C74.3353 86.9664 61.4786 100.925 48.6219 114.884L47.8872 115.618L48.2545 114.516Z" fill="url(#paint12_linear_48_2)"/>
<path d="M52.1115 82.0074C53.5808 78.1504 55.4175 74.477 57.6215 71.171C62.2131 64.1917 69.1925 58.498 77.0902 54.8246L77.6412 55.5593L72.3148 61.253C66.0702 68.2324 59.2745 75.3954 52.8461 82.5584L52.1115 82.0074Z" fill="#E8E8E8"/>
<path d="M44.7648 58.1306L45.1322 57.947C51.3769 55.7429 57.8052 54.4573 64.0499 54.4573L64.2336 55.3756C56.8869 59.2326 50.4585 64.9263 45.6832 71.722L44.7648 72.824V58.1306Z" fill="url(#paint13_linear_48_2)"/>
<path d="M38.7037 118.557C37.7853 109.557 37.969 101.476 38.8873 93.7621C41.0913 77.0484 52.8461 62.355 70.1108 54.8246C71.3964 54.2736 72.4984 53.7226 73.7841 53.3553C74.8861 52.988 75.9881 52.6206 77.2738 52.2533L77.6411 53.1716C73.4168 54.8246 69.5598 57.2123 65.8864 60.151C50.8257 71.9057 44.581 90.6397 46.785 117.088V117.455H46.4177C44.581 118.19 42.7444 118.373 40.724 118.741C40.173 118.741 38.7037 119.108 38.7037 119.108V118.557Z" fill="url(#paint14_linear_48_2)"/>
<path d="M22.9082 139.128C21.4389 139.128 19.6022 138.944 18.3166 136.924C17.5819 135.822 17.3982 134.353 17.9492 132.883C18.5002 130.679 21.0716 130.496 22.9082 130.496C23.2756 130.496 23.4592 130.496 23.8266 130.496L27.6836 130.128C30.9896 129.945 34.4793 129.577 37.7853 129.394H38.1526L38.3363 129.761C38.7036 132.332 39.8056 137.842 39.8056 137.842H39.2546C35.0303 138.21 30.9896 138.577 27.8672 138.761C27.3162 138.761 26.5816 138.944 25.8469 138.944C24.9286 138.944 23.8266 139.128 22.9082 139.128Z" fill="url(#paint15_linear_48_2)"/>
<path d="M2.52123 119.292C2.33757 115.802 2.33757 112.496 2.52123 109.374C3.8069 89.7214 13.5413 72.6404 29.153 62.5387L29.8876 62.1714V64.3754L29.704 64.559C15.7453 75.5791 7.48025 92.8438 6.56191 113.231C6.56191 115.068 6.56191 116.904 6.56191 118.925V119.476H6.01091C5.09257 119.476 3.99057 119.476 3.07224 119.843L2.52123 120.027V119.292Z" fill="url(#paint16_linear_48_2)"/>
<path d="M7.1131 147.026C6.5621 144.822 6.19477 142.434 5.64377 140.23C4.3581 133.985 3.07242 127.373 2.52142 120.761V120.21H3.07243C3.99076 119.843 5.09276 119.843 6.19477 119.843H6.5621V120.21C7.1131 127.924 8.76611 135.822 10.4191 143.352C10.9701 145.556 11.3374 147.944 11.8884 150.148L12.0721 150.699H11.5211C10.4191 150.699 9.50078 150.883 8.58244 151.066L8.21511 151.25L7.1131 147.026Z" fill="#E8E8E8"/>
<path d="M16.2965 174.392C15.9292 174.392 15.5618 174.208 15.0108 174.208C14.4598 174.208 14.0925 174.208 13.5415 174.208L12.8068 174.392V174.025C11.3375 166.862 9.68449 159.515 8.21515 152.352V151.985L8.58248 151.801C9.68449 151.617 10.7865 151.434 11.7048 151.434H12.0722V151.801C13.5415 159.148 15.0108 166.494 16.6638 173.841L16.8475 174.576L16.2965 174.392Z" fill="url(#paint17_linear_48_2)"/>
<path d="M19.2352 203.962C17.7658 197.718 16.4802 191.473 15.0108 185.045C14.6435 183.024 14.0925 181.004 13.7252 178.984L12.8068 174.759H13.3578C13.9088 174.759 14.4598 174.576 14.8272 174.576C15.3782 174.576 15.7455 174.576 16.1128 174.759L16.6638 174.576L17.0312 175.127C19.0515 184.861 21.0718 194.228 23.2759 203.411L23.4595 203.962H22.9085C21.8065 203.962 20.8882 203.962 19.9698 204.146H19.6025L19.2352 203.962Z" fill="#E8E8E8"/>
<path d="M28.2346 225.451C23.0919 223.247 21.9899 217.003 20.8879 211.309C20.7042 210.207 20.5206 209.105 20.1532 208.003L19.4186 204.881L19.9696 204.697C20.8879 204.513 21.9899 204.513 22.9083 204.513H23.4593V204.881C23.8266 206.35 24.0103 207.819 24.3776 209.472C25.2959 214.615 26.3979 220.492 28.7856 224.717L29.5203 226.002L28.2346 225.451Z" fill="url(#paint18_linear_48_2)"/>
<path d="M37.969 226.553C31.357 226.553 29.5203 221.043 28.2347 216.084C26.398 208.554 24.745 201.024 23.2756 194.595C20.1533 179.902 16.8473 164.658 13.5413 148.128C13.174 146.291 12.8066 144.454 12.4393 142.618C10.6026 134.169 8.76594 125.537 8.58227 116.904C8.03127 97.2518 15.5616 79.2524 29.153 67.314L29.8877 66.5793V73.926L29.704 74.1097C20.337 81.6401 15.378 91.9254 13.725 106.802C13.174 112.129 12.9903 116.72 17.582 118.924C18.3166 119.292 19.0513 119.475 19.9696 119.475C20.7043 119.475 21.439 119.292 22.1736 119.292H22.7246C26.7653 118.741 30.9897 118.373 35.9487 118.006H36.316V118.373C36.6834 121.128 37.0507 123.884 37.6017 126.822V127.373H37.0507C34.8467 127.557 32.6427 127.741 30.4387 127.924C26.7653 128.108 23.092 128.292 19.4186 128.843C18.3166 129.026 17.2146 129.577 16.48 130.679C15.5616 131.965 15.1943 133.802 15.378 135.271C15.929 138.577 18.133 140.781 21.2553 140.965C21.6226 140.965 22.1736 140.965 22.541 140.965C23.8266 140.965 25.296 140.781 26.5817 140.597C27.5 140.414 28.602 140.414 29.3367 140.23C32.8263 140.046 36.1324 139.679 39.2547 139.495H39.622V139.863C41.275 149.23 43.1117 158.413 44.9484 167.045L45.132 167.596H44.581C42.7444 167.78 40.9077 167.78 39.071 167.964C35.3977 168.147 31.7243 168.331 28.051 168.882C26.949 169.066 25.847 169.617 25.1123 170.719C24.194 172.004 23.8266 173.841 24.0103 175.31C24.5613 178.616 26.7653 180.82 29.8877 181.004C30.255 181.004 30.806 181.004 31.1733 181.004C32.459 181.004 33.9283 180.82 35.214 180.637C36.1324 180.453 37.2344 180.453 37.969 180.269C41.0914 180.086 44.2137 179.902 47.336 179.535H47.7034V179.902C49.5401 188.534 51.5604 196.799 53.5807 204.881L53.7644 205.432H53.2134C51.1931 205.615 48.9891 205.615 46.9687 205.799C43.2954 205.983 39.622 206.166 35.9487 206.717C32.6427 207.268 30.806 209.84 31.1733 213.329C31.5407 216.084 33.9283 219.207 36.867 219.207C41.4587 219.023 46.0504 218.656 49.5401 218.472H50.0911V219.023C49.9074 221.043 49.9074 222.88 49.9074 224.9V225.268H49.5401C44.9484 225.635 41.4587 226.002 38.1527 226.002C38.3364 226.553 38.1527 226.553 37.969 226.553Z" fill="url(#paint19_linear_48_2)"/>
<path d="M21.6227 117.271C19.6023 117.271 18.133 116.72 17.2147 115.435C14.827 112.68 15.5617 107.353 16.1127 103.129V102.762C17.582 92.1091 21.99 83.6604 29.153 77.232L29.8877 76.4974V83.2931C29.8877 94.1294 29.8877 105.149 29.8877 115.986V116.353H29.5204C27.3164 116.537 25.296 116.72 23.092 117.088C22.3573 117.271 21.99 117.271 21.6227 117.271Z" fill="url(#paint20_linear_48_2)"/>
<path d="M39.2547 217.921C36.867 217.921 35.0304 217.186 34.112 215.717C33.1937 214.248 33.01 212.962 33.561 211.86C34.663 209.84 37.9691 209.289 41.2751 209.105H42.5607C46.4177 208.921 50.4584 208.554 54.3154 208.187H54.6828L54.8664 208.554C55.4174 211.125 56.1521 213.513 56.7031 216.084L56.8868 216.635H56.3358C53.0298 217.003 49.3564 217.186 45.4994 217.554C44.7647 217.554 44.0301 217.737 43.2954 217.737C41.8261 217.737 40.5404 217.921 39.2547 217.921Z" fill="url(#paint21_linear_48_2)"/>
<path d="M88.2938 310.673C86.0898 310.673 83.7021 310.122 81.1308 309.02C79.4778 308.285 78.0084 307.367 76.5391 305.898L76.1717 305.53L76.7227 305.163C81.4981 302.224 86.2734 298.367 86.2734 291.204C86.2734 284.776 81.8654 277.98 77.6411 272.287C75.4371 269.164 73.0494 266.042 70.6617 263.103C60.3764 249.879 50.8257 237.39 52.4787 219.207V218.84L57.254 218.289C57.254 218.289 58.1724 221.595 58.356 222.146C59.8254 227.288 64.0497 227.839 68.6414 228.207H69.0087V228.574C70.6617 244.186 78.5594 255.573 86.0898 264.573C91.5998 271.185 96.0078 277.98 99.4975 285.511C102.436 291.939 102.252 299.469 98.9465 304.612C96.5588 308.469 92.7018 310.673 88.2938 310.673Z" fill="url(#paint22_linear_48_2)"/>
<path d="M87.3757 347.59C74.1516 347.59 61.1113 341.896 52.4789 332.346C45.8669 325.183 43.1119 315.265 40.5405 306.449C39.2549 301.857 37.6019 297.082 36.1325 292.674C35.0305 289.368 33.9285 286.245 33.0102 282.939C32.4592 280.919 32.4592 279.45 33.1939 278.164L33.5612 277.613L33.9285 278.164C40.5405 285.694 43.6629 295.061 46.6016 304.061C48.6219 309.938 50.4586 315.816 53.3973 321.326C59.8256 333.448 71.9476 340.427 86.641 340.427C87.5594 340.427 88.6614 340.427 89.5797 340.243C103.906 339.325 117.497 331.795 125.211 320.591C127.048 318.02 128.517 315.081 129.803 311.959L130.721 312.326C127.231 324.264 119.517 334.917 109.232 341.345C102.804 345.386 95.2734 347.59 87.3757 347.59Z" fill="url(#paint23_linear_48_2)"/>
<path d="M84.9879 339.876C77.4575 339.692 70.2945 337.488 64.2335 333.264C58.7235 329.407 54.3155 323.346 50.8258 314.346C49.3564 310.857 48.2544 307.183 46.9688 303.694C44.0301 294.694 40.9078 285.327 34.2957 277.797L33.9284 277.429L34.2957 277.062C35.2141 276.327 36.6834 276.144 38.5201 276.144C43.1118 276.144 49.3564 278.348 51.5605 279.633C55.7848 282.021 59.6418 285.511 63.3152 290.653C64.6008 292.49 65.8865 294.51 67.1722 296.347C70.1108 300.755 73.0495 305.347 77.0902 309.02C80.0289 311.591 83.8859 312.877 87.9266 312.877C94.9059 312.877 100.783 309.02 102.804 302.959C107.946 288.082 94.7222 271.919 87.5592 263.287C80.0289 254.103 72.6822 243.451 71.0292 228.941V228.39H71.5802C74.5189 228.39 77.4575 228.574 81.1309 228.574C84.0695 228.574 87.0082 228.574 89.7632 228.574H96.0079V228.941C97.4772 241.247 108.13 252.083 116.762 260.715L118.232 262.185C127.966 271.919 132.925 284.776 132.741 298.918C131.823 307.183 128.517 315.448 123.742 322.244C115.844 333.08 100.967 340.243 85.9062 340.243L84.9879 339.876Z" fill="url(#paint24_linear_48_2)"/>
<path d="M82.233 226.37C77.825 226.37 74.1516 226.37 70.6619 226.186L70.4783 225.268C72.6823 224.35 74.8863 223.064 76.723 221.778H76.9066H77.825C81.4983 221.962 85.539 221.962 89.7633 221.962C94.7223 221.962 99.865 221.962 106.293 221.778H107.395L106.661 222.513C105.742 223.431 104.824 224.166 104.089 225.084L103.171 225.819L102.987 226.003H102.804C97.4773 226.186 92.3347 226.186 87.0083 226.186C85.3553 226.37 83.7023 226.37 82.233 226.37Z" fill="#E8E8E8"/>
<path d="M104.457 225.268C105.742 224.166 106.844 223.064 107.763 221.962L107.946 221.778H108.13C112.905 221.595 117.681 221.594 122.456 221.411H123.191L123.007 222.145C121.721 225.635 116.579 226.186 111.62 226.186C110.885 226.186 110.334 226.186 109.783 226.186C109.232 226.186 108.681 226.186 108.314 226.186C108.13 226.186 103.722 226.186 103.722 226.186L104.457 225.268Z" fill="url(#paint25_linear_48_2)"/>
<path d="M121.17 58.498C118.048 56.294 114.742 54.4573 111.252 52.988L110.885 52.8043V52.437C110.885 35.7233 110.885 19.0096 110.885 2.29584V1.74484H111.436C115.477 1.74484 118.599 1.74484 121.538 1.92851H121.905V2.29584C121.905 20.8462 121.905 39.3966 121.905 57.947V58.8653L121.17 58.498Z" fill="url(#paint26_linear_48_2)"/>
<path d="M31.7244 115.802C31.7244 96.8844 31.7244 77.9667 31.9081 59.049C31.9081 40.1313 32.0918 21.2136 32.0918 2.29584V1.92851H32.4591C33.1938 1.74484 34.2958 1.74484 35.3978 1.74484C36.8671 1.74484 38.3365 1.74484 39.8058 1.92851C40.7241 1.92851 41.6425 2.11218 42.5608 2.11218H42.9281V2.47951C42.9281 27.0909 42.9281 51.5186 42.7445 76.13V76.3137V76.4974C41.0915 79.2524 39.8058 82.1911 38.8875 84.9461C35.9488 93.3948 35.0304 103.864 36.1325 115.802V116.353H35.5814C34.4794 116.353 33.3774 116.537 32.2754 116.537H31.5408V115.802H31.7244Z" fill="url(#paint27_linear_48_2)"/>
<path d="M125.395 222.696C132.741 196.616 137.149 169.433 141.741 142.618C145.414 120.577 150.006 100.19 139.353 79.0687C135.496 71.5384 130.354 65.11 124.476 60.3347C124.476 40.6823 124.476 21.0299 124.66 1.3775C124.66 -0.459168 121.721 -0.459168 121.721 1.3775C121.721 20.2952 121.721 39.2129 121.538 58.1307C118.415 55.9267 114.926 54.09 111.436 52.437C111.436 35.3559 111.436 18.2749 111.436 1.3775C111.436 -0.459168 108.497 -0.459168 108.497 1.3775C108.497 18.0912 108.497 34.8049 108.497 51.335C96.3752 47.1106 82.7838 47.1106 69.7435 52.2533C67.9068 52.0696 66.0701 52.0696 64.0498 52.0696C63.8661 52.0696 63.6825 51.886 63.6825 51.886C57.4378 51.335 51.3767 51.7023 45.3157 53.1716C45.3157 35.9069 45.3157 18.6422 45.4994 1.3775C45.4994 -0.459168 42.5607 -0.459168 42.5607 1.3775C42.5607 26.3562 42.5607 51.1513 42.3771 76.1301C40.9077 78.8851 39.4384 81.6401 38.52 84.5787C35.214 94.1294 34.663 105.149 35.765 115.618C34.663 115.618 33.3774 115.802 32.2754 115.986C32.2754 77.7831 32.459 39.5803 32.459 1.3775C32.459 -0.459168 29.5204 -0.459168 29.5204 1.3775C29.5204 20.8462 29.5204 40.1313 29.3367 59.6C13.3576 69.1507 3.80695 84.9461 0.868272 103.313C-1.33573 116.169 1.05194 128.292 3.62328 140.965C7.11296 158.413 10.7863 175.861 14.4596 193.126C16.2963 201.391 18.133 209.656 20.1533 217.737C21.99 225.084 24.745 228.757 32.8264 228.574H33.01C38.1527 230.227 45.6831 228.757 50.0911 228.206C51.3767 239.594 56.7031 249.512 63.8661 258.879C68.8251 265.307 74.1515 271.185 78.3758 278.164C80.3962 281.47 82.0492 284.96 83.1512 288.633C85.1715 295.612 80.0288 300.204 74.7025 303.326C71.0291 299.102 68.2741 293.408 65.3355 289.184C61.2948 283.123 55.0501 277.429 48.0707 274.858C42.7444 273.021 35.9487 271.919 31.5407 276.144C28.051 279.45 31.5407 286.245 32.8264 289.551C38.7037 304.612 40.173 321.142 50.6421 333.999C60.3764 345.753 79.2942 351.998 94.1712 349.427C121.17 344.651 136.966 317.836 134.762 291.572C133.843 281.286 129.803 271.552 123.191 263.654C114.558 253.185 100.049 243.084 98.3955 228.757C103.538 228.757 108.865 228.574 114.007 228.39C118.599 228.023 123.742 227.472 125.395 222.696ZM123.374 219.023C119.334 219.207 115.109 219.207 111.069 219.39C116.579 213.329 122.089 207.452 127.782 201.391C126.313 207.268 124.844 213.146 123.374 219.023ZM128.333 198.452C121.905 205.432 115.477 212.411 109.048 219.39C101.702 219.574 94.3549 219.574 87.0082 219.574C84.6205 219.574 82.0492 219.758 79.4778 219.758C82.9675 216.084 86.2735 212.411 89.7632 208.738C91.5999 210.391 94.1712 211.493 97.1099 211.86C99.8649 212.044 102.804 212.227 105.559 211.676C109.048 211.676 111.803 209.289 113.456 206.166C114.926 203.962 115.66 201.575 116.028 199.003C116.028 198.636 116.028 198.269 116.028 197.901C116.028 197.718 116.028 197.534 116.028 197.167C116.211 192.759 114.558 188.167 111.436 185.228C114.742 181.555 118.232 177.882 121.538 174.208C125.395 174.208 129.068 174.392 132.925 174.392C131.456 182.473 129.986 190.555 128.333 198.452ZM44.2137 148.128C46.6014 148.128 48.8054 147.76 51.0094 146.842C52.4787 154.372 54.1318 161.903 55.6011 169.249C53.3971 169.984 51.0094 170.535 48.6217 170.168C47.1524 162.821 45.6831 155.474 44.2137 148.128ZM47.1524 177.882C43.6627 178.249 40.173 178.433 36.6834 178.616C33.561 178.8 29.5204 180.269 27.5 177.147C26.7653 176.045 26.7653 174.576 27.1327 173.474C27.6837 171.27 30.806 171.453 32.6427 171.453C37.0507 171.086 41.2751 170.902 45.6831 170.351C46.0504 172.739 46.6014 175.31 47.1524 177.882ZM44.0301 146.658C43.2954 142.801 42.5607 138.944 41.8261 135.087C40.9077 129.945 39.9894 124.986 39.4384 120.027C41.8261 119.659 44.2137 119.475 46.4177 118.557C47.1524 125.537 48.2544 132.332 49.5401 138.761C49.9074 140.965 50.4584 143.169 50.8257 145.373C48.6217 146.291 46.2341 146.475 44.0301 146.658ZM92.8855 114.516C92.7019 120.21 95.6405 128.843 100.967 133.067C99.1302 133.067 97.2935 132.883 95.6405 132.883C84.9878 131.965 80.7635 121.68 81.4982 112.129C81.8655 107.17 84.2532 102.394 88.4775 99.4558C91.9672 97.0681 96.5589 97.4354 100.783 97.6191C95.6405 101.109 93.0692 107.721 92.8855 114.516ZM107.579 97.6191C110.885 98.3538 113.456 100.007 115.477 102.211C118.415 106.068 119.701 111.578 119.334 116.72C119.334 116.904 119.334 117.271 119.334 117.455C118.415 123.884 114.742 129.761 108.681 131.965C104.824 133.251 100.416 127.924 98.7629 125.353C96.7425 122.047 96.1915 118.19 96.0079 114.333C95.6405 106.802 99.6812 99.2721 107.579 97.6191ZM89.3959 133.985C79.1105 145.005 68.4578 156.209 58.3561 167.413C56.8868 160.25 55.4174 153.087 53.9481 145.74C53.9481 145.373 53.7644 144.822 53.7644 144.454C62.0294 135.271 70.4781 126.271 78.9268 117.271C79.4778 124.435 83.1512 130.863 89.3959 133.985ZM55.9684 170.719C58.1724 181.188 60.5601 191.84 62.9478 202.309C60.7438 203.228 58.3561 203.595 55.9684 203.044C53.5808 192.575 51.1931 182.106 48.9891 171.821C51.3767 171.821 53.7644 171.27 55.9684 170.719ZM59.4581 172.923C69.5598 172.372 80.0288 173.106 90.3142 173.474C82.0492 182.473 73.7841 191.289 65.5191 200.289C63.4988 191.106 61.4784 182.106 59.4581 172.923ZM63.3151 203.595C63.6825 205.432 64.2335 207.452 64.6008 209.289C65.3355 212.778 66.0701 217.003 68.4578 219.758C70.2945 221.594 72.1311 222.145 74.3352 222.145C72.3148 223.431 70.1108 224.533 67.7231 225.084C67.5395 225.084 67.3558 225.268 67.3558 225.451C64.7845 225.268 62.0294 224.717 61.1111 222.329C60.3764 220.492 60.0091 218.472 59.4581 216.452V216.268C59.2744 215.717 59.0908 214.982 59.0908 214.431C58.1724 210.942 57.4378 207.636 56.5194 204.146C58.7234 204.881 61.1111 204.513 63.3151 203.595ZM72.4985 219.39C69.0088 218.656 67.9068 210.207 67.1721 206.901C66.8048 205.248 66.4375 203.595 66.0701 201.942C74.7025 192.391 83.5185 183.024 92.3345 173.474C93.4365 173.474 94.7222 173.474 95.8242 173.657C103.906 173.841 111.803 174.025 119.885 174.208C116.762 177.514 113.64 181.004 110.518 184.31C109.232 183.392 107.763 182.657 105.926 182.473C105.742 182.473 105.742 182.473 105.559 182.473C105.008 182.29 104.273 182.29 103.538 182.29C98.7629 182.29 93.8039 181.555 89.9469 184.677C87.0082 186.881 85.3552 190.738 84.9878 194.228C84.4368 199.187 85.7225 204.33 88.8449 207.636C85.1715 211.676 81.3145 215.717 77.6412 219.758C75.8045 219.758 73.9678 219.574 72.4985 219.39ZM97.6609 197.167C97.2935 191.84 100.049 186.514 105.375 185.412C107.579 185.963 109.416 187.065 110.701 188.718C112.538 191.289 113.273 194.779 113.089 198.085C113.089 198.452 113.089 198.82 112.905 199.187C112.171 203.411 109.783 207.268 105.926 208.738C100.783 210.391 97.8446 200.289 97.6609 197.167ZM99.6812 209.105C98.7629 209.105 98.0282 209.105 97.1099 208.921C90.1305 208.37 87.1919 201.575 87.5592 195.146C87.7429 191.84 89.2122 188.534 91.9672 186.514C93.9875 185.045 96.7425 184.861 99.4976 185.045C96.1915 187.8 94.7222 192.391 94.7222 196.983C94.7222 200.84 96.5589 205.983 99.6812 209.105ZM135.864 159.148C135.129 163.372 134.394 167.413 133.66 171.637C128.884 171.637 123.925 171.453 119.15 171.453C125.211 164.841 131.272 158.413 137.333 151.801C136.598 154.189 136.231 156.576 135.864 159.148ZM141.19 126.455C140.088 133.985 138.802 141.516 137.517 149.046C130.721 156.393 123.925 163.739 116.946 171.27C110.334 171.086 103.722 170.902 97.1099 170.719C94.3549 170.719 91.4162 170.535 88.4775 170.351C106.661 150.515 125.027 130.863 143.21 111.21C143.027 116.353 142.108 121.496 141.19 126.455ZM143.578 105.333C143.578 106.435 143.578 107.721 143.578 109.006C124.66 129.577 105.559 149.964 86.6409 170.351C77.2738 169.984 67.9068 169.433 58.9071 169.984C58.9071 169.8 58.7234 169.433 58.7234 169.249C69.1925 157.495 80.0288 146.107 90.8652 134.536C92.3345 135.087 93.9875 135.455 95.8242 135.638C99.6812 135.822 104.089 136.189 107.946 135.271C112.538 135.087 116.211 131.965 118.415 127.924C120.436 124.986 121.538 121.68 122.089 118.006C122.089 117.639 122.089 117.088 122.272 116.72C122.272 116.353 122.272 116.169 122.456 115.802C122.823 111.394 121.905 106.986 119.885 103.313C126.129 96.7008 132.374 90.0888 138.435 83.2931C141.374 90.2724 143.21 97.6191 143.578 105.333ZM137.333 82.0074C131.456 88.9868 125.027 95.4151 118.783 102.211C116.395 98.5374 112.722 95.7824 107.946 94.8641C107.763 94.8641 107.763 94.8641 107.579 94.8641C107.579 94.8641 107.579 94.8641 107.395 94.8641C106.477 94.6804 105.742 94.6804 104.64 94.6804C102.987 94.6804 101.334 94.6804 99.8649 94.6804C108.497 85.3134 117.313 75.9464 125.946 66.3957C130.721 70.8037 134.578 76.1301 137.333 82.0074ZM107.763 54.09C114.191 56.6613 120.068 60.5183 125.027 65.2937C116.028 75.028 107.028 84.7624 98.0282 94.4968C93.8039 94.4968 89.5795 95.0478 86.0899 97.4354C81.8655 100.374 79.4778 105.7 78.7432 110.659C78.5595 112.312 78.5595 113.782 78.5595 115.435C70.1108 124.618 61.4784 133.618 53.2134 142.801C51.3767 134.169 49.7237 125.169 48.9891 116.353C68.0905 95.4151 87.5592 74.6607 107.028 53.7227C107.212 53.9063 107.395 53.9063 107.763 54.09ZM95.8242 51.5186C99.1302 51.7023 102.253 52.2533 105.375 53.1716C86.4572 73.5587 67.5395 93.9458 48.8054 114.333C48.0707 104.598 48.4381 94.8641 51.3767 85.6807C60.9274 75.028 70.8455 64.559 80.5798 54.09C85.5388 52.2533 90.6815 51.335 95.8242 51.5186ZM52.4788 82.1911C53.9481 78.5177 55.6011 75.028 57.9888 71.5384C62.5804 64.7427 69.5598 58.8653 77.2738 55.3757C69.0088 64.3754 60.7438 73.1914 52.4788 82.1911ZM45.3157 58.498C51.3767 56.294 57.6214 55.0083 64.0498 55.0083C56.7031 59.049 50.0911 64.7427 45.3157 71.5384C45.3157 67.1304 45.3157 62.7223 45.3157 58.498ZM39.4384 93.7621C41.8261 75.9464 54.4991 62.1713 70.4781 55.192C70.4781 55.192 70.4781 55.192 70.6618 55.192C71.7638 54.641 73.0495 54.2737 74.1515 53.7227C75.2535 53.3553 76.3555 52.988 77.6412 52.6207C73.6005 54.2737 69.5598 56.6613 65.7028 59.6C47.7034 73.7424 44.5811 95.5988 46.4177 117.088C44.2137 118.006 41.8261 118.19 39.4384 118.557C38.3364 110.292 38.3364 102.211 39.4384 93.7621ZM37.7854 129.761C38.1527 132.332 38.7037 134.72 39.2547 137.291C35.3977 137.659 31.7244 137.842 27.8673 138.21C24.745 138.393 20.7043 139.863 18.684 136.74C17.9493 135.638 17.9493 134.169 18.3167 133.067C18.8677 130.863 21.99 131.047 23.8267 131.047C28.4184 130.496 33.01 130.312 37.7854 129.761ZM3.07228 109.374C4.17428 90.4561 13.5413 73.1914 29.3367 62.906C29.3367 63.2733 29.3367 63.6407 29.3367 64.008C14.276 75.9464 6.92929 94.1294 6.19462 113.047C6.19462 115.067 6.19462 116.904 6.19462 118.924C5.09262 118.924 4.17428 118.924 3.07228 119.292C2.88861 115.986 2.70494 112.68 3.07228 109.374ZM6.19462 140.046C4.90895 133.434 3.62328 127.006 3.07228 120.577C3.99061 120.21 5.09262 120.21 6.19462 120.21C6.92929 130.312 9.50063 140.414 11.521 150.148C10.419 150.148 9.50063 150.332 8.39863 150.515C7.66396 147.209 6.92929 143.72 6.19462 140.046ZM8.76596 152.168C9.86796 151.985 10.7863 151.801 11.8883 151.801C13.3576 159.148 14.827 166.494 16.48 173.841C15.378 173.657 14.4596 173.657 13.3576 173.841C11.7046 166.678 10.2353 159.331 8.76596 152.168ZM19.786 203.779C18.3167 197.534 17.031 191.289 15.5616 184.861C14.827 181.555 14.276 178.433 13.5413 175.127C14.4596 175.127 15.378 174.943 16.2963 175.127C16.48 175.127 16.6636 175.127 16.8473 175.127C18.8677 184.494 20.888 194.044 23.092 203.411C21.8063 203.595 20.7043 203.595 19.786 203.779ZM20.7043 207.819C20.5207 206.901 20.337 205.983 20.1533 205.248C21.0717 205.064 22.1737 205.064 23.2757 205.064C24.5613 211.309 25.296 219.39 28.602 225.084C22.541 222.513 21.99 214.064 20.7043 207.819ZM49.7237 225.268C45.8667 225.635 42.1934 226.002 38.3364 226.002C31.5407 226.37 29.704 221.227 28.602 215.901C26.949 208.738 25.296 201.575 23.643 194.412C20.1533 178.984 17.031 163.372 13.725 147.76C11.8883 137.659 9.31696 127.373 8.94963 116.904C8.39863 98.3538 15.378 79.9871 29.3367 67.6814C29.3367 69.7017 29.3367 71.722 29.3367 73.7424C18.8677 82.1911 14.6433 93.3948 13.174 106.802C12.623 111.761 12.2556 116.904 17.2147 119.292C19.0513 120.21 20.888 119.843 22.7247 119.659C27.1327 119.108 31.5407 118.741 35.9487 118.373C36.316 121.312 36.6834 124.067 37.2344 126.822C31.357 127.373 25.4797 127.373 19.6023 128.292C16.48 128.843 14.827 132.332 15.1943 135.271C15.7453 138.577 17.9493 140.965 21.439 141.516C24.0103 141.883 27.1327 141.148 29.704 140.965C33.01 140.781 36.316 140.414 39.622 140.23C41.2751 149.23 43.1117 158.413 44.9484 167.413C39.4384 167.78 33.9284 167.964 28.4184 168.698C25.296 169.249 23.643 172.739 24.0103 175.678C24.5613 178.984 26.7653 181.371 30.255 181.922C32.8264 182.29 35.9487 181.555 38.52 181.371C41.6424 181.188 44.7647 181.004 47.8871 180.637C49.7237 188.902 51.5604 197.35 53.7644 205.615C48.0707 206.166 42.1934 205.983 36.4997 206.901C32.8264 207.452 30.9897 210.391 31.357 213.88C31.7244 217.003 34.2957 220.125 37.6017 220.125C41.8261 220.125 46.0504 219.758 50.2747 219.39C49.7237 221.411 49.7237 223.431 49.7237 225.268ZM29.3367 77.5994C29.3367 90.4561 29.3367 103.313 29.3367 116.169C27.1327 116.353 25.1123 116.537 22.9083 116.904C14.4596 117.823 15.7453 109.19 16.6637 103.129C17.9493 93.0274 21.99 84.2114 29.3367 77.5994ZM45.3157 216.819C42.0097 217.003 36.6834 218.656 34.4794 215.35C31.357 210.391 37.969 209.656 41.2751 209.472C45.6831 209.105 49.9074 208.921 54.3154 208.554C54.8664 211.125 55.6011 213.513 56.1521 216.084C52.6624 216.268 48.9891 216.635 45.3157 216.819ZM86.4572 291.388C86.4572 284.592 81.4982 277.429 77.8248 272.103C65.8865 255.389 50.6421 241.431 52.8461 219.207C54.1318 219.023 55.6011 219.023 56.8868 218.839C57.2541 219.941 57.4378 221.227 57.8051 222.329C59.2744 227.655 63.4988 228.39 68.4578 228.574C70.1108 242.9 76.5392 253.92 85.7225 264.94C91.0489 271.368 95.4569 278.164 98.9466 285.694C105.008 298.918 96.7425 315.265 80.9472 308.653C79.2942 307.918 77.8248 306.816 76.5392 305.714C82.2328 302.224 86.4572 298.184 86.4572 291.388ZM108.865 341.162C91.2325 352.365 66.6211 347.039 52.8461 332.162C46.4177 325.183 43.6627 315.448 41.0914 306.449C38.8874 298.551 35.9487 290.837 33.561 282.939C33.01 280.919 33.01 279.633 33.561 278.531C44.2137 290.653 45.4994 307.551 53.0298 321.693C60.3764 335.468 74.5188 341.896 89.7632 340.978C103.722 340.06 117.681 332.897 125.578 321.142C127.415 318.387 128.884 315.632 130.17 312.51C126.68 324.081 119.15 334.55 108.865 341.162ZM117.864 262.185C127.782 272.287 132.374 284.96 132.19 298.735C131.272 307 128.15 315.081 123.374 321.877C114.926 333.631 99.3139 339.876 84.9878 339.692C77.6412 339.509 70.4781 337.305 64.4171 333.08C57.9888 328.489 53.9481 321.509 51.0094 314.346C46.0504 301.857 43.6627 288.082 34.4794 277.613C38.3364 275.042 48.4381 278.531 51.1931 280.001C55.9684 282.572 59.6418 286.613 62.7641 290.837C67.1721 297.082 70.6618 304.061 76.5392 309.204C84.8042 316.183 99.4976 313.795 103.171 302.959C108.13 288.449 96.5589 273.572 87.9265 262.92C79.4778 252.634 73.0495 242.349 71.5801 228.757C78.3758 228.941 85.1715 228.941 91.9672 228.757C93.2529 228.757 94.5385 228.757 95.6405 228.757C97.1099 241.982 109.048 253.369 117.864 262.185ZM102.62 225.819C97.2935 226.002 92.1509 226.002 86.8245 226.002C81.4982 226.002 75.9882 226.002 70.6618 225.819C72.8658 224.9 75.0698 223.615 77.0902 222.329C77.2738 222.329 77.6412 222.329 77.8248 222.329C87.3755 222.513 96.7425 222.513 106.293 222.329C105.191 223.431 103.906 224.533 102.62 225.819C102.804 225.635 102.804 225.635 102.62 225.819ZM107.395 225.635C106.477 225.635 105.742 225.635 104.824 225.635C105.926 224.533 107.212 223.431 108.13 222.145C112.905 221.962 117.681 221.962 122.456 221.778C120.803 226.553 111.436 225.451 107.395 225.635Z" fill="#260A01"/>
<defs>
<linearGradient id="paint0_linear_48_2" x1="126.265" y1="216.846" x2="118.806" y2="209.387" gradientUnits="userSpaceOnUse">
<stop offset="0.5" stop-color="#FE9C0E"/>
<stop offset="1" stop-color="#FE7F00"/>
</linearGradient>
<linearGradient id="paint1_linear_48_2" x1="58.6598" y1="167.128" x2="41.4006" y2="149.869" gradientUnits="userSpaceOnUse">
<stop offset="0.5" stop-color="#FE9C0E"/>
<stop offset="1" stop-color="#FE7F00"/>
</linearGradient>
<linearGradient id="paint2_linear_48_2" x1="44.401" y1="181.561" x2="31.1219" y2="168.282" gradientUnits="userSpaceOnUse">
<stop offset="0.5" stop-color="#636363"/>
<stop offset="1" stop-color="#878787"/>
</linearGradient>
<linearGradient id="paint3_linear_48_2" x1="108.576" y1="127.264" x2="84.0126" y2="102.701" gradientUnits="userSpaceOnUse">
<stop offset="0.5" stop-color="#FEE7A5"/>
<stop offset="1" stop-color="#FEBD57"/>
</linearGradient>
<linearGradient id="paint4_linear_48_2" x1="118.058" y1="125.219" x2="97.1248" y2="104.286" gradientUnits="userSpaceOnUse">
<stop offset="0.5" stop-color="#EF5401"/>
<stop offset="1" stop-color="#DE2201"/>
</linearGradient>
<linearGradient id="paint5_linear_48_2" x1="76.3583" y1="150.208" x2="60.8076" y2="134.657" gradientUnits="userSpaceOnUse">
<stop offset="0.5" stop-color="#FE9C0E"/>
<stop offset="1" stop-color="#FE7F00"/>
</linearGradient>
<linearGradient id="paint6_linear_48_2" x1="73.3574" y1="224.45" x2="54.3073" y2="205.4" gradientUnits="userSpaceOnUse">
<stop offset="0.5" stop-color="#FE9C0E"/>
<stop offset="1" stop-color="#FE7F00"/>
</linearGradient>
<linearGradient id="paint7_linear_48_2" x1="98.6919" y1="199.275" x2="82.2319" y2="182.815" gradientUnits="userSpaceOnUse">
<stop offset="0.5" stop-color="#FE9C0E"/>
<stop offset="1" stop-color="#FE7F00"/>
</linearGradient>
<linearGradient id="paint8_linear_48_2" x1="112.378" y1="204.059" x2="98.1943" y2="189.876" gradientUnits="userSpaceOnUse">
<stop offset="0.5" stop-color="#EF5401"/>
<stop offset="1" stop-color="#DE2201"/>
</linearGradient>
<linearGradient id="paint9_linear_48_2" x1="105.26" y1="205.134" x2="88.9548" y2="188.83" gradientUnits="userSpaceOnUse">
<stop offset="0.5" stop-color="#FEE7A5"/>
<stop offset="1" stop-color="#FEBD57"/>
</linearGradient>
<linearGradient id="paint10_linear_48_2" x1="132.14" y1="156.786" x2="114.663" y2="139.309" gradientUnits="userSpaceOnUse">
<stop offset="0.5" stop-color="#FE9C0E"/>
<stop offset="1" stop-color="#FE7F00"/>
</linearGradient>
<linearGradient id="paint11_linear_48_2" x1="126.992" y1="94.6603" x2="112.006" y2="79.6741" gradientUnits="userSpaceOnUse">
<stop offset="0.5" stop-color="#FE9C0E"/>
<stop offset="1" stop-color="#FE7F00"/>
</linearGradient>
<linearGradient id="paint12_linear_48_2" x1="78.4761" y1="85.4245" x2="63.5357" y2="70.4841" gradientUnits="userSpaceOnUse">
<stop offset="0.5" stop-color="#FE9C0E"/>
<stop offset="1" stop-color="#FE7F00"/>
</linearGradient>
<linearGradient id="paint13_linear_48_2" x1="55.16" y1="64.4524" x2="46.8599" y2="56.1523" gradientUnits="userSpaceOnUse">
<stop offset="0.5" stop-color="#FE9C0E"/>
<stop offset="1" stop-color="#FE7F00"/>
</linearGradient>
<linearGradient id="paint14_linear_48_2" x1="68.2339" y1="95.7778" x2="45.8845" y2="73.4285" gradientUnits="userSpaceOnUse">
<stop offset="0.5" stop-color="#FE9C0E"/>
<stop offset="1" stop-color="#FE7F00"/>
</linearGradient>
<linearGradient id="paint15_linear_48_2" x1="36.1712" y1="141.224" x2="22.5363" y2="127.59" gradientUnits="userSpaceOnUse">
<stop offset="0.5" stop-color="#636363"/>
<stop offset="1" stop-color="#878787"/>
</linearGradient>
<linearGradient id="paint16_linear_48_2" x1="25.6299" y1="100.298" x2="7.58843" y2="82.2565" gradientUnits="userSpaceOnUse">
<stop offset="0.5" stop-color="#FE9C0E"/>
<stop offset="1" stop-color="#FE7F00"/>
</linearGradient>
<linearGradient id="paint17_linear_48_2" x1="20.5633" y1="170.906" x2="4.79784" y2="155.141" gradientUnits="userSpaceOnUse">
<stop offset="0.5" stop-color="#FE9C0E"/>
<stop offset="1" stop-color="#FE7F00"/>
</linearGradient>
<linearGradient id="paint18_linear_48_2" x1="32.9879" y1="222.507" x2="17.4357" y2="206.955" gradientUnits="userSpaceOnUse">
<stop offset="0.5" stop-color="#FE9C0E"/>
<stop offset="1" stop-color="#FE7F00"/>
</linearGradient>
<linearGradient id="paint19_linear_48_2" x1="80.6838" y1="195.319" x2="-9.16402" y2="105.471" gradientUnits="userSpaceOnUse">
<stop offset="0.5" stop-color="#FE9C0E"/>
<stop offset="1" stop-color="#FE7F00"/>
</linearGradient>
<linearGradient id="paint20_linear_48_2" x1="36.838" y1="109.473" x2="16.828" y2="89.4634" gradientUnits="userSpaceOnUse">
<stop offset="0.5" stop-color="#EF5401"/>
<stop offset="1" stop-color="#DE2201"/>
</linearGradient>
<linearGradient id="paint21_linear_48_2" x1="52.8343" y1="220.32" x2="38.7959" y2="206.282" gradientUnits="userSpaceOnUse">
<stop offset="0.5" stop-color="#636363"/>
<stop offset="1" stop-color="#878787"/>
</linearGradient>
<linearGradient id="paint22_linear_48_2" x1="104.87" y1="299.256" x2="38.4166" y2="232.803" gradientUnits="userSpaceOnUse">
<stop offset="0.5" stop-color="#636363"/>
<stop offset="1" stop-color="#878787"/>
</linearGradient>
<linearGradient id="paint23_linear_48_2" x1="110.649" y1="341.595" x2="40.1247" y2="271.071" gradientUnits="userSpaceOnUse">
<stop offset="0.5" stop-color="#636363"/>
<stop offset="1" stop-color="#878787"/>
</linearGradient>
<linearGradient id="paint24_linear_48_2" x1="122.639" y1="323.65" x2="49.1298" y2="250.141" gradientUnits="userSpaceOnUse">
<stop offset="0.5" stop-color="#D6D6D6"/>
<stop offset="1" stop-color="#AAAAAA"/>
</linearGradient>
<linearGradient id="paint25_linear_48_2" x1="117.595" y1="228.015" x2="109.699" y2="220.119" gradientUnits="userSpaceOnUse">
<stop offset="0.5" stop-color="#FE9C0E"/>
<stop offset="1" stop-color="#FE7F00"/>
</linearGradient>
<linearGradient id="paint26_linear_48_2" x1="134.966" y1="45.9001" x2="100.924" y2="11.8576" gradientUnits="userSpaceOnUse">
<stop offset="0.5" stop-color="#D6D6D6"/>
<stop offset="1" stop-color="#AAAAAA"/>
</linearGradient>
<linearGradient id="paint27_linear_48_2" x1="65.1627" y1="87.012" x2="6.00148" y2="27.8506" gradientUnits="userSpaceOnUse">
<stop offset="0.5" stop-color="#D6D6D6"/>
<stop offset="1" stop-color="#AAAAAA"/>
</linearGradient>
</defs>
</svg>
