<svg width="40" height="40" viewBox="0 0 40 40" fill="none" xmlns="http://www.w3.org/2000/svg">
<g clip-path="url(#clip0)">
<path d="M25.1775 9.66666C25.0753 9.66643 24.9745 9.64247 24.8831 9.59665C24.7917 9.55083 24.7122 9.48441 24.6508 9.40263C24.5894 9.32084 24.5479 9.22593 24.5295 9.12536C24.5111 9.02479 24.5162 8.92131 24.5446 8.82308L26.3371 2.66869C26.3922 2.44242 26.3551 2.20354 26.2341 2.00457C26.1769 1.9131 26.1019 1.83408 26.0135 1.77222C25.9251 1.71037 25.8252 1.66695 25.7197 1.64455L23.5729 1.30962C23.4862 1.29769 23.4026 1.26859 23.3273 1.22402C23.2519 1.17944 23.1861 1.12028 23.1338 1.05C23.0816 0.979715 23.0438 0.899718 23.0229 0.814683C23.0019 0.729649 22.998 0.641284 23.0116 0.554754C23.0252 0.468224 23.0558 0.385265 23.1018 0.310728C23.1478 0.23619 23.2082 0.171569 23.2795 0.120643C23.3507 0.0697168 23.4314 0.033507 23.5169 0.0141306C23.6023 -0.00524585 23.6907 -0.0074002 23.7769 0.00779349L25.9645 0.350418C26.2494 0.407145 26.5198 0.521588 26.7588 0.686703C26.9978 0.851818 27.2006 1.06411 27.3545 1.31051C27.5091 1.5624 27.6113 1.84285 27.6551 2.13512C27.6989 2.42739 27.6833 2.72549 27.6093 3.01161L25.8098 9.19176C25.7699 9.32864 25.6867 9.4489 25.5728 9.53452C25.4588 9.62014 25.3201 9.6665 25.1775 9.66666Z" fill="#2C2F38"/>
<path d="M37.3367 15.6562C37.1798 15.6559 37.0281 15.5997 36.909 15.4976C36.7898 15.3955 36.711 15.2543 36.6868 15.0992L36.3442 12.9117C36.2927 12.714 36.166 12.5443 35.9912 12.4387C35.8893 12.3778 35.7761 12.3383 35.6584 12.3227C35.5408 12.307 35.4212 12.3155 35.3069 12.3476L29.1791 14.1279C29.096 14.152 29.009 14.1595 28.923 14.15C28.8369 14.1405 28.7536 14.1141 28.6778 14.0724C28.602 14.0307 28.5351 13.9744 28.481 13.9069C28.4269 13.8393 28.3867 13.7618 28.3625 13.6787C28.3384 13.5956 28.3309 13.5085 28.3404 13.4225C28.3499 13.3365 28.3763 13.2532 28.418 13.1774C28.4597 13.1015 28.516 13.0347 28.5835 12.9806C28.6511 12.9265 28.7286 12.8862 28.8117 12.8621L34.9597 11.0763C35.2478 10.9972 35.549 10.9776 35.845 11.0187C36.1409 11.0598 36.4254 11.1608 36.681 11.3154C36.9236 11.4642 37.1335 11.6607 37.298 11.8929C37.4625 12.1251 37.5783 12.3883 37.6382 12.6664L37.9886 14.8952C38.0032 14.9893 37.9973 15.0854 37.9713 15.177C37.9453 15.2686 37.8997 15.3534 37.8378 15.4257C37.7758 15.498 37.699 15.556 37.6125 15.5958C37.526 15.6356 37.4319 15.6562 37.3367 15.6562Z" fill="#2C2F38"/>
<path d="M36.3425 30.7457C36.2635 33.3551 34.6886 35.266 32.6327 36.5114C31.7546 37.0995 30.7539 37.4794 29.7067 37.6222C28.6596 37.7649 27.5937 37.6667 26.5902 37.3351C26.0222 37.5891 25.4245 37.7706 24.8111 37.8754C20.1326 38.7188 17.9647 35.0683 17.0685 32.6961H17.062C16.3222 33.279 15.5428 33.8096 14.7293 34.2841C13.2305 35.1699 11.5897 35.7897 9.87949 36.116C7.30959 36.5773 4.98355 36.0962 3.44824 34.5609C1.91292 33.0256 1.4319 30.7061 1.89314 28.1297C2.22208 26.4162 2.84638 24.7729 3.73816 23.2733C4.20651 22.4575 4.73513 21.6777 5.3196 20.9406C2.95393 20.0445 -0.716325 17.8766 0.127097 13.1848C0.231884 12.5736 0.41344 11.978 0.667458 11.4123V11.4057C0.335375 10.4024 0.23695 9.33635 0.379695 8.28913C0.52244 7.2419 0.902583 6.24114 1.4911 5.36324C2.72992 3.30077 4.64742 1.7259 7.25024 1.64677C7.80128 1.64028 8.35134 1.69328 8.89103 1.80495C13.5168 2.75384 16.8445 6.96446 18.5247 11.3003C18.8299 10.6541 19.2445 10.0656 19.7503 9.56072C20.7585 8.55255 22.6563 8.19671 24.5079 8.1308C25.7814 8.10393 27.055 8.1788 28.3165 8.35481C28.6582 8.38399 28.9799 8.52831 29.2289 8.76412C29.4779 8.99994 29.6394 9.3133 29.6871 9.6529C29.8465 10.9291 29.9104 12.2154 29.8782 13.5011C29.8057 15.3528 29.4499 17.2505 28.4416 18.2587C27.9412 18.7633 27.3542 19.174 26.7087 19.4711C31.0379 21.1646 35.242 24.4923 36.1974 29.1115C36.3046 29.6494 36.3532 30.1973 36.3425 30.7457Z" fill="#D1D4D1"/>
<path d="M29.8783 13.5012C29.8058 15.3529 29.45 17.2506 28.4417 18.2588C27.9413 18.7634 27.3543 19.1741 26.7087 19.4712C26.4584 19.3724 26.2014 19.2801 25.9509 19.1944C25.3276 18.9744 24.6917 18.7918 24.0466 18.6475C23.6645 16.2359 21.7731 14.3445 19.3615 13.9624H19.3549C19.2106 13.3173 19.028 12.6814 18.808 12.0581L18.8014 12.0515C18.7158 11.8011 18.6236 11.5573 18.5247 11.3069V11.3003C18.8298 10.6541 19.2445 10.0656 19.7503 9.56073C20.7584 8.55256 22.6562 8.19673 24.5078 8.13081C25.7813 8.10394 27.0549 8.17881 28.3165 8.35482C28.6581 8.38401 28.9798 8.52832 29.2288 8.76413C29.4778 8.99995 29.6393 9.31331 29.687 9.65292C29.8465 10.9291 29.9105 12.2155 29.8783 13.5012Z" fill="#F0C419"/>
<path d="M19.9282 18.0676C19.3654 18.8139 18.7024 19.4791 17.958 20.0445C18.5189 19.2965 19.1821 18.631 19.9282 18.0676Z" fill="#BDC3C7"/>
<path d="M36.3425 30.746C36.2634 33.3554 34.6886 35.2663 32.6327 36.5117C31.7546 37.0998 30.7538 37.4797 29.7067 37.6224C28.6595 37.7652 27.5936 37.667 26.5902 37.3353C27.2802 37.0448 27.9045 36.6178 28.4254 36.0799C28.9462 35.542 29.353 34.9044 29.6213 34.2054C29.801 33.7402 29.9271 33.2561 29.9969 32.7623C30.8403 27.1481 26.3002 21.5405 22.1028 19.0827C21.5305 18.7021 20.929 18.3671 20.304 18.0811C21.0588 18.1171 21.8099 18.2096 22.5509 18.3578C23.0386 18.4303 23.5393 18.5226 24.0468 18.6478C24.6919 18.7921 25.3278 18.9747 25.9511 19.1947C26.2015 19.2804 26.4585 19.3726 26.7089 19.4715C31.0382 21.165 35.2422 24.4926 36.1977 29.1118C36.3046 29.6498 36.3531 30.1976 36.3425 30.746Z" fill="#D1D4D1"/>
<path d="M29.9971 32.7622C29.9273 33.2559 29.8012 33.7401 29.6215 34.2052C29.3532 34.9042 28.9464 35.5419 28.4255 36.0797C27.9046 36.6176 27.2804 37.0446 26.5903 37.3352C26.0223 37.5892 25.4246 37.7707 24.8112 37.8755C20.1327 38.719 17.9648 35.0684 17.0687 32.6962C16.8282 32.083 16.6408 31.4503 16.5086 30.8051C16.5086 30.8051 14.4527 24.7362 17.9451 20.0577L17.9583 20.0445C18.7027 19.4792 19.3657 18.814 19.9285 18.0677C19.9417 18.0611 19.9483 18.0479 19.9614 18.0413C20.0141 18.0018 20.1327 18.0216 20.2843 18.0809C20.2909 18.0743 20.2909 18.0809 20.2975 18.0809H20.3041C20.9291 18.367 21.5306 18.7019 22.103 19.0825C26.3004 21.5404 30.8405 27.148 29.9971 32.7622Z" fill="#BDC3C7"/>
<path d="M19.9282 18.0676C19.3654 18.8139 18.7024 19.4791 17.958 20.0445C18.5189 19.2965 19.1821 18.631 19.9282 18.0676Z" fill="#BDC3C7"/>
<path d="M5.08391 35.1759C3.21696 35.5296 1.50604 36.4547 0.187744 37.8232C1.55606 36.5044 2.48094 34.7932 2.83453 32.926L5.08391 35.1759Z" fill="#2C2F38"/>
<path d="M14.7292 34.278V34.2845C13.2304 35.1703 11.5896 35.7901 9.87942 36.1164C9.6262 34.0871 8.70057 32.201 7.25024 30.7592C5.81018 29.3065 3.92325 28.3804 1.89307 28.1301C2.22201 26.4166 2.84631 24.7733 3.73809 23.2737C6.51077 23.6769 9.07755 24.9695 11.0523 26.9572C13.0421 28.9322 14.333 31.5026 14.7292 34.278Z" fill="#2C2F38"/>
<path d="M9.87942 36.1162C7.30952 36.5775 4.98348 36.0964 3.44816 34.5611C1.91285 33.0258 1.43183 30.7064 1.89307 28.1299C3.92325 28.3802 5.81018 29.3063 7.25025 30.7591C8.70059 32.2009 9.62622 34.0869 9.87942 36.1162Z" fill="#F0C419"/>
<path d="M19.9547 18.0347C19.9481 18.0479 19.9349 18.0545 19.9283 18.0676C19.1822 18.631 18.519 19.2964 17.9581 20.0445L17.9449 20.0577C13.273 23.55 7.19755 21.4942 7.19755 21.4942C6.55721 21.3623 5.92901 21.1772 5.31953 20.9407C2.95393 20.0445 -0.716326 17.8766 0.127097 13.1849C0.231884 12.5736 0.413441 11.9781 0.667458 11.4123V11.4058C0.960013 10.7169 1.38775 10.0938 1.92537 9.57311C2.46298 9.05247 3.09956 8.64494 3.79743 8.37463C4.26256 8.19483 4.74672 8.0688 5.24048 7.99902C10.8547 7.15559 16.4623 11.6957 18.9135 15.8931C19.2941 16.4655 19.629 17.067 19.9151 17.692V17.7052C19.9744 17.8634 19.9942 17.982 19.9547 18.0347Z" fill="#BDC3C7"/>
<path d="M19.9152 17.692C19.6291 17.067 19.2942 16.4655 18.9136 15.8931C16.4623 11.6957 10.8547 7.15556 5.24051 7.99898C4.74675 8.06876 4.26258 8.19478 3.79746 8.3746C3.09958 8.64491 2.46301 9.05243 1.92539 9.57308C1.38778 10.0937 0.960042 10.7169 0.667487 11.4057C0.335405 10.4024 0.236979 9.33635 0.379725 8.28913C0.52247 7.2419 0.902612 6.24114 1.49113 5.36324C2.72995 3.30077 4.64745 1.7259 7.25027 1.64677C7.80131 1.64028 8.35137 1.69328 8.89106 1.80495C13.5169 2.75384 16.8445 6.96446 18.5248 11.3003V11.3069C18.6236 11.5573 18.7159 11.8011 18.8016 12.0515L18.8081 12.0581C19.0281 12.6814 19.2108 13.3173 19.3551 13.9624C19.4762 14.4512 19.5708 14.9461 19.6384 15.445C19.7928 16.1851 19.8854 16.9367 19.9152 17.692Z" fill="#D1D4D1"/>
<path d="M24.0468 18.6475C23.5394 18.5224 23.0386 18.4301 22.5509 18.3576C21.8099 18.2095 21.0588 18.1169 20.304 18.0808H20.2974C20.2908 18.0808 20.2908 18.0743 20.2842 18.0808C20.1326 18.0216 20.014 18.0018 19.9613 18.0413C19.948 18.0478 19.9415 18.0611 19.9283 18.0676C19.9349 18.0544 19.9481 18.0478 19.9547 18.0347C19.9942 17.982 19.9745 17.8634 19.9151 17.7052V17.692C19.8853 16.9366 19.7927 16.185 19.6383 15.445C19.5707 14.9461 19.4762 14.4511 19.355 13.9624H19.3615C21.7732 14.3445 23.6646 16.236 24.0468 18.6475Z" fill="#2C2F38"/>
<path d="M16.5084 30.805C16.6406 31.4502 16.828 32.0829 17.0684 32.6961H17.0619C16.3221 33.279 15.5427 33.8096 14.7292 34.2841V34.2776C14.3329 31.5022 13.042 28.9318 11.0523 26.9568C9.07753 24.9691 6.51073 23.6765 3.73804 23.2733C4.20639 22.4574 4.73501 21.6777 5.31948 20.9406C5.92895 21.1772 6.55714 21.3623 7.1975 21.4941C7.1975 21.4941 13.2729 23.55 17.9448 20.0576C14.4525 24.7361 16.5084 30.805 16.5084 30.805Z" fill="#F0C419"/>
</g>
<defs>
<clipPath id="clip0">
<rect width="38" height="38" fill="white"/>
</clipPath>
</defs>
</svg>
