<svg width="40" height="40" viewBox="0 0 40 40" fill="none" xmlns="http://www.w3.org/2000/svg">
<path d="M4.77368 23.011L6.51715 22.7086L7.30113 20.4836L6.41518 20.708L4.77368 23.011Z" fill="#3B484A"/>
<path d="M13.016 34.3892L10.8575 34.5214L8.58956 36.7894C8.0736 37.3053 7.23404 37.3053 6.71807 36.7894L5.21462 35.2859C5.04969 35.1219 4.93114 34.9171 4.87102 34.6924C4.81089 34.4677 4.81134 34.231 4.87232 34.0065L6.59041 30.2543L6.85552 27.8518L4.4593 28.1232L2.26376 32.9183C2.2411 32.9679 2.2213 33.0188 2.20446 33.0706C1.72108 34.5612 2.10909 36.1754 3.2171 37.2835L4.72055 38.787C6.33784 40.4043 8.96956 40.4043 10.587 38.787L12.855 36.5191L13.016 34.3892Z" fill="#B3B3B3"/>
<path d="M35.2279 2.07854L35.1783 2.0663C33.971 1.76794 32.7506 2.50471 32.4521 3.71202L34.6876 4.2645L35.2279 2.07854Z" fill="#999999"/>
<path d="M39.8294 7.92383L39.8156 7.8747C39.4787 6.67756 38.2351 5.98027 37.0381 6.31723L37.6619 8.53384L39.8294 7.92383Z" fill="#999999"/>
<path d="M17.7573 12.7534L17.7213 12.7895C16.8419 13.6688 16.8419 15.0946 17.7213 15.9739L18.7265 16.9791L20.3548 15.3508L17.7573 12.7534Z" fill="#999999"/>
<path d="M21.2097 9.30103L21.1737 9.3371C20.2943 10.2164 20.2943 11.6422 21.1737 12.5215L22.1789 13.5267L23.8072 11.8985L21.2097 9.30103Z" fill="#999999"/>
<path d="M24.6621 5.84863L24.6261 5.8847C23.7467 6.76405 23.7467 8.18979 24.6261 9.06913L25.6313 10.0743L27.2596 8.44606L24.6621 5.84863Z" fill="#999999"/>
<path d="M28.1148 2.39624L28.0787 2.43231C27.1994 3.31165 27.1994 4.73739 28.0787 5.61673L29.0839 6.62195L30.7122 4.99367L28.1148 2.39624Z" fill="#999999"/>
<path d="M37.5103 15.0482L37.5463 15.0121C38.4257 14.1328 38.4257 12.7071 37.5463 11.8277L36.5411 10.8225L34.9128 12.4508L37.5103 15.0482Z" fill="#999999"/>
<path d="M34.0576 18.5009L34.0937 18.4648C34.973 17.5854 34.973 16.1597 34.0937 15.2804L33.0885 14.2751L31.4602 15.9034L34.0576 18.5009Z" fill="#999999"/>
<path d="M30.6052 21.953L30.6413 21.9169C31.5206 21.0376 31.5206 19.6119 30.6413 18.7325L29.6361 17.7273L28.0078 19.3556L30.6052 21.953Z" fill="#999999"/>
<path d="M27.1528 25.4054L27.1889 25.3693C28.0682 24.49 28.0682 23.0642 27.1889 22.1849L26.1837 21.1797L24.5554 22.808L27.1528 25.4054Z" fill="#999999"/>
<path d="M36.2398 5.29475C34.0749 3.12994 30.5651 3.12994 28.4004 5.29475L16.1101 17.585L17.2035 24.3309L23.9494 25.4243L36.2397 13.1341C38.4045 10.9693 38.4045 7.45948 36.2398 5.29475Z" fill="#B3B3B3"/>
<path d="M34.4406 7.09403C33.2712 5.92471 31.3687 5.92471 30.1995 7.09403L17.9092 19.3842L18.4601 23.0744L22.1503 23.6253L34.4406 11.3351C35.6098 10.1658 35.6098 8.26327 34.4406 7.09403Z" fill="#D9D9D9"/>
<path d="M5.57147 32.4795L6.59027 30.2545L6.85538 27.8521L4.45923 28.1234L3.44043 30.3485L5.57147 32.4795Z" fill="#999999"/>
<path d="M11.2328 38.1408L12.8548 36.5189L13.0158 34.3892L10.8573 34.5213L9.23535 36.1434L11.2328 38.1408Z" fill="#999999"/>
<path d="M17.4615 16.2334L16.1099 17.5851L17.2032 24.331L23.9492 25.4243L25.3009 24.0728L17.4615 16.2334Z" fill="#999999"/>
<path d="M19.2609 18.0325L17.9092 19.3841L18.4602 23.0743L22.1503 23.6252L23.5019 22.2736L19.2609 18.0325Z" fill="#B3B3B3"/>
<path d="M16.1103 17.5849C14.4781 15.9528 11.8319 15.9528 10.1997 17.5849L3.58307 24.2016C2.74217 25.0425 2.74217 26.4058 3.58307 27.2467L12.8551 36.5188L23.9496 25.4242L16.1103 17.5849Z" fill="#FAA330"/>
<path d="M5.41805 26.0366L12.0347 19.4199C13.6669 17.7878 16.3131 17.7878 17.9453 19.4199L16.1103 17.5849C14.4781 15.9528 11.8319 15.9528 10.1997 17.5849L3.58307 24.2016C2.74217 25.0425 2.74217 26.4058 3.58307 27.2467L5.41805 29.0817C4.57715 28.2409 4.57715 26.8776 5.41805 26.0366Z" fill="#F09318"/>
<path d="M4.77368 23.0111L3.05322 14.2804C2.82767 13.1358 3.06131 11.9719 3.71124 11.0029C4.36117 10.034 5.34947 9.37622 6.49407 9.15066C7.63874 8.92504 8.80264 9.15875 9.77164 9.80861C10.7406 10.4585 11.3984 11.4468 11.6239 12.5914L13.7393 23.3256C13.8978 24.1298 13.3744 24.9102 12.57 25.0687C11.7658 25.2273 10.9853 24.7039 10.8269 23.8995L8.7115 13.1654C8.56225 12.4084 7.82488 11.9139 7.068 12.063C6.88752 12.0981 6.71579 12.1686 6.56274 12.2704C6.40969 12.3723 6.27835 12.5035 6.17634 12.6565C6.07353 12.8089 6.00196 12.9801 5.96578 13.1604C5.9296 13.3406 5.92952 13.5262 5.96556 13.7065L7.30112 20.4837L4.77368 23.0111Z" fill="#3B484A"/>
<path d="M13.6761 32.2766C13.5627 32.2765 13.4519 32.2429 13.3576 32.1799C13.2633 32.1169 13.1898 32.0273 13.1464 31.9225C13.103 31.8178 13.0917 31.7025 13.1138 31.5912C13.1359 31.48 13.1905 31.3778 13.2707 31.2976L17.3404 27.228C17.3936 27.1747 17.4569 27.1325 17.5264 27.1037C17.596 27.0749 17.6706 27.0601 17.7459 27.0601C17.8212 27.0601 17.8957 27.0749 17.9653 27.1037C18.0349 27.1325 18.0981 27.1748 18.1513 27.228C18.2046 27.2813 18.2468 27.3445 18.2756 27.4141C18.3044 27.4836 18.3193 27.5582 18.3193 27.6335C18.3193 27.7088 18.3044 27.7834 18.2756 27.853C18.2468 27.9225 18.2046 27.9857 18.1513 28.039L14.0816 32.1086C14.0284 32.162 13.9652 32.2043 13.8956 32.2331C13.8261 32.2619 13.7515 32.2767 13.6761 32.2766Z" fill="#3B484A"/>
<path d="M11.8507 30.4508C11.7373 30.4508 11.6264 30.4172 11.5322 30.3542C11.4379 30.2911 11.3644 30.2016 11.321 30.0968C11.2776 29.992 11.2662 29.8767 11.2884 29.7655C11.3105 29.6543 11.3651 29.5521 11.4453 29.4719L14.0756 26.8415C14.1832 26.734 14.329 26.6736 14.4811 26.6736C14.6332 26.6736 14.779 26.734 14.8866 26.8416C14.9941 26.9491 15.0545 27.095 15.0545 27.247C15.0545 27.3991 14.9941 27.545 14.8865 27.6525L12.2562 30.2829C12.203 30.3362 12.1398 30.3785 12.0702 30.4073C12.0006 30.4361 11.926 30.4509 11.8507 30.4508Z" fill="#3B484A"/>
<path d="M31.4424 11.2251C32.068 11.2251 32.5752 10.7179 32.5752 10.0923C32.5752 9.46664 32.068 8.95947 31.4424 8.95947C30.8167 8.95947 30.3096 9.46664 30.3096 10.0923C30.3096 10.7179 30.8167 11.2251 31.4424 11.2251Z" fill="#B3B3B3"/>
</svg>
