<svg width="40" height="40" viewBox="0 0 40 40" fill="none" xmlns="http://www.w3.org/2000/svg">
<path d="M38.0278 31.7566L8.24543 1.97417C6.94654 0.675277 4.84067 0.675277 3.54375 1.97417L1.97417 3.54136C0.675277 4.84067 0.675277 6.94654 1.97417 8.24336L31.7565 38.0258C33.0559 39.3247 35.1617 39.3247 36.4585 38.0258L38.0257 36.4586C39.3271 35.1618 39.3271 33.0555 38.0278 31.7566Z" fill="#F44336"/>
<path d="M31.7566 1.97435L1.97417 31.7568C0.675277 33.0557 0.675277 35.162 1.97417 36.4588L3.54136 38.026C4.84067 39.3249 6.94654 39.3249 8.24336 38.026L38.0278 8.24561C39.3271 6.94671 39.3271 4.84085 38.0278 3.54403L36.4606 1.97684C35.1617 0.675454 33.0559 0.675454 31.7566 1.97435Z" fill="#F44336"/>
</svg>
