<svg width="40" height="40" viewBox="0 0 40 40" fill="none" xmlns="http://www.w3.org/2000/svg">
<path fill-rule="evenodd" clip-rule="evenodd" d="M19.678 7.44067L5.50854 17.4237V37.3898H33.2035V17.1017L19.678 7.44067Z" fill="#C77C38"/>
<path fill-rule="evenodd" clip-rule="evenodd" d="M33.5255 26.1185H5.83063C5.40359 26.1185 4.99403 25.9489 4.69207 25.6469C4.3901 25.345 4.22046 24.9354 4.22046 24.5084C4.22046 24.0813 4.3901 23.6718 4.69207 23.3698C4.99403 23.0678 5.40359 22.8982 5.83063 22.8982H33.5255C33.9526 22.8982 34.3621 23.0678 34.6641 23.3698C34.9661 23.6718 35.1357 24.0813 35.1357 24.5084C35.1357 24.9354 34.9661 25.345 34.6641 25.6469C34.3621 25.9489 33.9526 26.1185 33.5255 26.1185Z" fill="#BA631E"/>
<path fill-rule="evenodd" clip-rule="evenodd" d="M33.5255 18.6642H5.83063C5.40359 18.6642 4.99403 18.4945 4.69207 18.1926C4.3901 17.8906 4.22046 17.4811 4.22046 17.054C4.22046 16.627 4.3901 16.2174 4.69207 15.9155C4.99403 15.6135 5.40359 15.4438 5.83063 15.4438H33.5255C33.9526 15.4438 34.3621 15.6135 34.6641 15.9155C34.9661 16.2174 35.1357 16.627 35.1357 17.054C35.1357 17.4811 34.9661 17.8906 34.6641 18.1926C34.3621 18.4945 33.9526 18.6642 33.5255 18.6642Z" fill="#BA631E"/>
<path fill-rule="evenodd" clip-rule="evenodd" d="M5.83063 35.7795C5.40359 35.7795 4.99403 35.9492 4.69207 36.2511C4.3901 36.5531 4.22046 36.9627 4.22046 37.3897C4.22046 37.8168 4.3901 38.2263 4.69207 38.5283C4.99403 38.8302 5.40359 38.9999 5.83063 38.9999H15.8137V35.7795H5.83063Z" fill="#BA631E"/>
<path fill-rule="evenodd" clip-rule="evenodd" d="M33.5255 35.7795H23.5425V38.9999H33.5255C33.9526 38.9999 34.3621 38.8302 34.6641 38.5283C34.9661 38.2263 35.1357 37.8168 35.1357 37.3897C35.1357 36.9627 34.9661 36.5531 34.6641 36.2511C34.3621 35.9492 33.9526 35.7795 33.5255 35.7795Z" fill="#BA631E"/>
<path fill-rule="evenodd" clip-rule="evenodd" d="M15.8137 29.3389H5.83063C5.40359 29.3389 4.99403 29.5085 4.69207 29.8105C4.3901 30.1124 4.22046 30.522 4.22046 30.949C4.22046 31.3761 4.3901 31.7856 4.69207 32.0876C4.99403 32.3896 5.40359 32.5592 5.83063 32.5592H15.8137V29.3389Z" fill="#BA631E"/>
<path fill-rule="evenodd" clip-rule="evenodd" d="M33.5255 29.3389H23.5425V32.5592H33.5255C33.9526 32.5592 34.3621 32.3896 34.6641 32.0876C34.9661 31.7856 35.1357 31.3761 35.1357 30.949C35.1357 30.522 34.9661 30.1124 34.6641 29.8105C34.3621 29.5085 33.9526 29.3389 33.5255 29.3389Z" fill="#BA631E"/>
<path fill-rule="evenodd" clip-rule="evenodd" d="M35.2097 21.2552L19.649 9.9009L4.11022 20.6755C3.70402 20.9879 3.19034 21.1262 2.6822 21.0599C2.17405 20.9936 1.71306 20.7281 1.40063 20.3219C1.08821 19.9157 0.949941 19.402 1.01625 18.8939C1.08256 18.3857 1.34802 17.9248 1.75422 17.6123L19.707 4.98022L37.6378 18.2487C37.8352 18.4081 37.9993 18.6048 38.1207 18.8277C38.2421 19.0505 38.3184 19.2951 38.3452 19.5474C38.3721 19.7998 38.349 20.0549 38.2772 20.2983C38.2054 20.5417 38.0864 20.7686 37.927 20.966H37.9264C37.6044 21.3645 37.1373 21.6188 36.6279 21.6731C36.1185 21.7273 35.6083 21.577 35.2097 21.2552Z" fill="#6C4126"/>
<path fill-rule="evenodd" clip-rule="evenodd" d="M33.8476 15.4438V9.3728H29.9832V12.5841L33.8476 15.4438Z" fill="#9E6C53"/>
<path fill-rule="evenodd" clip-rule="evenodd" d="M15.8135 26.1187H23.5423V39H15.8135V26.1187Z" fill="#6C4126"/>
<path fill-rule="evenodd" clip-rule="evenodd" d="M18.3899 32.5594C18.3899 32.7302 18.3221 32.894 18.2013 33.0148C18.0805 33.1356 17.9167 33.2034 17.7459 33.2034C17.5751 33.2034 17.4112 33.1356 17.2904 33.0148C17.1697 32.894 17.1018 32.7302 17.1018 32.5594C17.1018 32.3885 17.1697 32.2247 17.2904 32.1039C17.4112 31.9831 17.5751 31.9153 17.7459 31.9153C17.9167 31.9153 18.0805 31.9831 18.2013 32.1039C18.3221 32.2247 18.3899 32.3885 18.3899 32.5594Z" fill="#C7CBC7"/>
<path fill-rule="evenodd" clip-rule="evenodd" d="M16.4575 16.4575H22.8982V22.8982H16.4575V16.4575Z" fill="#C6E3F8"/>
<path fill-rule="evenodd" clip-rule="evenodd" d="M16.4575 16.4575H22.8982V22.8982H16.4575V16.4575Z" stroke="#6B5B4B" stroke-width="2"/>
<path fill-rule="evenodd" clip-rule="evenodd" d="M22.8982 19.0338H20.3219V16.4575H19.0338V19.0338H16.4575V20.3219H19.0338V22.8982H20.3219V20.3219H22.8982V19.0338Z" fill="#6B5B4B"/>
<path fill-rule="evenodd" clip-rule="evenodd" d="M30.6272 8.08477C30.4598 8.08477 30.2917 8.01392 30.1699 7.89799C30.0522 7.7746 29.9855 7.61125 29.9832 7.4407C29.9832 7.27325 30.0534 7.10579 30.1699 6.98342C30.4082 6.74511 30.8462 6.74511 31.0845 6.98342C31.2004 7.10579 31.2713 7.27325 31.2713 7.4407C31.2713 7.60816 31.2004 7.77498 31.0845 7.89799C30.9615 8.01392 30.7947 8.08477 30.6272 8.08477Z" fill="#C7CBC7"/>
<path fill-rule="evenodd" clip-rule="evenodd" d="M33.2034 8.08487C33.0326 8.08487 32.8688 8.01701 32.748 7.89622C32.6272 7.77544 32.5593 7.61162 32.5593 7.4408V4.86453C32.5593 4.69371 32.6272 4.52989 32.748 4.4091C32.8688 4.28832 33.0326 4.22046 33.2034 4.22046C33.3742 4.22046 33.538 4.28832 33.6588 4.4091C33.7796 4.52989 33.8475 4.69371 33.8475 4.86453V7.4408C33.8475 7.61162 33.7796 7.77544 33.6588 7.89622C33.538 8.01701 33.3742 8.08487 33.2034 8.08487Z" fill="#C7CBC7"/>
<path fill-rule="evenodd" clip-rule="evenodd" d="M33.2034 3.57627C33.0326 3.57627 32.8688 3.50841 32.748 3.38763C32.6272 3.26684 32.5593 3.10302 32.5593 2.9322V1.64407C32.5593 1.47325 32.6272 1.30943 32.748 1.18864C32.8688 1.06786 33.0326 1 33.2034 1C33.3742 1 33.538 1.06786 33.6588 1.18864C33.7796 1.30943 33.8475 1.47325 33.8475 1.64407V2.9322C33.8475 3.10302 33.7796 3.26684 33.6588 3.38763C33.538 3.50841 33.3742 3.57627 33.2034 3.57627Z" fill="#C7CBC7"/>
<path fill-rule="evenodd" clip-rule="evenodd" d="M30.6272 6.15244C30.4564 6.15244 30.2926 6.08459 30.1718 5.9638C30.051 5.84301 29.9832 5.67919 29.9832 5.50838V4.22024C29.9832 4.04942 30.051 3.8856 30.1718 3.76482C30.2926 3.64403 30.4564 3.57617 30.6272 3.57617C30.798 3.57617 30.9619 3.64403 31.0826 3.76482C31.2034 3.8856 31.2713 4.04942 31.2713 4.22024V5.50838C31.2713 5.67919 31.2034 5.84301 31.0826 5.9638C30.9619 6.08459 30.798 6.15244 30.6272 6.15244Z" fill="#C7CBC7"/>
<path fill-rule="evenodd" clip-rule="evenodd" d="M30.6272 2.9322C30.4564 2.9322 30.2926 2.86435 30.1718 2.74356C30.051 2.62277 29.9832 2.45895 29.9832 2.28814V1.64407C29.9832 1.47325 30.051 1.30943 30.1718 1.18864C30.2926 1.06786 30.4564 1 30.6272 1C30.798 1 30.9619 1.06786 31.0826 1.18864C31.2034 1.30943 31.2713 1.47325 31.2713 1.64407V2.28814C31.2713 2.45895 31.2034 2.62277 31.0826 2.74356C30.9619 2.86435 30.798 2.9322 30.6272 2.9322Z" fill="#C7CBC7"/>
</svg>
