<svg width="40" height="40" viewBox="0 0 40 40" fill="none" xmlns="http://www.w3.org/2000/svg">
<path fill-rule="evenodd" clip-rule="evenodd" d="M39.6315 36.6011C39.6916 36.7038 39.7235 36.8205 39.7241 36.9394C39.7246 37.0583 39.6937 37.1753 39.6346 37.2785C39.5755 37.3817 39.4902 37.4674 39.3873 37.5271C39.2844 37.5868 39.1676 37.6182 39.0487 37.6183H2.67587C2.55716 37.6183 2.44055 37.587 2.33777 37.5277C2.23498 37.4683 2.14965 37.3829 2.09035 37.28C2.03106 37.1772 1.9999 37.0606 2 36.9419C2.0001 36.8232 2.03147 36.7066 2.09094 36.6038L20.1633 3.33688C20.2226 3.23465 20.3076 3.14975 20.41 3.09064C20.5123 3.03153 20.6283 3.00028 20.7465 3C20.8646 2.99973 20.9808 3.03044 21.0834 3.08907C21.186 3.14771 21.2714 3.23221 21.3312 3.33416L39.6315 36.6011Z" fill="#5C6887"/>
<path fill-rule="evenodd" clip-rule="evenodd" d="M7.56763 33.6445L20.7672 8.98657L34.1344 33.6445H7.56763Z" fill="#F0C419"/>
<g clip-path="url(#clip0)">
<path d="M20.5944 30.0664C20.5506 30.079 20.5034 30.081 20.4566 30.0709C20.3302 30.0433 20.2385 29.9334 20.2341 29.8041L20.0879 25.5058L15.5435 26.8075C15.4358 26.8384 15.3198 26.8027 15.2482 26.7165C15.1765 26.6302 15.1627 26.5098 15.2126 26.4094L19.3237 18.1732C19.3816 18.0573 19.5105 17.9956 19.6369 18.0231C19.7633 18.0507 19.8549 18.1606 19.8594 18.2899L20.0056 22.5882L24.55 21.2865C24.6577 21.2556 24.7736 21.2913 24.8453 21.3775C24.917 21.4638 24.9308 21.5842 24.8808 21.6846L20.7697 29.9208C20.7333 29.9936 20.6688 30.0451 20.5944 30.0664Z" fill="#242424"/>
</g>
<defs>
<clipPath id="clip0">
<rect x="11.6548" y="19.3923" width="13.5714" height="13.5714" transform="rotate(-15.9846 11.6548 19.3923)" fill="white"/>
</clipPath>
</defs>
</svg>
