<svg width="40" height="40" viewBox="0 0 40 40" fill="none" xmlns="http://www.w3.org/2000/svg">
<circle cx="20" cy="20" r="18.5" fill="#CC4C42" stroke="white"/>
<path d="M22.1914 21.1797C21.3086 22.0469 20.2773 22.4805 19.0977 22.4805C17.5898 22.4805 16.3828 21.9648 15.4766 20.9336C14.5703 19.8945 14.1172 18.4961 14.1172 16.7383C14.1172 15.6211 14.3594 14.5977 14.8438 13.668C15.3359 12.7305 16.0195 12.0039 16.8945 11.4883C17.7695 10.9648 18.7539 10.7031 19.8477 10.7031C20.9727 10.7031 21.9727 10.9844 22.8477 11.5469C23.7227 12.1094 24.4023 12.918 24.8867 13.9727C25.3711 15.0273 25.6172 16.2344 25.625 17.5938V18.8477C25.625 21.6914 24.918 23.9258 23.5039 25.5508C22.0898 27.1758 20.0859 28.043 17.4922 28.1523L16.6602 28.1641V25.3398L17.4102 25.3281C20.3555 25.1953 21.9492 23.8125 22.1914 21.1797ZM19.9297 19.8906C20.4766 19.8906 20.9453 19.75 21.3359 19.4688C21.7344 19.1875 22.0352 18.8477 22.2383 18.4492V17.0547C22.2383 15.9062 22.0195 15.0156 21.582 14.3828C21.1445 13.75 20.5586 13.4336 19.8242 13.4336C19.1445 13.4336 18.5859 13.7461 18.1484 14.3711C17.7109 14.9883 17.4922 15.7656 17.4922 16.7031C17.4922 17.6328 17.7031 18.3984 18.125 19C18.5547 19.5938 19.1562 19.8906 19.9297 19.8906Z" fill="black"/>
</svg>
