<svg width="40" height="40" viewBox="0 0 40 40" fill="none" xmlns="http://www.w3.org/2000/svg">
<path fill-rule="evenodd" clip-rule="evenodd" d="M36.0683 18.8011L21 7.1851L5.93173 18.8011C5.53355 19.1058 5.03102 19.2408 4.53374 19.1765C4.03646 19.1122 3.58478 18.8538 3.27722 18.4578C2.96965 18.0618 2.83116 17.5603 2.89194 17.0625C2.95273 16.5648 3.20786 16.1113 3.60169 15.801L19.7074 3.2008L21 2L22.2926 3.2008L38.3983 15.801C38.7811 16.115 39.0261 16.5661 39.0813 17.0581C39.1365 17.5501 38.9974 18.0442 38.6937 18.4353C38.39 18.8263 37.9457 19.0833 37.4553 19.1516C36.9649 19.22 36.4673 19.0942 36.0683 18.8011Z" fill="#B12621"/>
<path fill-rule="evenodd" clip-rule="evenodd" d="M36.0683 18.8011L21 7.1851L5.93173 18.8011C5.53355 19.1058 5.03102 19.2408 4.53374 19.1765C4.03646 19.1122 3.58478 18.8538 3.27722 18.4578C2.96965 18.0618 2.83116 17.5603 2.89194 17.0625C2.95273 16.5648 3.20786 16.1113 3.60169 15.801L19.7074 3.2008L21 2L22.2926 3.2008L38.3983 15.801C38.7811 16.115 39.0261 16.5661 39.0813 17.0581C39.1365 17.5501 38.9974 18.0442 38.6937 18.4353C38.39 18.8263 37.9457 19.0833 37.4553 19.1516C36.9649 19.22 36.4673 19.0942 36.0683 18.8011Z" fill="#CC4C42"/>
<path fill-rule="evenodd" clip-rule="evenodd" d="M21 7.18506L6.43335 18.4141V37.4666H35.5667V18.4141L21 7.18506Z" fill="#E0E2E3"/>
<path fill-rule="evenodd" clip-rule="evenodd" d="M39.3667 31.1333C39.1987 31.1333 39.0376 31.2 38.9188 31.3188C38.8001 31.4376 38.7333 31.5987 38.7333 31.7666V32.4H38.1V31.7666C38.1 31.5987 38.0333 31.4376 37.9145 31.3188C37.7957 31.2 37.6347 31.1333 37.4667 31.1333C37.2987 31.1333 37.1376 31.2 37.0188 31.3188C36.9001 31.4376 36.8333 31.5987 36.8333 31.7666V32.4H35.5667C35.3987 32.4 35.2376 32.4667 35.1188 32.5855C35.0001 32.7042 34.9333 32.8653 34.9333 33.0333C34.9333 33.2013 35.0001 33.3624 35.1188 33.4811C35.2376 33.5999 35.3987 33.6666 35.5667 33.6666H36.8333V35.5666H35.5667C35.3987 35.5666 35.2376 35.6334 35.1188 35.7521C35.0001 35.8709 34.9333 36.032 34.9333 36.2C34.9333 36.3679 35.0001 36.529 35.1188 36.6478C35.2376 36.7666 35.3987 36.8333 35.5667 36.8333H36.8333V37.4666C36.8333 37.6346 36.9001 37.7957 37.0188 37.9145C37.1376 38.0332 37.2987 38.1 37.4667 38.1C37.6347 38.1 37.7957 38.0332 37.9145 37.9145C38.0333 37.7957 38.1 37.6346 38.1 37.4666V36.8333H38.7333V37.4666C38.7333 37.6346 38.8001 37.7957 38.9188 37.9145C39.0376 38.0332 39.1987 38.1 39.3667 38.1C39.5347 38.1 39.6957 38.0332 39.8145 37.9145C39.9333 37.7957 40 37.6346 40 37.4666V31.7666C40 31.5987 39.9333 31.4376 39.8145 31.3188C39.6957 31.2 39.5347 31.1333 39.3667 31.1333ZM38.1 33.6666H38.7333V35.5666H38.1V33.6666Z" fill="#E0E2E3"/>
<path fill-rule="evenodd" clip-rule="evenodd" d="M6.43333 33.6666C6.6013 33.6666 6.76239 33.5999 6.88117 33.4811C6.99994 33.3624 7.06667 33.2013 7.06667 33.0333C7.06667 32.8653 6.99994 32.7042 6.88117 32.5855C6.76239 32.4667 6.6013 32.4 6.43333 32.4H5.16667V31.7666C5.16667 31.5987 5.09994 31.4376 4.98117 31.3188C4.86239 31.2 4.7013 31.1333 4.53333 31.1333C4.36536 31.1333 4.20427 31.2 4.0855 31.3188C3.96673 31.4376 3.9 31.5987 3.9 31.7666V32.4H3.26667V31.7666C3.26667 31.5987 3.19994 31.4376 3.08117 31.3188C2.96239 31.2 2.8013 31.1333 2.63333 31.1333C2.46536 31.1333 2.30427 31.2 2.1855 31.3188C2.06673 31.4376 2 31.5987 2 31.7666V37.4666C2 37.6346 2.06673 37.7957 2.1855 37.9145C2.30427 38.0332 2.46536 38.1 2.63333 38.1C2.8013 38.1 2.96239 38.0332 3.08117 37.9145C3.19994 37.7957 3.26667 37.6346 3.26667 37.4666V36.8333H3.9V37.4666C3.9 37.6346 3.96673 37.7957 4.0855 37.9145C4.20427 38.0332 4.36536 38.1 4.53333 38.1C4.7013 38.1 4.86239 38.0332 4.98117 37.9145C5.09994 37.7957 5.16667 37.6346 5.16667 37.4666V36.8333H6.43333C6.6013 36.8333 6.76239 36.7666 6.88117 36.6478C6.99994 36.529 7.06667 36.3679 7.06667 36.2C7.06667 36.032 6.99994 35.8709 6.88117 35.7521C6.76239 35.6334 6.6013 35.5666 6.43333 35.5666H5.16667V33.6666H6.43333ZM3.26667 33.6666H3.9V35.5666H3.26667V33.6666Z" fill="#E0E2E3"/>
<path d="M13.4099 24.0888H12.5229V26.0667H11.4097V20.6636H13.4173C14.0556 20.6636 14.5479 20.8058 14.8942 21.0903C15.2406 21.3748 15.4138 21.7769 15.4138 22.2964C15.4138 22.665 15.3334 22.973 15.1726 23.2204C15.0142 23.4653 14.773 23.6608 14.4489 23.8067L15.6179 26.0147V26.0667H14.4229L13.4099 24.0888ZM12.5229 23.187H13.421C13.7006 23.187 13.917 23.1165 14.0704 22.9755C14.2238 22.832 14.3005 22.6353 14.3005 22.3854C14.3005 22.1306 14.2275 21.9302 14.0815 21.7843C13.9381 21.6383 13.7166 21.5653 13.4173 21.5653H12.5229V23.187Z" fill="#72727E"/>
<path d="M20.7019 23.4876C20.7019 24.0195 20.6078 24.4858 20.4198 24.8866C20.2318 25.2874 19.9621 25.5966 19.6108 25.8144C19.262 26.0321 18.8612 26.1409 18.4085 26.1409C17.9607 26.1409 17.5612 26.0333 17.2099 25.8181C16.8586 25.6028 16.5864 25.2961 16.3935 24.8978C16.2005 24.497 16.1028 24.0368 16.1003 23.5173V23.2501C16.1003 22.7182 16.1955 22.2506 16.386 21.8474C16.579 21.4416 16.8499 21.1312 17.1987 20.9159C17.55 20.6982 17.9508 20.5894 18.4011 20.5894C18.8513 20.5894 19.2509 20.6982 19.5997 20.9159C19.951 21.1312 20.2219 21.4416 20.4124 21.8474C20.6054 22.2506 20.7019 22.717 20.7019 23.2464V23.4876ZM19.5737 23.2427C19.5737 22.6761 19.4723 22.2457 19.2694 21.9513C19.0666 21.6569 18.7771 21.5097 18.4011 21.5097C18.0275 21.5097 17.7393 21.6556 17.5364 21.9476C17.3336 22.237 17.2309 22.6625 17.2284 23.2241V23.4876C17.2284 24.0393 17.3299 24.4673 17.5327 24.7716C17.7356 25.0759 18.0275 25.228 18.4085 25.228C18.7821 25.228 19.069 25.0821 19.2694 24.7901C19.4698 24.4957 19.5713 24.0677 19.5737 23.5062V23.2427Z" fill="#72727E"/>
<path d="M25.9491 23.4876C25.9491 24.0195 25.8551 24.4858 25.6671 24.8866C25.4791 25.2874 25.2094 25.5966 24.8581 25.8144C24.5093 26.0321 24.1085 26.1409 23.6558 26.1409C23.208 26.1409 22.8084 26.0333 22.4571 25.8181C22.1058 25.6028 21.8337 25.2961 21.6407 24.8978C21.4478 24.497 21.35 24.0368 21.3476 23.5173V23.2501C21.3476 22.7182 21.4428 22.2506 21.6333 21.8474C21.8263 21.4416 22.0972 21.1312 22.446 20.9159C22.7973 20.6982 23.1981 20.5894 23.6483 20.5894C24.0986 20.5894 24.4981 20.6982 24.847 20.9159C25.1983 21.1312 25.4692 21.4416 25.6597 21.8474C25.8526 22.2506 25.9491 22.717 25.9491 23.2464V23.4876ZM24.821 23.2427C24.821 22.6761 24.7196 22.2457 24.5167 21.9513C24.3138 21.6569 24.0244 21.5097 23.6483 21.5097C23.2748 21.5097 22.9866 21.6556 22.7837 21.9476C22.5808 22.237 22.4782 22.6625 22.4757 23.2241V23.4876C22.4757 24.0393 22.5771 24.4673 22.78 24.7716C22.9828 25.0759 23.2748 25.228 23.6558 25.228C24.0293 25.228 24.3163 25.0821 24.5167 24.7901C24.7171 24.4957 24.8185 24.0677 24.821 23.5062V23.2427Z" fill="#72727E"/>
<path d="M30.0089 23.8587H27.8714V26.0667H26.7581V20.6636H30.2761V21.5653H27.8714V22.9606H30.0089V23.8587Z" fill="#72727E"/>
</svg>
