<svg width="40" height="40" viewBox="0 0 40 40" fill="none" xmlns="http://www.w3.org/2000/svg">
<path fill-rule="evenodd" clip-rule="evenodd" d="M21.6289 2.39505C21.6863 2.76346 22.1828 2.84203 22.3509 2.50905C23.1985 0.829322 25.7465 1.65695 25.4451 3.51444C25.3852 3.88285 25.8334 4.11085 26.0962 3.84614C27.4217 2.51098 29.589 4.08508 28.7285 5.75902C28.5578 6.09071 28.9134 6.44624 29.2451 6.27556C30.919 5.41508 32.4931 7.58237 31.1579 8.90786C30.8932 9.17064 31.1212 9.61827 31.4896 9.55902C33.3471 9.25759 34.1747 11.8055 32.495 12.6531C32.162 12.8212 32.2406 13.3178 32.609 13.3751C34.4691 13.6624 34.4691 16.3417 32.609 16.6289C32.2406 16.6856 32.162 17.1822 32.495 17.3503C34.1747 18.1985 33.3471 20.7465 31.4896 20.445C31.1212 20.3852 30.8932 20.8334 31.1579 21.0962C32.4931 22.4217 30.919 24.589 29.2451 23.7285C28.9134 23.5578 28.5578 23.9134 28.7285 24.245C29.589 25.9183 27.4217 27.4931 26.0962 26.1573C25.8334 25.8926 25.3852 26.1212 25.4451 26.489V26.4896C25.7465 28.3465 23.1985 29.1747 22.3509 27.495C22.1828 27.1614 21.6863 27.2406 21.6289 27.609C21.3417 29.4684 18.6624 29.4684 18.3751 27.609C18.3184 27.2406 17.8219 27.1614 17.6538 27.495C16.8055 29.1747 14.2576 28.3465 14.559 26.4896V26.489C14.6189 26.1212 14.1706 25.8926 13.9079 26.1573C12.5824 27.4931 10.4151 25.9183 11.2756 24.245C11.4462 23.9134 11.0907 23.5578 10.759 23.7285C9.08573 24.589 7.51098 22.4217 8.84678 21.0962C9.11149 20.8334 8.88285 20.3852 8.51508 20.445H8.51444C6.65695 20.7465 5.82932 18.1985 7.50905 17.3503C7.84268 17.1822 7.76346 16.6856 7.39505 16.6289C5.53498 16.3417 5.53498 13.6624 7.39505 13.3751C7.76346 13.3178 7.84268 12.8212 7.50905 12.6531C5.82932 11.8055 6.65695 9.25759 8.51444 9.55902H8.51508C8.88285 9.61827 9.11149 9.17064 8.84678 8.90786C7.51098 7.58237 9.08573 5.41508 10.759 6.27556C11.0907 6.44624 11.4462 6.09071 11.2756 5.75902C10.4151 4.08508 12.5824 2.51098 13.9079 3.84614C14.1706 4.11085 14.6189 3.88285 14.559 3.51444C14.2576 1.65695 16.8055 0.829322 17.6538 2.50905C17.8219 2.84203 18.3184 2.76346 18.3751 2.39505C18.6624 0.534983 21.3417 0.534983 21.6289 2.39505Z" fill="#659C35"/>
<path fill-rule="evenodd" clip-rule="evenodd" d="M21.6289 27.6091C21.3417 29.4685 18.6623 29.4685 18.3751 27.6091C18.3371 27.3631 17.9023 27.2104 17.9023 27.2987V38.356H21.7668V27.3721C21.7668 27.3064 21.645 27.5054 21.6289 27.6091Z" fill="#6B5B4B"/>
<path fill-rule="evenodd" clip-rule="evenodd" d="M21.7669 22.8982C21.5961 22.8982 21.4322 22.8303 21.3114 22.7096C21.1907 22.5888 21.1228 22.4249 21.1228 22.2541C21.1228 19.0576 23.7235 16.4575 26.9194 16.4575C27.0902 16.4575 27.2541 16.5254 27.3748 16.6462C27.4956 16.7669 27.5635 16.9308 27.5635 17.1016C27.5635 17.2724 27.4956 17.4362 27.3748 17.557C27.2541 17.6778 27.0902 17.7457 26.9194 17.7457C24.4333 17.7457 22.4109 19.7687 22.4109 22.2541C22.4109 22.4249 22.3431 22.5888 22.2223 22.7096C22.1015 22.8303 21.9377 22.8982 21.7669 22.8982Z" fill="#A4E869"/>
<path fill-rule="evenodd" clip-rule="evenodd" d="M17.9023 24.8306C17.7315 24.8306 17.5677 24.7627 17.4469 24.6419C17.3261 24.5211 17.2583 24.3573 17.2583 24.1865C17.2583 21.701 15.2359 19.678 12.7498 19.678C12.579 19.678 12.4151 19.6102 12.2944 19.4894C12.1736 19.3686 12.1057 19.2048 12.1057 19.034C12.1057 18.8631 12.1736 18.6993 12.2944 18.5785C12.4151 18.4577 12.579 18.3899 12.7498 18.3899C15.9456 18.3899 18.5464 20.99 18.5464 24.1865C18.5464 24.3573 18.4785 24.5211 18.3577 24.6419C18.237 24.7627 18.0731 24.8306 17.9023 24.8306Z" fill="#A4E869"/>
<path fill-rule="evenodd" clip-rule="evenodd" d="M19.1904 17.7459C19.0196 17.7459 18.8558 17.678 18.735 17.5572C18.6142 17.4364 18.5463 17.2726 18.5463 17.1018C18.5463 14.6163 16.524 12.5933 14.0379 12.5933C13.867 12.5933 13.7032 12.5255 13.5824 12.4047C13.4617 12.2839 13.3938 12.1201 13.3938 11.9492C13.3938 11.7784 13.4617 11.6146 13.5824 11.4938C13.7032 11.373 13.867 11.3052 14.0379 11.3052C17.2337 11.3052 19.8345 13.9053 19.8345 17.1018C19.8345 17.2726 19.7666 17.4364 19.6458 17.5572C19.525 17.678 19.3612 17.7459 19.1904 17.7459Z" fill="#A4E869"/>
<path fill-rule="evenodd" clip-rule="evenodd" d="M19.8345 12.5933C19.6637 12.5933 19.4999 12.5254 19.3791 12.4046C19.2583 12.2838 19.1904 12.12 19.1904 11.9492C19.1904 8.75269 21.7912 6.15259 24.987 6.15259C25.1579 6.15259 25.3217 6.22044 25.4425 6.34123C25.5632 6.46202 25.6311 6.62584 25.6311 6.79666C25.6311 6.96747 25.5632 7.13129 25.4425 7.25208C25.3217 7.37287 25.1579 7.44072 24.987 7.44072C22.5009 7.44072 20.4786 9.46374 20.4786 11.9492C20.4786 12.12 20.4107 12.2838 20.2899 12.4046C20.1691 12.5254 20.0053 12.5933 19.8345 12.5933Z" fill="#A4E869"/>
<path fill-rule="evenodd" clip-rule="evenodd" d="M29.4957 12.5931C28.0749 12.5931 26.9194 11.4377 26.9194 10.0169C26.9194 9.84605 26.9873 9.68223 27.1081 9.56145C27.2289 9.44066 27.3927 9.3728 27.5635 9.3728C27.7343 9.3728 27.8981 9.44066 28.0189 9.56145C28.1397 9.68223 28.2076 9.84605 28.2076 10.0169C28.2076 10.7266 28.7853 11.305 29.4957 11.305C29.6665 11.305 29.8303 11.3729 29.9511 11.4936C30.0719 11.6144 30.1398 11.7783 30.1398 11.9491C30.1398 12.1199 30.0719 12.2837 29.9511 12.4045C29.8303 12.5253 29.6665 12.5931 29.4957 12.5931Z" fill="#A4E869"/>
<path fill-rule="evenodd" clip-rule="evenodd" d="M23.699 15.1696C23.5282 15.1696 23.3644 15.1017 23.2436 14.9809C23.1228 14.8601 23.0549 14.6963 23.0549 14.5255C23.0549 13.1047 24.2104 11.9492 25.6312 11.9492C25.802 11.9492 25.9658 12.0171 26.0866 12.1379C26.2074 12.2586 26.2753 12.4225 26.2753 12.5933C26.2753 12.7641 26.2074 12.9279 26.0866 13.0487C25.9658 13.1695 25.802 13.2374 25.6312 13.2374C24.9208 13.2374 24.3431 13.8157 24.3431 14.5255C24.3431 14.6963 24.2752 14.8601 24.1544 14.9809C24.0336 15.1017 23.8698 15.1696 23.699 15.1696Z" fill="#A4E869"/>
<path fill-rule="evenodd" clip-rule="evenodd" d="M17.9024 8.08484C16.4816 8.08484 15.3262 6.92938 15.3262 5.50857C15.3262 5.33775 15.394 5.17393 15.5148 5.05315C15.6356 4.93236 15.7994 4.8645 15.9702 4.8645C16.1411 4.8645 16.3049 4.93236 16.4257 5.05315C16.5465 5.17393 16.6143 5.33775 16.6143 5.50857C16.6143 6.21898 17.192 6.79671 17.9024 6.79671C18.0733 6.79671 18.2371 6.86456 18.3579 6.98535C18.4787 7.10613 18.5465 7.26996 18.5465 7.44077C18.5465 7.61159 18.4787 7.77541 18.3579 7.8962C18.2371 8.01698 18.0733 8.08484 17.9024 8.08484Z" fill="#A4E869"/>
<path fill-rule="evenodd" clip-rule="evenodd" d="M10.8177 16.4576C10.6468 16.4576 10.483 16.3898 10.3622 16.269C10.2414 16.1482 10.1736 15.9844 10.1736 15.8136C10.1736 15.6428 10.2414 15.4789 10.3622 15.3582C10.483 15.2374 10.6468 15.1695 10.8177 15.1695C11.5281 15.1695 12.1058 14.5911 12.1058 13.8814C12.1058 13.7106 12.1736 13.5467 12.2944 13.4259C12.4152 13.3052 12.579 13.2373 12.7499 13.2373C12.9207 13.2373 13.0845 13.3052 13.2053 13.4259C13.3261 13.5467 13.3939 13.7106 13.3939 13.8814C13.3939 15.3022 12.2385 16.4576 10.8177 16.4576Z" fill="#A4E869"/>
<path fill-rule="evenodd" clip-rule="evenodd" d="M26.2752 22.8983C26.1044 22.8983 25.9405 22.8305 25.8197 22.7097C25.699 22.5889 25.6311 22.4251 25.6311 22.2542C25.6311 20.8334 26.7866 19.678 28.2074 19.678C28.3782 19.678 28.542 19.7458 28.6628 19.8666C28.7836 19.9874 28.8514 20.1512 28.8514 20.322C28.8514 20.4929 28.7836 20.6567 28.6628 20.7775C28.542 20.8983 28.3782 20.9661 28.2074 20.9661C27.497 20.9661 26.9192 21.5445 26.9192 22.2542C26.9192 22.4251 26.8514 22.5889 26.7306 22.7097C26.6098 22.8305 26.446 22.8983 26.2752 22.8983Z" fill="#A4E869"/>
<path fill-rule="evenodd" clip-rule="evenodd" d="M15.9702 39.0001C15.7994 39.0001 15.6356 38.9322 15.5148 38.8114C15.394 38.6906 15.3262 38.5268 15.3262 38.356V37.7119C15.3262 37.5411 15.394 37.3773 15.5148 37.2565C15.6356 37.1357 15.7994 37.0679 15.9702 37.0679C16.1411 37.0679 16.3049 37.1357 16.4257 37.2565C16.5465 37.3773 16.6143 37.5411 16.6143 37.7119V38.356C16.6143 38.5268 16.5465 38.6906 16.4257 38.8114C16.3049 38.9322 16.1411 39.0001 15.9702 39.0001Z" fill="#23A24D"/>
<path fill-rule="evenodd" clip-rule="evenodd" d="M14.0379 39.0001C13.867 39.0001 13.7032 38.9322 13.5824 38.8114C13.4617 38.6906 13.3938 38.5268 13.3938 38.356V37.7119C13.3938 37.5411 13.4617 37.3773 13.5824 37.2565C13.7032 37.1357 13.867 37.0679 14.0379 37.0679C14.2087 37.0679 14.3725 37.1357 14.4933 37.2565C14.6141 37.3773 14.6819 37.5411 14.6819 37.7119V38.356C14.6819 38.5268 14.6141 38.6906 14.4933 38.8114C14.3725 38.9322 14.2087 39.0001 14.0379 39.0001Z" fill="#23A24D"/>
<path fill-rule="evenodd" clip-rule="evenodd" d="M12.1057 39.0001C11.9349 39.0001 11.7711 38.9322 11.6503 38.8114C11.5295 38.6906 11.4617 38.5268 11.4617 38.356V37.7119C11.4617 37.5411 11.5295 37.3773 11.6503 37.2565C11.7711 37.1357 11.9349 37.0679 12.1057 37.0679C12.2766 37.0679 12.4404 37.1357 12.5612 37.2565C12.6819 37.3773 12.7498 37.5411 12.7498 37.7119V38.356C12.7498 38.5268 12.6819 38.6906 12.5612 38.8114C12.4404 38.9322 12.2766 39.0001 12.1057 39.0001Z" fill="#23A24D"/>
<path fill-rule="evenodd" clip-rule="evenodd" d="M10.1736 39.0001C10.0028 39.0001 9.83897 38.9322 9.71818 38.8114C9.5974 38.6906 9.52954 38.5268 9.52954 38.356V37.7119C9.52954 37.5411 9.5974 37.3773 9.71818 37.2565C9.83897 37.1357 10.0028 37.0679 10.1736 37.0679C10.3444 37.0679 10.5082 37.1357 10.629 37.2565C10.7498 37.3773 10.8177 37.5411 10.8177 37.7119V38.356C10.8177 38.5268 10.7498 38.6906 10.629 38.8114C10.5082 38.9322 10.3444 39.0001 10.1736 39.0001Z" fill="#23A24D"/>
<path fill-rule="evenodd" clip-rule="evenodd" d="M8.24148 39.0001C8.07066 39.0001 7.90684 38.9322 7.78606 38.8114C7.66527 38.6906 7.59741 38.5268 7.59741 38.356V37.7119C7.59741 37.5411 7.66527 37.3773 7.78606 37.2565C7.90684 37.1357 8.07066 37.0679 8.24148 37.0679C8.4123 37.0679 8.57612 37.1357 8.6969 37.2565C8.81769 37.3773 8.88555 37.5411 8.88555 37.7119V38.356C8.88555 38.5268 8.81769 38.6906 8.6969 38.8114C8.57612 38.9322 8.4123 39.0001 8.24148 39.0001Z" fill="#23A24D"/>
<path fill-rule="evenodd" clip-rule="evenodd" d="M27.5635 39.0001C27.3927 39.0001 27.2289 38.9322 27.1081 38.8114C26.9873 38.6906 26.9194 38.5268 26.9194 38.356V37.7119C26.9194 37.5411 26.9873 37.3773 27.1081 37.2565C27.2289 37.1357 27.3927 37.0679 27.5635 37.0679C27.7343 37.0679 27.8981 37.1357 28.0189 37.2565C28.1397 37.3773 28.2076 37.5411 28.2076 37.7119V38.356C28.2076 38.5268 28.1397 38.6906 28.0189 38.8114C27.8981 38.9322 27.7343 39.0001 27.5635 39.0001Z" fill="#23A24D"/>
<path fill-rule="evenodd" clip-rule="evenodd" d="M25.6311 39.0001C25.4603 39.0001 25.2965 38.9322 25.1757 38.8114C25.0549 38.6906 24.9871 38.5268 24.9871 38.356V37.7119C24.9871 37.5411 25.0549 37.3773 25.1757 37.2565C25.2965 37.1357 25.4603 37.0679 25.6311 37.0679C25.8019 37.0679 25.9658 37.1357 26.0866 37.2565C26.2073 37.3773 26.2752 37.5411 26.2752 37.7119V38.356C26.2752 38.5268 26.2073 38.6906 26.0866 38.8114C25.9658 38.9322 25.8019 39.0001 25.6311 39.0001Z" fill="#23A24D"/>
<path fill-rule="evenodd" clip-rule="evenodd" d="M23.699 39.0001C23.5282 39.0001 23.3644 38.9322 23.2436 38.8114C23.1228 38.6906 23.0549 38.5268 23.0549 38.356V37.7119C23.0549 37.5411 23.1228 37.3773 23.2436 37.2565C23.3644 37.1357 23.5282 37.0679 23.699 37.0679C23.8698 37.0679 24.0336 37.1357 24.1544 37.2565C24.2752 37.3773 24.3431 37.5411 24.3431 37.7119V38.356C24.3431 38.5268 24.2752 38.6906 24.1544 38.8114C24.0336 38.9322 23.8698 39.0001 23.699 39.0001Z" fill="#23A24D"/>
<path fill-rule="evenodd" clip-rule="evenodd" d="M33.3599 39.0001C33.1891 39.0001 33.0252 38.9322 32.9045 38.8114C32.7837 38.6906 32.7158 38.5268 32.7158 38.356V37.7119C32.7158 37.5411 32.7837 37.3773 32.9045 37.2565C33.0252 37.1357 33.1891 37.0679 33.3599 37.0679C33.5307 37.0679 33.6945 37.1357 33.8153 37.2565C33.9361 37.3773 34.004 37.5411 34.004 37.7119V38.356C34.004 38.5268 33.9361 38.6906 33.8153 38.8114C33.6945 38.9322 33.5307 39.0001 33.3599 39.0001Z" fill="#23A24D"/>
<path fill-rule="evenodd" clip-rule="evenodd" d="M31.4278 39.0001C31.2569 39.0001 31.0931 38.9322 30.9723 38.8114C30.8515 38.6906 30.7837 38.5268 30.7837 38.356V37.7119C30.7837 37.5411 30.8515 37.3773 30.9723 37.2565C31.0931 37.1357 31.2569 37.0679 31.4278 37.0679C31.5986 37.0679 31.7624 37.1357 31.8832 37.2565C32.004 37.3773 32.0718 37.5411 32.0718 37.7119V38.356C32.0718 38.5268 32.004 38.6906 31.8832 38.8114C31.7624 38.9322 31.5986 39.0001 31.4278 39.0001Z" fill="#23A24D"/>
<path fill-rule="evenodd" clip-rule="evenodd" d="M29.4956 39.0001C29.3248 39.0001 29.161 38.9322 29.0402 38.8114C28.9194 38.6906 28.8516 38.5268 28.8516 38.356V37.7119C28.8516 37.5411 28.9194 37.3773 29.0402 37.2565C29.161 37.1357 29.3248 37.0679 29.4956 37.0679C29.6664 37.0679 29.8303 37.1357 29.9511 37.2565C30.0718 37.3773 30.1397 37.5411 30.1397 37.7119V38.356C30.1397 38.5268 30.0718 38.6906 29.9511 38.8114C29.8303 38.9322 29.6664 39.0001 29.4956 39.0001Z" fill="#23A24D"/>
</svg>
