<svg width="40" height="40" viewBox="0 0 40 40" fill="none" xmlns="http://www.w3.org/2000/svg">
<path fill-rule="evenodd" clip-rule="evenodd" d="M24.3472 1C17.1109 1 13.2093 3.30293 13.2093 4.93103V12.039L10.3691 9.19883L10.2918 9.12152C9.90854 8.73759 7.70848 8.46634 6.00241 10.1724C4.29699 11.8785 3.73092 14.9152 4.11485 15.2985L4.19216 15.3758L13.2093 24.3929V35.3966C13.2093 37.387 17.1109 39 24.3472 39C31.5843 39 35.4852 37.387 35.4852 35.3966V4.93103C35.4852 3.30293 31.5843 1 24.3472 1Z" fill="#745A49"/>
<path fill-rule="evenodd" clip-rule="evenodd" d="M24.3473 1C17.7052 1 13.8829 2.93866 13.2979 4.51697C13.8829 6.5991 17.7052 8.2069 24.3473 8.2069C30.9901 8.2069 34.8124 6.5991 35.3968 4.51697C34.8124 2.93866 30.9901 1 24.3473 1Z" fill="#D1A170"/>
<path fill-rule="evenodd" clip-rule="evenodd" d="M11.0518 9.8808L10.2918 9.1208C9.90854 8.73687 7.70847 8.46563 6.00241 10.1717C4.29699 11.8778 3.73092 14.9145 4.11485 15.2978L4.19216 15.3751L4.81589 15.9988C8.96641 14.7468 10.5139 12.1018 11.0518 9.8808Z" fill="#D1A170"/>
<path fill-rule="evenodd" clip-rule="evenodd" d="M30.8991 33.7585C30.7253 33.7585 30.5587 33.8276 30.4358 33.9504C30.3129 34.0733 30.2439 34.24 30.2439 34.4137V38.5439C30.684 38.465 31.1211 38.3699 31.5542 38.2589V34.4137C31.5542 34.24 31.4852 34.0733 31.3623 33.9504C31.2395 33.8276 31.0728 33.7585 30.8991 33.7585Z" fill="#3D3028"/>
<path fill-rule="evenodd" clip-rule="evenodd" d="M26.9682 31.7935C26.7944 31.7935 26.6278 31.8625 26.5049 31.9854C26.382 32.1082 26.313 32.2749 26.313 32.4486V38.9532C26.7502 38.934 27.1871 38.9069 27.6233 38.8719V32.4486C27.6233 32.2749 27.5543 32.1082 27.4314 31.9854C27.3086 31.8625 27.1419 31.7935 26.9682 31.7935Z" fill="#3D3028"/>
<path fill-rule="evenodd" clip-rule="evenodd" d="M24.3473 36.3792C24.1735 36.3792 24.0069 36.4482 23.884 36.571C23.7612 36.6939 23.6921 36.8606 23.6921 37.0343V38.9907C23.911 38.9939 24.1226 38.9998 24.3473 38.9998C24.5727 38.9998 24.7843 38.9939 25.0025 38.9907V37.0343C25.0025 36.8606 24.9335 36.6939 24.8106 36.571C24.6877 36.4482 24.5211 36.3792 24.3473 36.3792Z" fill="#3D3028"/>
<path fill-rule="evenodd" clip-rule="evenodd" d="M21.0714 33.1035C20.8977 33.1035 20.731 33.1725 20.6082 33.2954C20.4853 33.4183 20.4163 33.5849 20.4163 33.7587V38.814C20.8369 38.8566 21.2706 38.8939 21.7266 38.9221V33.7587C21.7266 33.5849 21.6576 33.4183 21.5347 33.2954C21.4118 33.1725 21.2452 33.1035 21.0714 33.1035Z" fill="#3D3028"/>
<path fill-rule="evenodd" clip-rule="evenodd" d="M16.4853 28.5168C16.3115 28.5168 16.1448 28.5859 16.022 28.7087C15.8991 28.8316 15.8301 28.9983 15.8301 29.172V37.8537C16.2238 38.0011 16.6608 38.1361 17.1404 38.2586V29.172C17.1404 28.9983 17.0714 28.8316 16.9485 28.7087C16.8257 28.5859 16.659 28.5168 16.4853 28.5168Z" fill="#3D3028"/>
<path fill-rule="evenodd" clip-rule="evenodd" d="M15.8157 6.84644L15.8301 13.4493C15.8304 13.6228 15.8996 13.7891 16.0224 13.9117C16.1453 14.0343 16.3117 14.1031 16.4853 14.1031H16.4866C16.5726 14.103 16.6578 14.0858 16.7372 14.0528C16.8166 14.0197 16.8887 13.9713 16.9495 13.9103C17.0102 13.8493 17.0583 13.777 17.0911 13.6975C17.1238 13.6179 17.1406 13.5327 17.1404 13.4466L17.1273 7.32799C16.6805 7.19493 16.2424 7.0341 15.8157 6.84644Z" fill="#3D3028"/>
<path fill-rule="evenodd" clip-rule="evenodd" d="M19.0823 7.79053L19.1059 18.0361C19.1062 18.2096 19.1754 18.376 19.2982 18.4985C19.4211 18.6211 19.5875 18.69 19.761 18.69H19.763C19.849 18.6898 19.9341 18.6727 20.0135 18.6396C20.0929 18.6065 20.165 18.5581 20.2257 18.4971C20.2863 18.4361 20.3344 18.3638 20.3671 18.2843C20.3998 18.2047 20.4165 18.1195 20.4162 18.0335L20.3926 7.98249C19.9541 7.93083 19.5172 7.86682 19.0823 7.79053Z" fill="#3D3028"/>
<path fill-rule="evenodd" clip-rule="evenodd" d="M25.0024 8.1969V11.4826C25.0024 11.6563 25.0715 11.823 25.1943 11.9459C25.3172 12.0687 25.4839 12.1378 25.6576 12.1378C25.8314 12.1378 25.998 12.0687 26.1209 11.9459C26.2438 11.823 26.3128 11.6563 26.3128 11.4826V8.15234C25.8902 8.17462 25.4532 8.18903 25.0024 8.1969Z" fill="#3D3028"/>
<path fill-rule="evenodd" clip-rule="evenodd" d="M29.5889 7.79418V18.6897C29.5889 18.8635 29.6579 19.0301 29.7808 19.153C29.9036 19.2758 30.0703 19.3449 30.244 19.3449C30.4178 19.3449 30.5844 19.2758 30.7073 19.153C30.8302 19.0301 30.8992 18.8635 30.8992 18.6897V7.51245C30.4878 7.61662 30.0534 7.71162 29.5889 7.79418Z" fill="#3D3028"/>
<path fill-rule="evenodd" clip-rule="evenodd" d="M32.2095 7.11668V13.4483C32.2095 13.622 32.2785 13.7887 32.4014 13.9115C32.5242 14.0344 32.6909 14.1034 32.8646 14.1034C33.0384 14.1034 33.2051 14.0344 33.3279 13.9115C33.4508 13.7887 33.5198 13.622 33.5198 13.4483V6.52637C33.1372 6.7393 32.7022 6.93782 32.2095 7.11668Z" fill="#3D3028"/>
</svg>
