<svg width="40" height="40" viewBox="0 0 40 40" fill="none" xmlns="http://www.w3.org/2000/svg">
<path d="M25.1015 39.1117C23.8826 39.6966 22.5479 40.0002 21.1959 40C20.9154 40 20.6341 39.9866 20.3543 39.9603C19.2909 39.8614 18.2535 39.574 17.2908 39.1117L17.8092 36.1241L21.7404 34.1553L24.583 36.1241L24.8263 37.5261L25.1015 39.1117Z" fill="#7F4A26"/>
<path d="M25.1017 39.1117C23.8828 39.6966 22.5481 40.0002 21.1961 40C20.9156 40 20.6343 39.9866 20.3545 39.9603V37.5261H24.8265L25.1017 39.1117Z" fill="#935D35"/>
<path d="M32.7408 35.2808C25.1305 36.5405 17.2626 36.5405 9.65248 35.2808C7.34042 34.8984 6.25379 32.8342 7.56568 31.3095C8.76643 29.9133 9.9558 28.5074 11.1337 27.0918C13.5874 24.1446 15.9901 21.1551 18.3404 18.1247C19.6346 16.4568 22.7587 16.4568 24.0527 18.1247C26.4032 21.1549 28.8058 24.1444 31.2594 27.0918C32.4372 28.5074 33.6267 29.9134 34.8277 31.3095C36.1395 32.8342 35.0521 34.8984 32.7408 35.2808Z" fill="#9FD661"/>
<path d="M31.2593 27.0918C31.1709 27.1141 31.0792 27.133 30.985 27.1484C24.5321 28.2162 17.8599 28.2162 11.4073 27.1484C11.3153 27.1333 11.224 27.1145 11.1335 27.0918C13.5873 24.1446 15.9899 21.1551 18.3403 18.1247C19.6345 16.4568 22.7586 16.4568 24.0526 18.1247C26.4031 21.1549 28.8057 24.1444 31.2593 27.0918Z" fill="#8BC34C"/>
<path d="M30.9852 24.8171C24.5322 25.8848 17.8601 25.8848 11.4074 24.8171C9.4473 24.4924 8.52625 22.7422 9.63834 21.4498C11.1353 19.7091 12.6113 17.9504 14.0659 16.1742C15.6621 14.2271 17.232 12.2585 18.7751 10.2691C19.8715 8.85464 22.5211 8.85464 23.6184 10.2691C25.1612 12.2585 26.7306 14.227 28.3264 16.1742C29.7814 17.9503 31.2577 19.7089 32.7548 21.4498C33.8669 22.7422 32.9453 24.4924 30.9852 24.8171V24.8171Z" fill="#9FD661"/>
<path d="M28.3263 16.1741C23.6206 16.9094 18.7717 16.9094 14.0659 16.1741C15.6621 14.2271 17.2319 12.2585 18.7749 10.2691C19.8714 8.85464 22.521 8.85464 23.6183 10.2691C25.1611 12.2585 26.7306 14.227 28.3263 16.1741Z" fill="#8BC34C"/>
<path d="M19.3309 2.81737C17.0581 5.74704 14.7113 8.61862 12.2929 11.4293C11.4362 12.4255 12.1461 13.7736 13.6561 14.0235C18.6267 14.8463 23.7663 14.8463 28.7373 14.0235C30.2472 13.7736 30.9568 12.4255 30.1001 11.4293C27.6818 8.61855 25.3351 5.74697 23.0621 2.81737C22.217 1.72754 20.1763 1.72754 19.3309 2.81737H19.3309Z" fill="#9FD661"/>
<path d="M21.0456 2.00269V2.00358C21.0456 2.00358 13.9004 14.0412 17.515 14.4929C16.2225 14.3912 14.9348 14.2343 13.6557 14.0226C12.1455 13.773 11.4352 12.4246 12.2925 11.4284C14.7108 8.61764 17.0575 5.74607 19.3305 2.81649C19.7231 2.30973 20.376 2.03779 21.0457 2.00269H21.0456Z" fill="#8BC34C"/>
<path d="M18.4889 16.4475L16.9735 20.9931L15.504 25.3477C14.1327 25.2181 12.7663 25.0408 11.4074 24.816C9.44728 24.4921 8.52564 22.7419 9.63773 21.4486C11.0154 19.8463 12.3758 18.2291 13.7186 16.5974C14.0843 16.1529 14.4486 15.7071 14.8113 15.26L18.4889 16.4475Z" fill="#8BC34C"/>
<path d="M14.8935 35.9447C14.8944 35.9447 14.8953 35.9456 14.8959 35.9456C13.1401 35.7898 11.3907 35.5678 9.65162 35.2802C7.34038 34.897 6.25293 32.833 7.56475 31.3081C8.66159 30.0333 9.74863 28.7501 10.8258 27.4586C11.4986 26.6536 12.1673 25.8451 12.8317 25.0331L12.9103 24.9097L16.7403 27.0547C16.7403 27.0547 9.43327 34.3437 14.8935 35.9447Z" fill="#8BC34C"/>
<path d="M17.1183 26.5289C17.1183 28.1383 15.8136 29.4432 14.204 29.4432C12.5947 29.4432 11.2898 28.1383 11.2898 26.5289C11.2898 24.9194 12.5947 23.6147 14.2041 23.6147C15.8136 23.6147 17.1183 24.9194 17.1183 26.5289Z" fill="#EF5361"/>
<path d="M31.1303 19.1129C31.1303 20.7226 29.8254 22.0272 28.2161 22.0272C26.6065 22.0272 25.3015 20.7226 25.3015 19.1129C25.3015 17.5036 26.6065 16.1987 28.2161 16.1987C29.8254 16.1987 31.1303 17.5036 31.1303 19.1129Z" fill="#EF5361"/>
<path d="M20.6208 7.95333C20.6208 9.56291 19.3158 10.8675 17.7065 10.8675C16.0968 10.8675 14.7922 9.56291 14.7922 7.95333C14.7922 6.34397 16.0968 5.03906 17.7065 5.03906C19.3159 5.03906 20.6208 6.34397 20.6208 7.95333Z" fill="#EF5361"/>
<path d="M15.1066 29.2997C14.8154 29.3951 14.5108 29.4435 14.2044 29.443C12.5948 29.443 11.2898 28.1381 11.2898 26.5293C11.2898 24.9197 12.5948 23.6147 14.2044 23.6147C14.5193 23.6147 14.823 23.6646 15.1066 23.7577C13.9394 24.1378 13.0955 25.2352 13.0955 26.5293C13.0955 27.8232 13.9394 28.92 15.1066 29.2997Z" fill="#DC4250"/>
<path d="M29.1193 21.8839C28.8278 21.9792 28.5229 22.0275 28.2162 22.0268C26.6069 22.0268 25.302 20.7228 25.302 19.1132C25.302 17.5039 26.6069 16.199 28.2162 16.199C28.5319 16.199 28.8349 16.2486 29.1193 16.3418C27.9521 16.7219 27.1082 17.8193 27.1082 19.1132C27.1082 20.4074 27.9521 21.5047 29.1193 21.8839Z" fill="#DC4250"/>
<path d="M18.6096 10.725C18.318 10.82 18.0132 10.8682 17.7065 10.8678C16.0971 10.8678 14.7922 9.56291 14.7922 7.95326C14.7922 6.34397 16.0971 5.03906 17.7065 5.03906C18.0213 5.03906 18.3252 5.08864 18.6096 5.18201C17.4424 5.56208 16.5984 6.6594 16.5984 7.95333C16.5984 9.24748 17.4424 10.3448 18.6096 10.725Z" fill="#DC4250"/>
</svg>
